<svg width="70" height="71" viewBox="0 0 70 71" fill="none" xmlns="http://www.w3.org/2000/svg">
<path fill-rule="evenodd" clip-rule="evenodd" d="M69.5855 55.3264L61.2456 41.594C60.4666 40.3093 58.8544 39.9429 57.653 40.7746C56.4439 41.594 56.1029 43.307 56.8818 44.5876L62.6368 54.2929H50.3013L50.3052 48.3676C49.8092 47.8364 49.0302 47.8034 48.5651 48.2976L40.1632 55.8205C39.702 56.3187 39.7292 57.1464 40.2252 57.6776L48.5574 63.7511C49.0573 64.2781 49.8363 64.307 50.2975 63.8087V59.584H67.4036C68.3531 59.584 69.229 59.0323 69.6824 58.1429C70.1358 57.2576 70.1009 56.1746 69.5855 55.3264Z" fill="black"/>
<path fill-rule="evenodd" clip-rule="evenodd" d="M24.4716 54.4744H11.7795L18.6972 43.1426L22.3323 45.8438C23.0454 45.7203 23.526 45.0367 23.4058 44.3203L22.8478 32.6838C22.7315 31.9714 22.0572 31.5103 21.3441 31.6379L10.9889 35.0638C10.2836 35.2079 9.80693 35.8914 9.92707 36.5956L14.3373 39.8856L4.86576 55.5367C4.33095 56.4097 4.29607 57.5256 4.76499 58.4356C5.23392 59.3579 6.12915 59.922 7.10576 59.922H24.7041C26.1768 59.922 27.3704 58.6456 27.3704 57.0767C27.3704 55.5079 25.9481 54.4744 24.4716 54.4744Z" fill="black"/>
<path fill-rule="evenodd" clip-rule="evenodd" d="M41.2675 29.8053L51.3863 33.2724C52.0373 33.4042 52.6652 32.9142 52.7969 32.1771L53.4441 20.9936C53.5681 20.2565 53.1496 19.5606 52.5063 19.433L48.8013 22.1095L40.3645 8.23298C39.4112 6.66004 36.958 6.65592 36.0047 8.2371L28.1647 21.1377C27.3857 22.4224 27.7306 24.1271 28.9359 24.9547C30.1411 25.7824 31.7494 25.4159 32.5284 24.1312L38.1865 14.8212L44.5074 25.2183L40.3374 28.2324C40.2018 28.9736 40.6164 29.6736 41.2675 29.8053Z" fill="black"/>
</svg>
