<svg width="68" height="69" viewBox="0 0 68 69" fill="none" xmlns="http://www.w3.org/2000/svg">
<g clip-path="url(#clip0_1_2333)">
<path d="M34 47.103C41.0416 47.103 46.75 41.3947 46.75 34.353C46.75 27.3114 41.0416 21.603 34 21.603C26.9584 21.603 21.25 27.3114 21.25 34.353C21.25 41.3947 26.9584 47.103 34 47.103Z" stroke="#272D40" stroke-width="2" stroke-linecap="round" stroke-linejoin="round"/>
<path d="M48.7954 17.6453C49.4683 18.2651 50.1058 18.9026 50.7079 19.5578L57.9594 20.5937C59.141 22.6457 60.0517 24.8421 60.6688 27.1281L56.2594 32.9984C56.2594 32.9984 56.3391 34.8046 56.2594 35.7078L60.6688 41.5781C60.0545 43.865 59.1437 46.0618 57.9594 48.1125L50.7079 49.1484C50.7079 49.1484 49.4594 50.4499 48.7954 51.0609L47.7594 58.3124C45.7075 59.494 43.511 60.4047 41.225 61.0218L35.3547 56.6125C34.4534 56.6922 33.5467 56.6922 32.6454 56.6125L26.7751 61.0218C24.4881 60.4076 22.2913 59.4967 20.2407 58.3124L19.2047 51.0609C18.5495 50.4411 17.912 49.8036 17.2922 49.1484L10.0407 48.1125C8.85913 46.0605 7.94842 43.8641 7.3313 41.5781L11.7407 35.7078C11.7407 35.7078 11.661 33.9015 11.7407 32.9984L7.3313 27.1281C7.94556 24.8411 8.85642 22.6443 10.0407 20.5937L17.2922 19.5578C17.912 18.9026 18.5495 18.2651 19.2047 17.6453L20.2407 10.3937C22.2926 9.21215 24.4891 8.30145 26.7751 7.68433L32.6454 12.0937C33.5467 12.014 34.4534 12.014 35.3547 12.0937L41.225 7.68433C43.512 8.29859 45.7088 9.20944 47.7594 10.3937L48.7954 17.6453Z" stroke="#272D40" stroke-width="2" stroke-linecap="round" stroke-linejoin="round"/>
</g>
<defs>
<clipPath id="clip0_1_2333">
<rect width="68" height="68" fill="white" transform="translate(0 0.353027)"/>
</clipPath>
</defs>
</svg>
