<svg width="70" height="71" viewBox="0 0 70 71" fill="none" xmlns="http://www.w3.org/2000/svg">
<g clip-path="url(#clip0_1_2405)">
<path d="M12.4141 48.8983C9.15712 43.4033 8.01788 36.9085 9.21022 30.6331C10.4026 24.3577 13.8445 18.7333 18.8898 14.8157C23.9352 10.8982 30.237 8.95702 36.6121 9.35655C42.9873 9.75608 48.9974 12.4689 53.5142 16.9856C58.031 21.5024 60.7438 27.5125 61.1433 33.8877C61.5428 40.2629 59.6016 46.5647 55.6841 51.61C51.7666 56.6554 46.1422 60.0973 39.8668 61.2896C33.5914 62.482 27.0965 61.3427 21.6016 58.0858V58.0858L12.5234 60.6561C12.1515 60.7649 11.7572 60.7716 11.3817 60.6756C11.0063 60.5795 10.6636 60.3843 10.3896 60.1103C10.1156 59.8362 9.92032 59.4936 9.82428 59.1181C9.72825 58.7427 9.73497 58.3483 9.84376 57.9764L12.4141 48.8983Z" stroke="black" stroke-width="6" stroke-linecap="round" stroke-linejoin="round"/>
<path d="M34.4531 37.6875C35.9633 37.6875 37.1875 36.4633 37.1875 34.9531C37.1875 33.443 35.9633 32.2188 34.4531 32.2188C32.943 32.2188 31.7188 33.443 31.7188 34.9531C31.7188 36.4633 32.943 37.6875 34.4531 37.6875Z" fill="black"/>
<path d="M21.3281 37.6875C22.8383 37.6875 24.0625 36.4633 24.0625 34.9531C24.0625 33.443 22.8383 32.2188 21.3281 32.2188C19.818 32.2188 18.5938 33.443 18.5938 34.9531C18.5938 36.4633 19.818 37.6875 21.3281 37.6875Z" fill="black"/>
<path d="M47.5781 37.6875C49.0883 37.6875 50.3125 36.4633 50.3125 34.9531C50.3125 33.443 49.0883 32.2188 47.5781 32.2188C46.068 32.2188 44.8438 33.443 44.8438 34.9531C44.8438 36.4633 46.068 37.6875 47.5781 37.6875Z" fill="black"/>
</g>
<defs>
<clipPath id="clip0_1_2405">
<rect width="70" height="70" fill="white" transform="translate(0 0.5)"/>
</clipPath>
</defs>
</svg>
