<svg width="38" height="38" viewBox="0 0 38 38" fill="none" xmlns="http://www.w3.org/2000/svg">
<path d="M8.01192 24.022C8.01192 26.2306 6.22836 28.0156 4.02158 28.0156C1.81481 28.0156 0.03125 26.2306 0.03125 24.022C0.03125 21.8134 1.81481 20.0283 4.02158 20.0283H8.01192V24.022ZM10.0071 24.022C10.0071 21.8134 11.7906 20.0283 13.9974 20.0283C16.2042 20.0283 17.9878 21.8134 17.9878 24.022V34.0061C17.9878 36.2147 16.2042 37.9997 13.9974 37.9997C11.7906 37.9997 10.0071 36.2147 10.0071 34.0061V24.022Z" fill="#E01E5A"/>
<path d="M13.9964 7.98728C11.7896 7.98728 10.0061 6.20225 10.0061 3.99364C10.0061 1.78504 11.7896 0 13.9964 0C16.2032 0 17.9867 1.78504 17.9867 3.99364V7.98728H13.9964ZM13.9964 10.0144C16.2032 10.0144 17.9867 11.7994 17.9867 14.008C17.9867 16.2166 16.2032 18.0016 13.9964 18.0016H3.99033C1.78356 18.0016 0 16.2166 0 14.008C0 11.7994 1.78356 10.0144 3.99033 10.0144H13.9964Z" fill="#36C5F0"/>
<path d="M29.9895 14.008C29.9895 11.7994 31.7731 10.0144 33.9798 10.0144C36.1866 10.0144 37.9702 11.7994 37.9702 14.008C37.9702 16.2166 36.1866 18.0016 33.9798 18.0016H29.9895V14.008ZM27.9943 14.008C27.9943 16.2166 26.2108 18.0016 24.004 18.0016C21.7972 18.0016 20.0137 16.2166 20.0137 14.008V3.99364C20.0137 1.78504 21.7972 0 24.004 0C26.2108 0 27.9943 1.78504 27.9943 3.99364V14.008Z" fill="#2EB67D"/>
<path d="M24.004 30.0124C26.2108 30.0124 27.9943 31.7975 27.9943 34.0061C27.9943 36.2147 26.2108 37.9997 24.004 37.9997C21.7972 37.9997 20.0137 36.2147 20.0137 34.0061V30.0124H24.004ZM24.004 28.0156C21.7972 28.0156 20.0137 26.2306 20.0137 24.022C20.0137 21.8134 21.7972 20.0283 24.004 20.0283H34.0101C36.2169 20.0283 38.0004 21.8134 38.0004 24.022C38.0004 26.2306 36.2169 28.0156 34.0101 28.0156H24.004Z" fill="#ECB12F"/>
</svg>
