<svg width="482" height="337" viewBox="0 0 482 337" fill="none" xmlns="http://www.w3.org/2000/svg">
<g clip-path="url(#clip0_1_4305)">
<path d="M221.58 5.46106C104.467 5.46106 9.5288 100.406 9.5288 217.518C9.47926 250.778 17.2873 283.58 32.3169 313.25H410.843C425.874 283.579 433.683 250.776 433.634 217.515C433.634 100.406 338.692 5.46106 221.58 5.46106Z" fill="#F4EDE4"/>
<path d="M90.2263 33.7638C96.4422 27.548 96.4422 17.47 90.2263 11.2542C84.0104 5.03829 73.9325 5.03829 67.7166 11.2542C61.5008 17.47 61.5008 27.548 67.7166 33.7638C73.9325 39.9797 84.0104 39.9797 90.2263 33.7638Z" fill="#DEAD85"/>
<path d="M379.869 46.9714C381.71 46.9714 383.203 45.4785 383.203 43.6369C383.203 41.7954 381.71 40.3025 379.869 40.3025C378.027 40.3025 376.534 41.7954 376.534 43.6369C376.534 45.4785 378.027 46.9714 379.869 46.9714Z" fill="url(#paint0_linear_1_4305)"/>
<path d="M330.178 61.3679C332.02 61.3679 333.513 59.875 333.513 58.0335C333.513 56.1919 332.02 54.699 330.178 54.699C328.337 54.699 326.844 56.1919 326.844 58.0335C326.844 59.875 328.337 61.3679 330.178 61.3679Z" fill="white"/>
<path d="M458.813 267.489C463.966 267.489 468.144 263.312 468.144 258.159C468.144 253.006 463.966 248.829 458.813 248.829C453.66 248.829 449.483 253.006 449.483 258.159C449.483 263.312 453.66 267.489 458.813 267.489Z" fill="#DED1B4"/>
<path d="M440.801 168.307C450.696 158.412 450.696 142.37 440.801 132.475C430.906 122.58 414.864 122.58 404.969 132.475C395.074 142.37 395.074 158.412 404.969 168.307C414.864 178.202 430.906 178.202 440.801 168.307Z" fill="white"/>
<path d="M37.0174 292.386C37.0174 294.845 36.2882 297.248 34.922 299.293C33.5558 301.338 31.614 302.931 29.3422 303.872C27.0703 304.813 24.5704 305.06 22.1586 304.58C19.7468 304.1 17.5314 302.916 15.7926 301.177C14.0538 299.438 12.8696 297.223 12.3899 294.811C11.9102 292.399 12.1564 289.899 13.0974 287.628C14.0385 285.356 15.6321 283.414 17.6767 282.048C19.7213 280.682 22.1251 279.952 24.5842 279.952C26.217 279.952 27.8338 280.274 29.3423 280.899C30.8508 281.523 32.2215 282.439 33.376 283.594C34.5306 284.748 35.4464 286.119 36.0712 287.627C36.696 289.136 37.0175 290.753 37.0174 292.386Z" fill="white"/>
<path d="M135.917 331.384C145.883 328.444 151.577 317.98 148.637 308.015C145.696 298.049 135.233 292.354 125.267 295.295C115.301 298.236 109.606 308.699 112.547 318.665C115.488 328.631 125.951 334.325 135.917 331.384Z" fill="white"/>
<path d="M0.916504 96.5942H81.7197" stroke="white" stroke-miterlimit="10" stroke-linecap="round"/>
<path d="M400.28 229.358H481.083" stroke="white" stroke-miterlimit="10" stroke-linecap="round"/>
<path d="M264.797 34.6057H345.6" stroke="white" stroke-miterlimit="10" stroke-linecap="round"/>
<path d="M43.8479 259.934H40.7658V256.846C40.7658 256.63 40.6798 256.422 40.5267 256.269C40.3737 256.116 40.166 256.03 39.9495 256.03C39.733 256.03 39.5254 256.116 39.3723 256.269C39.2192 256.422 39.1332 256.63 39.1332 256.846V259.934H36.0411C35.8247 259.934 35.6172 260.02 35.4642 260.173C35.3112 260.326 35.2252 260.534 35.2252 260.75C35.2252 260.966 35.3112 261.174 35.4642 261.327C35.6172 261.48 35.8247 261.566 36.0411 261.566H39.129V264.654C39.129 264.87 39.215 265.078 39.3681 265.231C39.5212 265.384 39.7288 265.47 39.9453 265.47C40.1618 265.47 40.3695 265.384 40.5226 265.231C40.6757 265.078 40.7617 264.87 40.7617 264.654V261.566H43.8479C44.0643 261.566 44.2718 261.48 44.4248 261.327C44.5779 261.174 44.6638 260.966 44.6638 260.75C44.6638 260.534 44.5779 260.326 44.4248 260.173C44.2718 260.02 44.0643 259.934 43.8479 259.934Z" fill="white"/>
<path d="M403.437 61.3704H398.736V56.6699C398.736 56.3404 398.605 56.0243 398.372 55.7913C398.139 55.5583 397.823 55.4275 397.494 55.4275C397.164 55.4275 396.848 55.5583 396.615 55.7913C396.382 56.0243 396.251 56.3404 396.251 56.6699V61.3704H391.551C391.385 61.3661 391.22 61.3951 391.065 61.4556C390.911 61.5161 390.77 61.6069 390.651 61.7227C390.532 61.8385 390.438 61.9769 390.373 62.1298C390.309 62.2827 390.276 62.4469 390.276 62.6128C390.276 62.7787 390.309 62.943 390.373 63.0958C390.438 63.2487 390.532 63.3871 390.651 63.5029C390.77 63.6187 390.911 63.7095 391.065 63.77C391.22 63.8305 391.385 63.8595 391.551 63.8552H396.251V68.5558C396.251 68.8853 396.382 69.2013 396.615 69.4343C396.848 69.6673 397.164 69.7982 397.494 69.7982C397.823 69.7982 398.139 69.6673 398.372 69.4343C398.605 69.2013 398.736 68.8853 398.736 68.5558V63.8535H403.437C403.602 63.8578 403.767 63.8289 403.922 63.7684C404.076 63.7079 404.217 63.617 404.336 63.5013C404.455 63.3855 404.549 63.2471 404.614 63.0942C404.678 62.9413 404.712 62.7771 404.712 62.6111C404.712 62.4452 404.678 62.281 404.614 62.1281C404.549 61.9752 404.455 61.8368 404.336 61.721C404.217 61.6052 404.076 61.5144 403.922 61.4539C403.767 61.3934 403.602 61.3644 403.437 61.3687V61.3704Z" fill="url(#paint1_linear_1_4305)"/>
<path d="M437.538 291.569H434.45V288.481C434.45 288.265 434.364 288.057 434.211 287.904C434.058 287.751 433.85 287.665 433.634 287.665C433.417 287.665 433.21 287.751 433.057 287.904C432.904 288.057 432.818 288.265 432.818 288.481V291.569H429.73C429.513 291.569 429.306 291.655 429.153 291.808C428.999 291.961 428.913 292.169 428.913 292.386C428.913 292.602 428.999 292.81 429.153 292.963C429.306 293.116 429.513 293.202 429.73 293.202H432.818V296.29C432.818 296.506 432.904 296.714 433.057 296.867C433.21 297.02 433.417 297.106 433.634 297.106C433.85 297.106 434.058 297.02 434.211 296.867C434.364 296.714 434.45 296.506 434.45 296.29V293.202H437.538C437.755 293.202 437.962 293.116 438.115 292.963C438.269 292.81 438.355 292.602 438.355 292.386C438.355 292.169 438.269 291.961 438.115 291.808C437.962 291.655 437.755 291.569 437.538 291.569Z" fill="url(#paint2_linear_1_4305)"/>
<path d="M242.343 31.6802H237.597C237.291 31.6802 237.044 31.9278 237.044 32.2333V36.9797C237.044 37.2851 237.291 37.5328 237.597 37.5328H242.343C242.649 37.5328 242.896 37.2851 242.896 36.9797V32.2333C242.896 31.9278 242.649 31.6802 242.343 31.6802Z" fill="white"/>
<path d="M250.172 31.6802H245.425C245.12 31.6802 244.872 31.9278 244.872 32.2333V36.9797C244.872 37.2851 245.12 37.5328 245.425 37.5328H250.172C250.477 37.5328 250.725 37.2851 250.725 36.9797V32.2333C250.725 31.9278 250.477 31.6802 250.172 31.6802Z" fill="white"/>
<path d="M257.999 31.6802H253.253C252.947 31.6802 252.7 31.9278 252.7 32.2333V36.9797C252.7 37.2851 252.947 37.5328 253.253 37.5328H257.999C258.305 37.5328 258.552 37.2851 258.552 36.9797V32.2333C258.552 31.9278 258.305 31.6802 257.999 31.6802Z" fill="white"/>
<path d="M111.134 247.718H106.388C106.082 247.718 105.835 247.966 105.835 248.271V253.018C105.835 253.323 106.082 253.571 106.388 253.571H111.134C111.44 253.571 111.687 253.323 111.687 253.018V248.271C111.687 247.966 111.44 247.718 111.134 247.718Z" fill="white"/>
<path d="M118.963 247.718H114.216C113.911 247.718 113.663 247.966 113.663 248.271V253.018C113.663 253.323 113.911 253.571 114.216 253.571H118.963C119.268 253.571 119.516 253.323 119.516 253.018V248.271C119.516 247.966 119.268 247.718 118.963 247.718Z" fill="white"/>
<path d="M126.791 247.718H122.045C121.739 247.718 121.492 247.966 121.492 248.271V253.018C121.492 253.323 121.739 253.571 122.045 253.571H126.791C127.097 253.571 127.344 253.323 127.344 253.018V248.271C127.344 247.966 127.097 247.718 126.791 247.718Z" fill="white"/>
<path d="M272.424 292.074H269.369C269.172 292.074 269.013 292.233 269.013 292.43V295.485C269.013 295.682 269.172 295.841 269.369 295.841H272.424C272.62 295.841 272.78 295.682 272.78 295.485V292.43C272.78 292.233 272.62 292.074 272.424 292.074Z" fill="white"/>
<path d="M277.462 292.074H274.407C274.21 292.074 274.051 292.233 274.051 292.43V295.485C274.051 295.682 274.21 295.841 274.407 295.841H277.462C277.658 295.841 277.818 295.682 277.818 295.485V292.43C277.818 292.233 277.658 292.074 277.462 292.074Z" fill="white"/>
<path d="M282.501 292.074H279.445C279.249 292.074 279.09 292.233 279.09 292.43V295.485C279.09 295.682 279.249 295.841 279.445 295.841H282.501C282.697 295.841 282.856 295.682 282.856 295.485V292.43C282.856 292.233 282.697 292.074 282.501 292.074Z" fill="white"/>
<path d="M100.1 185.342V178.316C100.1 177.986 99.9684 177.67 99.735 177.436C99.5016 177.203 99.1851 177.072 98.855 177.072H97.0466C96.7889 177.073 96.5383 176.987 96.3356 176.828C96.1329 176.669 95.9901 176.446 95.9304 176.195C95.3154 173.507 94.2578 170.94 92.8009 168.599C92.6592 168.378 92.5969 168.115 92.6243 167.854C92.6517 167.593 92.7672 167.349 92.9517 167.162L94.2236 165.89C94.4558 165.656 94.5862 165.339 94.5862 165.01C94.5862 164.68 94.4558 164.364 94.2236 164.13L89.2557 159.162C89.0217 158.929 88.7053 158.799 88.3756 158.799C88.0459 158.799 87.7296 158.929 87.4956 159.162L86.2253 160.432C86.0383 160.616 85.7941 160.732 85.5328 160.759C85.2716 160.787 85.0088 160.724 84.7875 160.583C82.4461 159.124 79.8782 158.065 77.189 157.449C76.9385 157.389 76.7156 157.246 76.5566 157.044C76.3976 156.841 76.312 156.59 76.3135 156.333V154.53C76.3135 154.2 76.1824 153.884 75.9491 153.65C75.7157 153.417 75.3991 153.286 75.0691 153.286H68.0428C67.7127 153.286 67.3962 153.417 67.1628 153.65C66.9294 153.884 66.7983 154.2 66.7983 154.53V156.333C66.8001 156.59 66.7145 156.841 66.5555 157.044C66.3965 157.246 66.1735 157.389 65.9229 157.449C63.2336 158.065 60.6654 159.123 58.3235 160.582C58.1022 160.723 57.8395 160.786 57.5782 160.758C57.317 160.731 57.0728 160.615 56.8858 160.431L55.6163 159.162C55.3829 158.928 55.0665 158.797 54.7367 158.797C54.4068 158.797 54.0904 158.928 53.857 159.162L48.8891 164.13C48.6569 164.364 48.5266 164.68 48.5266 165.01C48.5266 165.339 48.6569 165.656 48.8891 165.89L50.1594 167.16C50.3439 167.347 50.4593 167.591 50.4867 167.852C50.5141 168.114 50.4518 168.376 50.3102 168.598C48.853 170.939 47.7951 173.507 47.1798 176.195C47.1201 176.446 46.9773 176.669 46.7746 176.828C46.5719 176.987 46.3213 177.073 46.0636 177.072H44.2577C44.0938 177.071 43.9314 177.103 43.7799 177.165C43.6283 177.227 43.4905 177.319 43.3744 177.434C43.2584 177.55 43.1662 177.687 43.1034 177.839C43.0405 177.99 43.0082 178.152 43.0082 178.316V185.342C43.0082 185.505 43.0405 185.668 43.1034 185.819C43.1662 185.97 43.2584 186.108 43.3744 186.223C43.4905 186.339 43.6283 186.431 43.7799 186.493C43.9314 186.555 44.0938 186.587 44.2577 186.586H46.0644C46.3221 186.585 46.5726 186.671 46.7753 186.83C46.978 186.989 47.1208 187.212 47.1806 187.462C47.7962 190.15 48.8543 192.717 50.3118 195.058C50.4536 195.279 50.5159 195.542 50.4885 195.803C50.4611 196.065 50.3456 196.309 50.161 196.496L48.8891 197.768C48.6569 198.002 48.5266 198.318 48.5266 198.648C48.5266 198.978 48.6569 199.294 48.8891 199.528L53.857 204.496C53.9725 204.612 54.1097 204.704 54.2607 204.766C54.4117 204.829 54.5736 204.861 54.7371 204.861C54.9005 204.861 55.0624 204.829 55.2134 204.766C55.3644 204.704 55.5016 204.612 55.6171 204.496L56.8899 203.223C57.0771 203.038 57.3212 202.923 57.5824 202.896C57.8436 202.868 58.1064 202.93 58.3277 203.072C60.6688 204.528 63.2354 205.585 65.9229 206.2C66.1734 206.259 66.3963 206.402 66.5553 206.605C66.7142 206.808 66.7999 207.058 66.7983 207.316V209.127C66.7983 209.457 66.9294 209.773 67.1628 210.007C67.3962 210.24 67.7127 210.371 68.0428 210.371H75.0691C75.2325 210.371 75.3944 210.339 75.5454 210.277C75.6965 210.214 75.8337 210.123 75.9493 210.007C76.0649 209.891 76.1565 209.754 76.219 209.603C76.2815 209.452 76.3137 209.29 76.3135 209.127V207.314C76.312 207.056 76.3978 206.806 76.5569 206.603C76.7161 206.4 76.9392 206.258 77.1899 206.198C79.8772 205.584 82.4437 204.527 84.7842 203.07C85.0056 202.929 85.2684 202.867 85.5296 202.894C85.7909 202.922 86.035 203.037 86.2219 203.222L87.4956 204.495C87.6111 204.611 87.7483 204.703 87.8993 204.765C88.0503 204.828 88.2122 204.86 88.3756 204.86C88.5391 204.86 88.701 204.828 88.852 204.765C89.003 204.703 89.1402 204.611 89.2557 204.495L94.2228 199.527C94.3385 199.412 94.4303 199.275 94.4929 199.124C94.5555 198.973 94.5877 198.811 94.5877 198.647C94.5877 198.484 94.5555 198.322 94.4929 198.171C94.4303 198.02 94.3385 197.883 94.2228 197.767L92.95 196.494C92.7656 196.307 92.6503 196.063 92.6229 195.802C92.5955 195.541 92.6577 195.278 92.7992 195.057C94.2566 192.716 95.3145 190.149 95.9296 187.462C95.9893 187.211 96.1321 186.988 96.3348 186.829C96.5375 186.669 96.7881 186.584 97.0458 186.585H98.855C99.185 186.585 99.5014 186.454 99.7347 186.221C99.9681 185.988 100.099 185.672 100.1 185.342ZM71.5547 198.298C68.298 198.299 65.1141 197.335 62.4055 195.527C59.6969 193.719 57.5853 191.148 56.3377 188.14C55.0901 185.132 54.7626 181.821 55.3965 178.627C56.0304 175.433 57.5974 172.498 59.8992 170.194C62.201 167.89 65.1343 166.321 68.3281 165.684C71.5218 165.048 74.8327 165.372 77.842 166.617C80.8512 167.862 83.4237 169.972 85.2341 172.679C87.0446 175.386 88.0116 178.569 88.0129 181.826C88.0142 183.988 87.5895 186.129 86.763 188.128C85.9366 190.126 84.7245 191.941 83.1962 193.471C81.6678 195.001 79.8531 196.214 77.8556 197.043C75.8581 197.871 73.717 198.297 71.5547 198.298Z" fill="white"/>
<path d="M347.204 118.254V113.242C347.204 113.007 347.11 112.781 346.944 112.614C346.777 112.448 346.551 112.354 346.316 112.354H345.027C344.843 112.356 344.664 112.294 344.519 112.181C344.375 112.068 344.273 111.908 344.23 111.73C343.792 109.812 343.037 107.981 341.998 106.311C341.897 106.153 341.852 105.966 341.872 105.779C341.891 105.593 341.974 105.419 342.105 105.286L343.012 104.378C343.179 104.212 343.272 103.986 343.272 103.751C343.272 103.515 343.179 103.29 343.012 103.123L339.469 99.5796C339.302 99.4132 339.077 99.3198 338.841 99.3198C338.606 99.3198 338.38 99.4132 338.214 99.5796L337.307 100.485C337.174 100.617 337 100.699 336.814 100.719C336.627 100.739 336.44 100.694 336.282 100.593C334.612 99.5528 332.78 98.7975 330.862 98.3584C330.684 98.3156 330.525 98.2136 330.411 98.0691C330.298 97.9245 330.237 97.7458 330.238 97.5621V96.276C330.238 96.1594 330.215 96.044 330.17 95.9362C330.126 95.8285 330.061 95.7306 329.978 95.6481C329.896 95.5657 329.798 95.5003 329.69 95.4556C329.583 95.411 329.467 95.388 329.351 95.388H324.338C324.222 95.388 324.106 95.411 323.999 95.4556C323.891 95.5003 323.793 95.5657 323.711 95.6481C323.628 95.7306 323.563 95.8285 323.519 95.9362C323.474 96.044 323.451 96.1594 323.451 96.276V97.5613C323.452 97.7451 323.391 97.9238 323.278 98.0684C323.164 98.213 323.005 98.3149 322.827 98.3576C320.907 98.7951 319.073 99.549 317.401 100.588C317.244 100.689 317.056 100.734 316.87 100.714C316.683 100.695 316.509 100.612 316.376 100.481L315.47 99.5754C315.304 99.4091 315.078 99.3156 314.843 99.3156C314.607 99.3156 314.382 99.4091 314.215 99.5754L310.672 103.119C310.59 103.201 310.524 103.299 310.48 103.407C310.435 103.515 310.412 103.63 310.412 103.747C310.412 103.863 310.435 103.979 310.48 104.086C310.524 104.194 310.59 104.292 310.672 104.374L311.578 105.281C311.71 105.414 311.792 105.588 311.812 105.774C311.831 105.961 311.787 106.148 311.686 106.306C310.646 107.976 309.891 109.808 309.453 111.725C309.41 111.904 309.308 112.063 309.164 112.177C309.019 112.29 308.84 112.351 308.657 112.35H307.372C307.256 112.35 307.14 112.373 307.032 112.418C306.925 112.462 306.827 112.528 306.745 112.61C306.662 112.693 306.597 112.791 306.552 112.898C306.508 113.006 306.485 113.122 306.485 113.238V118.249C306.485 118.485 306.578 118.71 306.745 118.877C306.911 119.043 307.137 119.137 307.372 119.137H308.662C308.845 119.136 309.024 119.197 309.168 119.311C309.313 119.424 309.415 119.583 309.458 119.761C309.897 121.679 310.652 123.51 311.691 125.18C311.792 125.338 311.836 125.525 311.817 125.711C311.797 125.898 311.715 126.072 311.584 126.205L310.677 127.113C310.594 127.196 310.529 127.293 310.484 127.401C310.439 127.509 310.416 127.624 310.416 127.74C310.416 127.857 310.439 127.972 310.484 128.08C310.529 128.188 310.594 128.285 310.677 128.368L314.22 131.912C314.387 132.078 314.612 132.172 314.848 132.172C315.083 132.172 315.309 132.078 315.475 131.912L316.384 131.003C316.518 130.872 316.692 130.79 316.878 130.77C317.064 130.75 317.252 130.795 317.41 130.896C319.078 131.934 320.908 132.688 322.824 133.127C323.003 133.169 323.162 133.271 323.275 133.416C323.389 133.56 323.45 133.739 323.45 133.923V135.216C323.45 135.451 323.543 135.677 323.709 135.843C323.876 136.009 324.101 136.103 324.337 136.103H329.349C329.584 136.103 329.81 136.009 329.976 135.843C330.143 135.677 330.236 135.451 330.236 135.216V133.923C330.235 133.739 330.296 133.56 330.409 133.416C330.523 133.271 330.682 133.169 330.861 133.127C332.777 132.688 334.606 131.934 336.275 130.895C336.433 130.794 336.621 130.75 336.807 130.77C336.993 130.789 337.167 130.872 337.301 131.003L338.209 131.912C338.376 132.078 338.602 132.172 338.837 132.172C339.072 132.172 339.298 132.078 339.465 131.912L343.008 128.368C343.175 128.201 343.268 127.976 343.268 127.74C343.268 127.505 343.175 127.28 343.008 127.113L342.1 126.205C341.969 126.072 341.886 125.897 341.867 125.711C341.847 125.524 341.892 125.337 341.993 125.179C343.032 123.51 343.786 121.681 344.225 119.765C344.268 119.586 344.37 119.427 344.514 119.314C344.659 119.2 344.838 119.139 345.022 119.141H346.312C346.429 119.141 346.545 119.119 346.653 119.074C346.761 119.03 346.859 118.965 346.942 118.882C347.025 118.8 347.091 118.702 347.136 118.594C347.181 118.486 347.204 118.37 347.204 118.254ZM326.843 127.494C324.52 127.495 322.249 126.807 320.317 125.518C318.385 124.228 316.878 122.394 315.988 120.249C315.098 118.103 314.865 115.741 315.317 113.463C315.769 111.184 316.887 109.091 318.528 107.448C320.17 105.804 322.263 104.685 324.541 104.23C326.819 103.776 329.181 104.008 331.327 104.896C333.474 105.784 335.309 107.288 336.6 109.219C337.892 111.15 338.582 113.421 338.583 115.744C338.584 118.859 337.348 121.846 335.146 124.05C332.945 126.254 329.958 127.492 326.843 127.494Z" fill="white"/>
<path d="M50.7533 159.975V155.227C50.7533 155.003 50.6647 154.789 50.5069 154.632C50.3491 154.474 50.1351 154.385 49.912 154.385H48.69C48.5158 154.386 48.3464 154.328 48.2094 154.221C48.0724 154.113 47.9758 153.962 47.9353 153.793C47.5193 151.976 46.804 150.24 45.8187 148.658C45.723 148.508 45.681 148.33 45.6996 148.154C45.7182 147.977 45.7964 147.812 45.9212 147.686L46.7808 146.826C46.859 146.748 46.921 146.655 46.9634 146.553C47.0057 146.451 47.0275 146.341 47.0275 146.231C47.0275 146.12 47.0057 146.011 46.9634 145.909C46.921 145.806 46.859 145.714 46.7808 145.636L43.4222 142.277C43.2644 142.119 43.0505 142.031 42.8274 142.031C42.6044 142.031 42.3904 142.119 42.2327 142.277L41.3739 143.136C41.2475 143.261 41.0824 143.339 40.9058 143.357C40.7291 143.376 40.5514 143.334 40.4018 143.238C38.8199 142.252 37.085 141.535 35.2681 141.118C35.0989 141.077 34.9484 140.981 34.841 140.844C34.7337 140.707 34.6758 140.538 34.6766 140.364V139.144C34.6766 138.921 34.588 138.707 34.4302 138.549C34.2725 138.391 34.0585 138.303 33.8353 138.303H29.0873C28.8642 138.303 28.6502 138.391 28.4924 138.549C28.3346 138.707 28.246 138.921 28.246 139.144V140.363C28.247 140.537 28.189 140.706 28.0814 140.843C27.9739 140.98 27.8232 141.077 27.6537 141.117C25.8358 141.534 24.0998 142.25 22.5167 143.236C22.3671 143.331 22.1893 143.373 22.0127 143.355C21.836 143.336 21.671 143.258 21.5446 143.133L20.6866 142.275C20.5288 142.118 20.3149 142.029 20.0918 142.029C19.8688 142.029 19.6549 142.118 19.4971 142.275L16.1385 145.634C16.0603 145.712 15.9982 145.805 15.9559 145.907C15.9136 146.009 15.8918 146.118 15.8918 146.229C15.8918 146.34 15.9136 146.449 15.9559 146.551C15.9982 146.653 16.0603 146.746 16.1385 146.824L16.9973 147.683C17.1218 147.81 17.1997 147.975 17.2182 148.151C17.2366 148.328 17.1946 148.506 17.0989 148.655C16.1139 150.238 15.3988 151.974 14.9831 153.791C14.9426 153.961 14.8459 154.111 14.7089 154.219C14.5719 154.326 14.4026 154.384 14.2284 154.384H13.0015C12.7782 154.384 12.5642 154.472 12.4063 154.63C12.2483 154.788 12.1595 155.002 12.1593 155.225V159.973C12.1595 160.196 12.2483 160.41 12.4063 160.568C12.5642 160.726 12.7782 160.814 13.0015 160.814H14.2226C14.3968 160.813 14.5662 160.871 14.7032 160.979C14.8403 161.086 14.9369 161.237 14.9773 161.406C15.3937 163.224 16.1092 164.959 17.0948 166.542C17.1905 166.692 17.2325 166.869 17.2138 167.046C17.1952 167.223 17.1171 167.388 16.9923 167.514L16.1327 168.374C16.0545 168.452 15.9924 168.545 15.9501 168.647C15.9078 168.749 15.886 168.858 15.886 168.969C15.886 169.079 15.9078 169.189 15.9501 169.291C15.9924 169.393 16.0545 169.486 16.1327 169.564L19.4913 172.923C19.649 173.08 19.863 173.169 20.086 173.169C20.3091 173.169 20.523 173.08 20.6808 172.923L21.5413 172.061C21.6678 171.937 21.8329 171.859 22.0095 171.84C22.1861 171.822 22.3638 171.864 22.5134 171.96C24.0959 172.944 25.8311 173.658 27.6479 174.074C27.8173 174.114 27.9681 174.211 28.0756 174.348C28.1831 174.485 28.2411 174.654 28.2401 174.828V176.057C28.2401 176.28 28.3288 176.494 28.4866 176.652C28.6443 176.81 28.8583 176.898 29.0815 176.898H33.8295C34.0526 176.898 34.2666 176.81 34.4244 176.652C34.5822 176.494 34.6708 176.28 34.6708 176.057V174.832C34.6698 174.658 34.7278 174.488 34.8353 174.351C34.9429 174.214 35.0936 174.118 35.2631 174.077C37.0797 173.661 38.8145 172.947 40.3968 171.962C40.5465 171.867 40.7242 171.825 40.9007 171.844C41.0773 171.862 41.2423 171.94 41.3689 172.065L42.2302 172.926C42.388 173.084 42.6019 173.172 42.8249 173.172C43.048 173.172 43.2619 173.084 43.4197 172.926L46.7783 169.567C46.936 169.409 47.0246 169.195 47.0246 168.972C47.0246 168.749 46.936 168.535 46.7783 168.377L45.9178 167.516C45.793 167.39 45.7149 167.225 45.6963 167.048C45.6777 166.872 45.7197 166.694 45.8154 166.544C46.8006 164.962 47.5159 163.227 47.932 161.41C47.9724 161.24 48.069 161.09 48.2061 160.982C48.3431 160.875 48.5125 160.817 48.6867 160.818H49.9095C50.0203 160.818 50.1301 160.796 50.2326 160.754C50.3351 160.712 50.4282 160.65 50.5066 160.571C50.585 160.493 50.6472 160.4 50.6895 160.298C50.7319 160.195 50.7535 160.085 50.7533 159.975ZM31.4555 167.471C29.504 167.472 27.5961 166.894 25.9731 165.811C24.3501 164.727 23.0848 163.187 22.3372 161.384C21.5897 159.582 21.3934 157.598 21.7733 155.684C22.1532 153.77 23.0922 152.011 24.4715 150.631C25.8508 149.25 27.6085 148.31 29.5223 147.928C31.4361 147.547 33.4201 147.741 35.2233 148.487C37.0265 149.233 38.568 150.497 39.6529 152.12C40.7378 153.742 41.3172 155.649 41.3181 157.601C41.3184 158.896 41.0635 160.179 40.5681 161.376C40.0726 162.573 39.3462 163.661 38.4304 164.577C37.5146 165.493 36.4273 166.22 35.2305 166.716C34.0337 167.212 32.751 167.468 31.4555 167.468V167.471Z" fill="url(#paint3_linear_1_4305)"/>
<path d="M168.046 243.023C159.216 243.054 150.467 241.341 142.299 237.984C134.132 234.626 126.708 229.689 120.454 223.456C114.199 217.223 109.235 209.817 105.849 201.662C102.463 193.506 100.719 184.763 100.719 175.933C100.719 167.102 102.463 158.359 105.849 150.204C109.235 142.048 114.199 134.642 120.454 128.409C126.708 122.176 134.132 117.239 142.299 113.881C150.467 110.524 159.216 108.811 168.046 108.842C213.292 108.842 241.945 168.05 243.142 170.571L245.69 175.933L243.142 181.296C241.942 183.816 213.289 243.023 168.046 243.023ZM168.046 133.832C162.502 133.807 157.007 134.878 151.878 136.983C146.748 139.088 142.085 142.185 138.156 146.097C134.226 150.008 131.108 154.658 128.981 159.778C126.853 164.898 125.758 170.388 125.758 175.933C125.758 181.477 126.853 186.967 128.981 192.087C131.108 197.207 134.226 201.857 138.156 205.769C142.085 209.68 146.748 212.778 151.878 214.882C157.007 216.987 162.502 218.058 168.046 218.033C189.653 218.033 209.158 191.272 217.765 175.933C209.154 160.593 189.65 133.832 168.046 133.832Z" fill="url(#paint4_linear_1_4305)"/>
<path d="M295.66 243.023C250.414 243.023 221.762 183.816 220.564 181.298L218.017 175.935L220.564 170.574C221.762 168.053 250.414 108.845 295.66 108.845C304.491 108.814 313.24 110.526 321.407 113.884C329.574 117.242 336.998 122.178 343.253 128.411C349.508 134.644 354.471 142.051 357.858 150.206C361.244 158.361 362.987 167.105 362.987 175.935C362.987 184.765 361.244 193.509 357.858 201.664C354.471 209.819 349.508 217.226 343.253 223.459C336.998 229.692 329.574 234.629 321.407 237.986C313.24 241.344 304.491 243.056 295.66 243.025V243.023ZM245.942 175.933C254.549 191.272 274.053 218.033 295.66 218.033C301.205 218.058 306.7 216.987 311.829 214.882C316.959 212.778 321.622 209.68 325.551 205.769C329.48 201.857 332.598 197.207 334.726 192.087C336.853 186.967 337.948 181.477 337.948 175.933C337.948 170.388 336.853 164.898 334.726 159.778C332.598 154.658 329.48 150.008 325.551 146.097C321.622 142.185 316.959 139.088 311.829 136.983C306.7 134.878 301.205 133.807 295.66 133.832C274.057 133.832 254.552 160.593 245.945 175.933H245.942Z" fill="url(#paint5_linear_1_4305)"/>
<path style="mix-blend-mode:multiply" d="M268.971 205.616L253.194 224.916C245.111 217.639 237.945 209.404 231.853 200.393L231.862 200.376C238.792 190.305 245.948 175.936 245.948 175.936C250.745 184.483 258.926 196.586 268.971 205.616Z" fill="url(#paint6_linear_1_4305)"/>
<path style="mix-blend-mode:multiply" d="M231.853 151.484C224.923 161.555 217.759 175.94 217.759 175.94C212.961 167.394 204.781 155.291 194.735 146.261L210.512 126.961C218.595 134.238 225.762 142.473 231.853 151.484Z" fill="url(#paint7_linear_1_4305)"/>
<path style="mix-blend-mode:multiply" d="M304.407 121.792L295.66 133.829C283.532 133.829 272.062 142.267 262.816 152.388L249.979 129.889C262.083 118.335 277.543 108.839 295.66 108.839L304.407 121.792Z" fill="url(#paint8_linear_1_4305)"/>
<path style="mix-blend-mode:multiply" d="M212.152 128.423L193.952 145.549C186.163 138.735 177.3 133.829 168.046 133.829L159.299 120.884L168.046 108.839C185.388 108.839 200.299 117.544 212.152 128.423Z" fill="url(#paint9_linear_1_4305)"/>
<path style="mix-blend-mode:multiply" d="M176.793 230.072L168.046 243.029C150.951 243.044 134.5 236.503 122.082 224.754L134.685 201.588C138.612 206.705 143.663 210.85 149.448 213.703C155.233 216.555 161.596 218.039 168.046 218.04L176.793 230.072Z" fill="url(#paint10_linear_1_4305)"/>
<path style="mix-blend-mode:multiply" d="M335.144 230.147C323.688 238.531 309.856 243.042 295.66 243.025L286.922 230.072L295.66 218.04C301.379 218.042 307.038 216.877 312.291 214.616C317.543 212.354 322.278 209.043 326.206 204.887L335.144 230.147Z" fill="url(#paint11_linear_1_4305)"/>
<path d="M348.516 189.246C348.516 189.246 349.729 196.73 348.957 200.016C351.011 200.188 353.077 199.863 354.981 199.07C358.646 197.722 353.981 189.246 353.981 189.246" fill="#09085F"/>
<path d="M345.098 177.589C345.098 177.589 344.377 181.754 346.79 183.337L347.629 179.737" fill="#09085F"/>
<path d="M353.329 217.253L348.016 212.647L347.286 213.326L339.531 220.543L316.798 223.496C315.67 223.689 314.611 224.168 313.721 224.888C313.404 225.302 313.123 225.743 312.881 226.206C313.391 226.329 313.922 226.342 314.437 226.242C314.967 226.126 316.019 225.909 316.657 225.776L316.932 226.714C316.932 226.714 336.585 229.179 341.125 228.763C341.242 228.753 341.357 228.741 341.458 228.726C345.29 228.143 356.858 220.307 356.858 220.307L353.329 217.253Z" fill="#FF928A"/>
<path d="M362.299 196.375L354.164 198.624L353.806 197.616V197.608C353.869 196.958 353.891 196.306 353.874 195.653C353.844 194.118 353.575 192.597 353.075 191.145L355.836 189.479L359.257 185.828L362.299 196.375Z" fill="#FFA49A"/>
<path d="M353.875 195.651C353.846 194.115 353.577 192.594 353.077 191.143L355.838 189.477L356.741 189.246C356.741 189.246 356.838 193.628 353.875 195.651Z" fill="#FF8189"/>
<path d="M313.653 292.925L310.056 303.921L306.557 307.048L303.207 301.588L305.473 291.093L313.653 292.925Z" fill="#FFA49A"/>
<path d="M361.293 182.847C359.867 184.628 358.718 186.614 357.884 188.738C357.491 190.031 356.798 191.213 355.863 192.188C354.927 193.163 353.775 193.904 352.499 194.35C344.779 196.898 346.378 182.679 346.404 180.823C346.423 179.511 346.03 174.771 351.204 174.1C356.226 173.448 361.55 175.581 361.293 182.847Z" fill="#FFA49A"/>
<path d="M333.271 312.924H335.115L338.456 294.465H376.74L380.081 312.924H381.925L371.324 254.318C371.303 254.201 371.259 254.089 371.194 253.989C371.13 253.888 371.046 253.802 370.948 253.734C370.85 253.666 370.74 253.618 370.624 253.593C370.507 253.567 370.387 253.565 370.27 253.586C370.152 253.607 370.041 253.651 369.94 253.716C369.84 253.78 369.754 253.864 369.686 253.962C369.618 254.06 369.57 254.17 369.544 254.286C369.519 254.403 369.517 254.523 369.538 254.64L376.413 292.65H338.783L345.659 254.64C345.682 254.523 345.682 254.401 345.657 254.284C345.633 254.166 345.586 254.054 345.518 253.955C345.451 253.856 345.364 253.771 345.263 253.706C345.163 253.64 345.05 253.595 344.932 253.574C344.813 253.553 344.692 253.555 344.575 253.581C344.458 253.607 344.347 253.656 344.248 253.725C344.15 253.794 344.067 253.883 344.003 253.984C343.939 254.086 343.896 254.2 343.877 254.318L337.233 291.023L336.906 292.848L336.689 294.032L336.356 295.881L333.271 312.924Z" fill="white"/>
<path d="M343.046 256.327L324.831 259.779L312.925 296.083L303.809 293.592L312.996 252.91C313.46 251.262 314.32 249.752 315.503 248.513C316.685 247.275 318.153 246.344 319.778 245.804L338.942 239.433" fill="url(#paint12_linear_1_4305)"/>
<path d="M323.538 288.875L324.565 292.723L326.766 300.751L327.093 302.723L330.744 303.151L333.582 299.414L332.732 289.613L332.653 288.618L323.538 288.875Z" fill="#FFA49A"/>
<path d="M366.928 235.99L358.725 233.902L346.574 237.433C342.931 238.276 336.694 238.883 327.449 240.901C327.449 240.901 313.871 242.49 314.121 253.979C314.152 255.423 321.829 291.099 321.829 291.099L332.846 289.419L331.042 255.845C337.964 256.382 354.959 257.344 361.946 254.526C373.186 249.988 366.928 235.99 366.928 235.99Z" fill="url(#paint13_linear_1_4305)"/>
<path d="M361.737 194.515C361.737 194.515 366.908 200.474 368.303 207.863C369.394 213.65 367.736 221.682 367.511 226.874C367.312 231.469 367.379 232.126 367.974 234.934C368.264 236.303 368.821 238.266 367.99 239.193C367.457 238.477 355.183 237.828 346.574 237.433C346.574 237.433 348.466 233.066 348.516 230.838C348.62 226.233 347.1 216.854 347.215 212.405C347.337 207.823 348.702 206.512 350.297 204.17C351.612 202.064 352.786 199.873 353.81 197.611C356.687 197.328 359.43 196.257 361.737 194.515Z" fill="url(#paint14_linear_1_4305)"/>
<path style="mix-blend-mode:multiply" opacity="0.5" d="M362.513 211.8C362.513 211.8 361.301 218.945 360.772 221.324L354.909 222.116L362.513 211.8Z" fill="url(#paint15_linear_1_4305)"/>
<path d="M352.615 214.493L349.085 212.594C348.906 213.037 344.42 223.378 344.42 223.378C335.424 221.055 322.966 220.192 322.966 220.192C322.966 220.192 318.275 220.224 316.502 220.41C314.73 220.595 312.398 222.242 311.371 223.302C310.754 223.936 309.226 226.121 309.226 226.121C310.105 226.313 311.025 226.182 311.814 225.751C312.981 225.028 314.053 224.281 314.053 224.281L316.976 223.484C317.561 223.329 318.183 223.399 318.719 223.68C319.289 223.956 319.892 224.158 320.513 224.281C321.677 224.534 322.862 224.67 324.053 224.687C329.625 226.879 344.59 234.648 348.7 232.85C351.797 231.492 355.578 224.672 357.562 220.726C358.402 219.048 358.92 217.888 358.92 217.888L352.615 214.493Z" fill="#FFA49A"/>
<path d="M363.741 204.644C363.741 204.644 362.779 213.768 360.009 219.394C360.009 219.394 351.401 217.716 347.215 214.48C348.864 210.204 350.886 206.081 353.258 202.16" fill="url(#paint16_linear_1_4305)"/>
<path d="M345.098 177.589C345.149 178.625 345.496 179.625 346.1 180.469C346.704 181.313 347.539 181.965 348.503 182.347C350.578 183.139 352.747 183.658 354.956 183.89C355.42 183.846 355.889 183.904 356.329 184.059C356.77 184.214 357.171 184.462 357.506 184.787C358.626 185.892 360.243 189.811 360.338 193.356C360.447 195.255 360.183 197.156 359.561 198.953C359.561 198.953 366.676 199.015 370.383 195.408C368.165 191.882 366.616 187.977 365.811 183.89C364.63 177.415 363.075 170.374 355.894 172.427C345.092 169.877 345.098 177.589 345.098 177.589Z" fill="#09085F"/>
<path d="M354.528 185.19C354.528 185.19 353.841 182.962 355.502 182.537C358.796 181.693 358.149 188.1 356.689 188.07C355.23 188.04 354.528 185.19 354.528 185.19Z" fill="#FFA49A"/>
<path d="M311.001 301.047C311.001 301.047 309.617 302.864 303.207 301.59C303.207 301.59 292.869 305.371 291.524 305.881C289.598 306.611 288.921 308.49 292.389 308.49H310.767C310.974 308.51 311.182 308.489 311.38 308.427C311.578 308.365 311.761 308.263 311.918 308.129C312.076 307.994 312.205 307.829 312.297 307.643C312.389 307.457 312.442 307.255 312.454 307.048C312.69 305.831 312.042 302.381 311.001 301.047Z" fill="#0E085D"/>
<path d="M332.096 228.383H271.73V232.49H332.096V228.383Z" fill="white"/>
<path d="M300.965 312.924H302.862V232.488H300.965V312.924Z" fill="#32338F"/>
<path d="M322.666 312.924H281.162V311.494C281.162 310.697 281.479 309.933 282.042 309.37C282.606 308.806 283.37 308.49 284.167 308.49H319.662C320.057 308.49 320.447 308.567 320.812 308.718C321.176 308.869 321.507 309.091 321.786 309.37C322.065 309.649 322.286 309.98 322.437 310.345C322.588 310.709 322.666 311.1 322.666 311.494V312.924Z" fill="#32338F"/>
<path d="M295.864 308.49H307.727C307.727 308.283 307.686 308.079 307.607 307.889C307.528 307.698 307.413 307.525 307.267 307.379C307.121 307.233 306.948 307.118 306.757 307.039C306.566 306.96 306.362 306.919 306.156 306.92H297.435C297.229 306.919 297.025 306.96 296.834 307.039C296.643 307.118 296.47 307.234 296.324 307.379C296.178 307.525 296.062 307.699 295.983 307.889C295.904 308.08 295.864 308.284 295.864 308.491V308.49Z" fill="#32338F"/>
<path d="M346.343 185.827C346.343 185.827 345.495 189.792 345.814 190.234C346.132 190.675 347.629 190.185 347.629 190.185" fill="#FFA49A"/>
<path d="M333.427 297.619C334.097 298.621 334.678 299.678 335.164 300.78C335.868 302.436 335.379 305.784 332.45 307.594C330.368 308.88 329.134 312.441 327.81 312.925H317.129C317.129 312.925 314.313 310.958 320.606 308.73C323.752 306.536 326.766 300.754 326.766 300.754C327.139 301.109 327.607 301.35 328.113 301.447C328.619 301.545 329.142 301.495 329.621 301.304C333.582 299.769 333.427 297.619 333.427 297.619Z" fill="#0E085D"/>
<path d="M380.984 218.638C378.402 218.965 378.069 226.674 374.37 234.602C372.959 237.071 370.812 239.038 368.229 240.227C363.766 242.344 361.196 240.747 356.738 242.24C353.715 243.253 350.219 248.411 348.285 251.622C347.81 252.415 347.138 253.072 346.335 253.528C345.531 253.985 344.623 254.225 343.699 254.227H343.655C343.291 254.227 342.93 254.299 342.593 254.438C342.256 254.578 341.95 254.782 341.692 255.04C341.434 255.298 341.23 255.604 341.09 255.94C340.951 256.277 340.879 256.638 340.879 257.003C340.879 257.367 340.951 257.728 341.09 258.065C341.23 258.402 341.434 258.708 341.692 258.966C341.95 259.224 342.256 259.428 342.593 259.568C342.93 259.707 343.291 259.779 343.655 259.779H372.295C372.853 259.761 373.403 259.65 373.925 259.453C381.979 255.704 383.428 237.431 383.782 230.056C384.156 222.288 384.343 218.211 380.984 218.638Z" fill="white"/>
<path d="M328.591 226.573L301.369 225.937L292.123 200.198C292.032 199.943 291.845 199.733 291.602 199.615C291.358 199.496 291.078 199.478 290.822 199.564C290.565 199.65 290.352 199.834 290.23 200.075C290.107 200.316 290.084 200.596 290.166 200.854L298.76 228.384H330.36C330.361 227.91 330.176 227.456 329.845 227.117C329.514 226.779 329.064 226.583 328.591 226.573Z" fill="#32338F"/>
<path d="M281.937 212.698C278.067 217.377 281.937 221.124 281.937 221.124C281.937 221.124 285.807 217.373 281.937 212.698Z" fill="white"/>
<path d="M278.708 213.351C276.943 219.162 281.957 221.124 281.957 221.124C281.957 221.124 284.082 216.175 278.708 213.351Z" fill="white"/>
<path d="M285.189 213.351C286.954 219.162 281.94 221.124 281.94 221.124C281.94 221.124 279.813 216.175 285.189 213.351Z" fill="white"/>
<path d="M287.939 215.208C287.322 221.249 281.937 221.122 281.937 221.122C281.937 221.122 281.889 215.737 287.939 215.208Z" fill="white"/>
<path d="M275.934 215.208C276.552 221.249 281.937 221.122 281.937 221.122C281.937 221.122 281.984 215.737 275.934 215.208Z" fill="white"/>
<path d="M285.542 228.382H278.334L277.13 219.802H286.747L285.542 228.382Z" fill="#8FABD8"/>
<path d="M181.838 280.449C182.99 280.914 184.204 281.209 185.441 281.324L186.846 277.444L180.987 273.489C180.987 273.489 180.196 277.189 179.881 278.625C179.881 278.625 180.042 279.698 181.838 280.449Z" fill="#EF9795"/>
<path d="M191.074 288.461C189.967 287.65 188.797 286.928 187.576 286.301C185.765 284.077 185.88 281.874 185.438 281.324C184.22 281.082 183.027 280.723 181.877 280.253C180.08 279.503 179.877 278.625 179.877 278.625C177.88 279.849 176.341 281.696 175.498 283.881C175.498 283.881 182.434 289.712 184.398 291.273C184.398 291.273 190.269 291.267 191.766 291.273C191.944 290.788 191.973 290.262 191.85 289.761C191.727 289.26 191.457 288.807 191.074 288.461Z" fill="#222842"/>
<path d="M220.978 285.157C220.978 285.157 222.11 285.877 224.928 285.657C225.842 285.549 226.747 285.382 227.639 285.157C228.679 285.647 229.744 286.081 230.83 286.456C232.663 287.097 235.088 287.752 236.855 288.976C237.221 289.227 237.514 289.572 237.7 289.975C237.886 290.378 237.959 290.824 237.912 291.266H220.097C220.097 291.266 218.408 288.398 220.978 285.157Z" fill="#222842"/>
<path d="M220.674 280.376C220.855 282.323 220.978 285.157 220.978 285.157C223.144 286.698 227.642 285.157 227.642 285.157C227.642 285.157 227.791 282.075 227.917 280.233L220.674 280.376Z" fill="#EF9795"/>
<path d="M267.074 99.7947L188.998 106.83C185.798 107.118 183.437 109.947 183.726 113.147L185.333 130.982C185.621 134.182 188.449 136.543 191.65 136.254L269.725 129.219C272.926 128.931 275.286 126.102 274.998 122.902L273.391 105.067C273.103 101.867 270.274 99.5063 267.074 99.7947Z" fill="url(#paint17_linear_1_4305)"/>
<path d="M211.743 124.598C211.895 126.3 211.366 127.994 210.27 129.306C209.174 130.618 207.602 131.442 205.899 131.595L197.536 132.344C196.752 132.415 195.962 132.331 195.211 132.096C194.459 131.862 193.762 131.481 193.157 130.977C192.553 130.472 192.055 129.854 191.69 129.156C191.325 128.459 191.101 127.696 191.031 126.912L190.045 115.972C189.903 114.389 190.395 112.815 191.413 111.595C192.432 110.375 193.893 109.61 195.476 109.468L204.175 108.685C204.974 108.613 205.78 108.699 206.546 108.939C207.312 109.178 208.023 109.566 208.639 110.08C209.255 110.595 209.764 111.225 210.136 111.936C210.508 112.647 210.737 113.424 210.809 114.224L211.743 124.598Z" fill="url(#paint18_linear_1_4305)"/>
<path d="M218.425 110.113C218.229 110.112 218.04 110.035 217.899 109.9C217.758 109.764 217.674 109.579 217.665 109.383C217.657 109.187 217.724 108.995 217.852 108.847C217.981 108.699 218.162 108.607 218.357 108.588L266.925 104.213C267.124 104.2 267.32 104.266 267.472 104.395C267.623 104.525 267.718 104.708 267.736 104.907C267.754 105.105 267.694 105.303 267.568 105.458C267.442 105.612 267.261 105.712 267.063 105.735L218.494 110.109C218.471 110.111 218.448 110.113 218.425 110.113Z" fill="url(#paint19_linear_1_4305)"/>
<path d="M218.769 113.96C218.571 113.962 218.38 113.887 218.237 113.751C218.094 113.615 218.008 113.429 218 113.231C217.991 113.034 218.059 112.841 218.19 112.693C218.32 112.544 218.503 112.453 218.7 112.437L267.269 108.062C267.37 108.05 267.472 108.059 267.57 108.087C267.668 108.116 267.759 108.164 267.838 108.228C267.917 108.292 267.983 108.372 268.031 108.462C268.078 108.552 268.108 108.651 268.117 108.752C268.126 108.853 268.115 108.956 268.084 109.053C268.053 109.15 268.003 109.24 267.937 109.317C267.87 109.395 267.789 109.458 267.698 109.504C267.607 109.549 267.508 109.576 267.406 109.583L218.838 113.958L218.769 113.96Z" fill="url(#paint20_linear_1_4305)"/>
<path d="M219.119 117.801C218.922 117.803 218.731 117.728 218.588 117.592C218.445 117.456 218.36 117.269 218.351 117.072C218.342 116.875 218.41 116.682 218.541 116.533C218.672 116.385 218.855 116.294 219.052 116.278L267.62 111.902C267.819 111.889 268.015 111.954 268.167 112.084C268.318 112.213 268.413 112.397 268.431 112.595C268.449 112.794 268.388 112.992 268.263 113.146C268.137 113.301 267.956 113.4 267.758 113.423L219.192 117.799C219.167 117.8 219.143 117.801 219.119 117.801Z" fill="url(#paint21_linear_1_4305)"/>
<path d="M219.463 121.65C219.267 121.649 219.079 121.573 218.937 121.437C218.796 121.301 218.712 121.116 218.703 120.92C218.694 120.724 218.761 120.532 218.89 120.384C219.019 120.236 219.2 120.144 219.395 120.125L267.964 115.75C268.163 115.738 268.359 115.803 268.51 115.933C268.661 116.063 268.755 116.246 268.773 116.444C268.791 116.643 268.731 116.84 268.605 116.995C268.479 117.149 268.299 117.248 268.101 117.271L219.533 121.647L219.463 121.65Z" fill="url(#paint22_linear_1_4305)"/>
<path d="M219.807 125.49C219.609 125.491 219.419 125.416 219.275 125.28C219.132 125.144 219.047 124.958 219.038 124.76C219.03 124.563 219.098 124.37 219.228 124.222C219.359 124.074 219.542 123.982 219.739 123.966L268.307 119.591C268.506 119.578 268.702 119.644 268.854 119.773C269.005 119.903 269.1 120.086 269.118 120.285C269.136 120.483 269.076 120.681 268.95 120.836C268.824 120.99 268.643 121.089 268.445 121.112L219.877 125.487C219.853 125.489 219.83 125.49 219.807 125.49Z" fill="url(#paint23_linear_1_4305)"/>
<path d="M220.158 129.326C219.961 129.328 219.77 129.253 219.627 129.117C219.484 128.981 219.399 128.795 219.39 128.597C219.381 128.4 219.449 128.207 219.58 128.059C219.711 127.91 219.894 127.819 220.091 127.803L268.659 123.427C268.858 123.415 269.053 123.48 269.204 123.61C269.356 123.739 269.45 123.923 269.468 124.121C269.486 124.32 269.425 124.517 269.3 124.671C269.174 124.826 268.993 124.925 268.796 124.948L220.227 129.326H220.158Z" fill="url(#paint24_linear_1_4305)"/>
<path d="M227.747 136.723C227.747 136.33 228.401 135.307 228.469 134.588C228.537 133.87 228.636 132.922 228.636 132.922L227.886 132.99L227.599 133.016L226.785 130.884C226.785 130.884 226.553 129.628 226.464 128.698C226.375 127.769 225.408 127.456 225.351 127.881C225.329 128.041 225.334 128.589 225.329 128.846C225.284 128.549 225.245 128.27 225.224 128.052C225.134 127.122 223.974 126.741 223.916 127.167C223.876 127.595 223.863 128.025 223.878 128.455C223.583 127.789 222.711 127.551 222.664 127.917C222.611 128.487 222.598 129.06 222.625 129.632C222.397 129.021 221.853 128.847 221.783 129.314C221.699 129.85 221.309 131.063 221.523 131.655C221.71 132.293 221.963 132.91 222.277 133.496C222.839 134.318 223.324 135.189 223.728 136.099C223.889 136.636 219.903 146.692 219.903 146.692C221.9 147.019 223.916 147.216 225.938 147.282C225.938 147.282 227.747 137.117 227.747 136.723Z" fill="#FF928A"/>
<path d="M227.136 188.013L216.635 188.231L202.61 185.361L196.761 183.423C198.032 181.727 199.474 176.968 200.443 173.286C201.145 170.634 201.609 168.55 201.609 168.55L212.146 167.424L217.209 166.879C217.209 166.879 223.882 165.946 225.384 169.58C225.62 170.167 225.719 170.801 225.674 171.433C225.621 173.373 225.681 175.314 225.856 177.247C226.264 182.49 227.136 188.013 227.136 188.013Z" fill="#FFA49A"/>
<path d="M227.136 188.013L226.148 180.415C226.148 180.415 222.861 181.925 215.776 181.696C208.979 181.476 201.324 179.905 199.024 178.172C196.058 180.548 192.77 185.96 193.371 193.896C193.737 198.733 194.159 203.572 193.578 208.386C192.426 217.831 191.874 229.011 191.559 231.303C187.219 240.457 179.814 277.094 179.814 277.094C179.814 277.094 183.389 279.315 186.96 279.297C186.96 279.297 200.087 248.362 204.38 234.928C205.702 230.781 207.204 225.737 208.635 220.341C210.091 214.97 211.473 209.263 212.564 203.765C213.75 198.174 214.494 192.498 214.79 186.79C217.988 187.646 220.336 188.253 220.474 188.23C220.93 188.155 227.136 188.013 227.136 188.013Z" fill="url(#paint25_linear_1_4305)"/>
<path style="mix-blend-mode:multiply" opacity="0.5" d="M212.565 203.766C211.473 209.259 210.092 214.97 208.636 220.343C205.877 211.8 204.143 202.959 203.472 194.007C203.472 194.007 209.922 201.196 212.565 203.766Z" fill="url(#paint26_linear_1_4305)"/>
<path d="M228.055 282.271C225.566 282.787 222.991 282.717 220.534 282.065C220.534 282.065 215.631 244.171 216.638 232.892C216.638 232.892 210.75 217.153 206.801 204.921C206.052 202.584 204.742 198.09 204.21 196.128C203.005 191.938 203.24 187.464 204.876 183.423L227.137 188.013C228.053 196.552 230.795 222.832 230.952 234.933C231.158 249.479 228.055 282.271 228.055 282.271Z" fill="url(#paint27_linear_1_4305)"/>
<path d="M222.159 136.007C221.235 136.294 220.259 136.372 219.301 136.233C218.343 136.095 217.429 135.744 216.624 135.207C213.875 133.318 216.672 129.757 216.672 129.757H221.774L221.653 130.702C221.653 130.702 221.605 131.416 221.641 132.374C221.638 133.603 221.813 134.827 222.159 136.007Z" fill="#FFA49A"/>
<path d="M221.65 130.702C221.65 130.702 221.602 131.416 221.638 132.374C220.338 132.231 219.09 131.783 217.996 131.066C217.996 131.066 219.882 130.618 220.487 129.757H221.774L221.65 130.702Z" fill="#FF8189"/>
<path d="M222.159 136.007C222.159 136.007 225.537 140.755 226.824 145.048C228.186 149.588 225.466 167.944 225.647 172.436C217.447 173.897 209.013 173.302 201.099 170.706C201.659 165.921 201.351 161.074 200.187 156.399C198.752 150.42 200.295 140.829 201.653 138.04C203.012 135.251 215.414 134.894 215.414 134.894C217.513 135.892 219.851 136.278 222.159 136.007Z" fill="url(#paint28_linear_1_4305)"/>
<path d="M247.629 131.825L247.317 130.534C247.317 130.534 247.257 129.801 247.234 128.648C247.207 127.335 246.546 127.053 246.272 127.167C246.28 127.116 246.287 127.06 246.295 127.012C246.477 125.873 245.712 125.376 245.436 125.491C245.404 125.504 245.353 125.581 245.3 125.7C245.363 124.339 244.596 124.087 244.329 124.2C243.945 124.988 243.658 125.819 243.472 126.675C243.476 126.506 243.463 126.336 243.431 126.169C243.282 125.573 242.791 125.466 242.472 126.169C242.054 127.141 241.766 128.163 241.615 129.21C241.636 129.721 241.84 131.735 241.84 131.735L240.441 131.861C240.799 132.656 241.113 133.471 241.38 134.302C241.509 134.899 241.853 136.601 241.853 136.602C240.964 138.956 238.901 143.748 237.188 147.483C234.994 152.278 233.148 156.494 233.148 156.494L238.946 162.594C241.389 159.192 242.051 155.993 243.409 150.13C244.542 145.238 245.949 139.029 246.311 137.227C246.932 136.212 247.402 135.112 247.706 133.961C247.847 133.253 247.821 132.522 247.629 131.825Z" fill="#FFA49A"/>
<path d="M234.049 150.603C234.049 150.603 239.195 159.066 239.653 160.095C240.11 161.125 238.837 164.864 234.117 163.819C230.097 162.928 225.643 155.685 225.643 155.685L234.049 150.603Z" fill="#FFA49A"/>
<path d="M224.071 138.184C225.996 139.299 227.693 140.766 229.076 142.509C231.241 145.407 233.17 148.475 234.842 151.682C231.876 154.33 228.533 156.523 224.924 158.19C224.924 158.19 218.593 150.411 217.26 145.549C215.927 140.687 220.806 136.543 224.071 138.184Z" fill="#499096"/>
<path d="M223.607 115.728C224.887 118.35 225.818 121.129 226.375 123.993C226.565 125.108 226.439 126.254 226.01 127.3C225.582 128.347 224.868 129.252 223.95 129.913C223.28 130.395 222.569 130.818 221.824 131.176C220.817 131.662 219.683 131.823 218.58 131.635C217.477 131.447 216.46 130.92 215.671 130.127C214.534 128.953 213.578 127.617 212.834 126.163C208.733 118.357 217.714 109.664 223.607 115.728Z" fill="#FFA49A"/>
<path d="M223.038 110.075C222.216 108.885 221.019 108.006 219.638 107.576C215.889 106.638 212.033 108.358 209.408 110.778V110.774C208.515 111.625 207.578 112.428 206.6 113.178C204.784 114.577 203.334 116.395 202.373 118.477C199.913 124.002 203.887 128.67 202.878 130.389C201.868 132.107 197.797 132.407 197.512 135.94C197.227 139.472 198.807 140.314 197.512 143.678L197.508 143.695C195.671 145.819 194.371 148.353 193.717 151.084C191.802 159.904 201.262 162.03 205.296 159.585C209.33 157.14 211.887 158.533 213.944 157.72C223.747 153.845 217.516 136.209 217.728 131.905C217.768 131.117 217.763 130.228 217.752 129.289C217.763 127.579 218.126 125.89 218.819 124.327C219.511 122.763 220.518 121.359 221.777 120.202C224.023 118.048 225.564 114.438 223.038 110.075Z" fill="url(#paint29_linear_1_4305)"/>
<path d="M220.595 124.079C220.102 122.504 218.272 121.517 217.397 122.962C216.521 124.406 217.254 128.077 218.905 128.156C220.555 128.235 221.685 127.561 220.595 124.079Z" fill="#FFA49A"/>
<path d="M177.318 296.648V313.341" stroke="#707070" stroke-miterlimit="10"/>
<path d="M236.849 296.648V313.341" stroke="#707070" stroke-miterlimit="10"/>
<path d="M246.03 291.266H168.138V296.648H246.03V291.266Z" fill="white"/>
<path d="M411.58 149.464H383.462C378.959 149.464 375.308 153.115 375.308 157.618V171.868C375.308 176.371 378.959 180.022 383.462 180.022H411.58C416.083 180.022 419.734 176.371 419.734 171.868V157.618C419.734 153.115 416.083 149.464 411.58 149.464Z" fill="white"/>
<path d="M411.58 180.438H383.462C381.19 180.435 379.011 179.532 377.405 177.925C375.798 176.318 374.894 174.139 374.892 171.867V157.618C374.894 155.346 375.798 153.167 377.405 151.56C379.011 149.954 381.19 149.05 383.462 149.047H411.58C413.852 149.05 416.031 149.954 417.637 151.56C419.244 153.167 420.148 155.346 420.15 157.618V171.867C420.148 174.139 419.244 176.318 417.637 177.925C416.031 179.532 413.852 180.435 411.58 180.438ZM383.462 149.88C381.411 149.883 379.444 150.699 377.994 152.149C376.543 153.6 375.727 155.567 375.725 157.618V171.867C375.727 173.919 376.543 175.885 377.994 177.336C379.444 178.786 381.411 179.602 383.462 179.605H411.58C413.631 179.602 415.598 178.786 417.048 177.336C418.499 175.885 419.315 173.919 419.317 171.867V157.618C419.315 155.567 418.499 153.6 417.048 152.149C415.598 150.699 413.631 149.883 411.58 149.88H383.462Z" fill="url(#paint30_linear_1_4305)"/>
<path d="M392.668 178.798C392.495 178.798 392.324 178.756 392.171 178.675C392.017 178.595 391.886 178.479 391.787 178.336C391.688 178.194 391.625 178.03 391.604 177.858C391.582 177.687 391.603 177.512 391.663 177.35L401.367 151.385C401.47 151.124 401.671 150.914 401.928 150.8C402.184 150.686 402.475 150.677 402.738 150.775C403.001 150.873 403.215 151.071 403.334 151.325C403.453 151.579 403.468 151.87 403.375 152.135L393.669 178.1C393.593 178.304 393.456 178.48 393.277 178.605C393.098 178.729 392.886 178.797 392.668 178.798Z" fill="url(#paint31_linear_1_4305)"/>
<path d="M388.705 174.312C388.541 174.312 388.378 174.28 388.227 174.217C388.075 174.154 387.937 174.062 387.821 173.945L380.627 166.751C380.103 166.226 379.809 165.514 379.809 164.773C379.809 164.031 380.103 163.32 380.627 162.794L387.976 155.445C388.092 155.329 388.23 155.236 388.382 155.174C388.534 155.111 388.697 155.078 388.861 155.078C389.025 155.078 389.188 155.111 389.34 155.174C389.491 155.236 389.629 155.329 389.745 155.445C389.862 155.561 389.954 155.699 390.017 155.851C390.08 156.002 390.112 156.165 390.112 156.329C390.112 156.494 390.08 156.656 390.017 156.808C389.954 156.96 389.862 157.098 389.745 157.214L382.396 164.564C382.341 164.619 382.311 164.694 382.311 164.772C382.311 164.85 382.341 164.925 382.396 164.98L389.59 172.174C389.765 172.348 389.885 172.571 389.934 172.814C389.983 173.057 389.958 173.309 389.863 173.538C389.769 173.767 389.608 173.963 389.402 174.1C389.195 174.237 388.953 174.31 388.705 174.309V174.312Z" fill="#499096"/>
<path d="M406.184 174.312C405.936 174.313 405.693 174.24 405.487 174.103C405.281 173.965 405.12 173.77 405.025 173.541C404.931 173.312 404.906 173.06 404.955 172.817C405.003 172.574 405.123 172.351 405.299 172.176L412.649 164.827C412.703 164.771 412.734 164.696 412.734 164.618C412.734 164.541 412.703 164.466 412.649 164.41L405.455 157.217C405.22 156.982 405.088 156.664 405.088 156.332C405.088 156.001 405.22 155.682 405.454 155.448C405.689 155.213 406.007 155.081 406.339 155.081C406.67 155.081 406.989 155.213 407.223 155.447L414.418 162.642C414.941 163.167 415.235 163.879 415.235 164.62C415.235 165.362 414.941 166.073 414.418 166.599L407.068 173.948C406.952 174.064 406.814 174.156 406.662 174.218C406.51 174.28 406.348 174.312 406.184 174.312Z" fill="#499096"/>
<path d="M82.5111 299.045L82.1929 306.945C82.1929 306.945 85.6181 308.392 88.2929 306.945L89.5298 299.294" fill="#FFA49A"/>
<path d="M52.0628 296.459L50.0895 305.859C50.0895 305.859 53.8896 307.728 56.86 306.442L59.3073 298.639" fill="#FFA49A"/>
<path d="M81.1116 312.966H97.7888C97.8365 312.967 97.8838 312.957 97.9272 312.938C97.9706 312.918 98.009 312.889 98.0398 312.852C98.0705 312.816 98.0927 312.773 98.1048 312.727C98.1168 312.681 98.1185 312.632 98.1095 312.586C97.9563 311.897 96.9725 310.808 95.0825 309.828C93.1224 308.811 88.2928 306.943 88.2928 306.943C86.2717 307.283 84.2081 307.283 82.187 306.943C81.5748 307.62 81.17 308.458 81.0208 309.359C80.9203 310.561 80.9507 311.77 81.1116 312.966Z" fill="url(#paint32_linear_1_4305)"/>
<path d="M68.1037 204.51C68.1037 204.51 62.1753 222.787 60.1903 238.944C58.2053 255.1 58.9508 251.348 58.2953 255.499C57.7038 259.241 56.2786 264.646 54.5393 272.409C52.561 281.239 50.431 301.862 50.431 301.862C52.966 302.683 55.6457 302.961 58.2953 302.676C58.2953 302.676 67.8871 278.02 69.2341 271.078C70.0503 266.879 70.5976 262.633 70.8726 258.365C70.8726 258.365 78.2862 241.842 81.1317 231.305L82.6602 230.875L83.1025 259.391C81.7524 264.775 80.8302 270.258 80.3445 275.788C79.6523 284.405 81.963 302.938 81.963 302.938C81.963 302.938 87.4365 304.604 89.3008 303.314C89.3008 303.314 96.1188 269.307 97.3174 258.582C98.4112 248.798 100.439 229.718 100.676 225.652C101.509 211.324 99.4582 205.2 99.4582 205.2L68.1037 204.51Z" fill="#0C1C24"/>
<path d="M56.9591 306.129C54.6741 306.381 52.3621 306.21 50.1394 305.623L49.7171 306.943C49.7171 306.943 46.5984 308.006 45.408 309.294C43.5996 311.254 44.3993 312.966 44.3993 312.966H57.3223C58.0703 310.723 57.9406 308.28 56.9591 306.129Z" fill="url(#paint33_linear_1_4305)"/>
<path d="M108.639 199.524C108.639 199.524 102.142 200.389 98.4469 199.97C94.167 199.484 98.1379 195.412 98.1379 195.412L108.181 197.827L108.639 199.524Z" fill="#FFA49A"/>
<path d="M99 181.2C99.6622 181.042 100.295 180.867 100.9 180.689C107.119 178.856 108.844 176.679 108.844 176.679C104.941 165.73 102.468 163.268 100.641 161.253C97.2765 157.538 99.818 169.406 100.21 169.614L99 181.2Z" fill="url(#paint34_linear_1_4305)"/>
<path style="mix-blend-mode:multiply" d="M100.357 170.356L101.787 176.979L98.3312 176.115L100.357 170.356Z" fill="url(#paint35_linear_1_4305)"/>
<path d="M69.1308 199.547C68.9183 201.317 66.6901 204.788 66.7034 206.819C66.7034 207.308 68.3794 209.396 72.6418 210.151C72.6418 210.151 80.2312 211.968 91.5365 210.434C94.1621 210.077 99.0825 209.051 100.109 208.174C100.815 207.57 99.1758 202.021 98.9218 198.482C98.3312 190.274 99.7547 188.389 99.8589 181.367C99.8589 181.192 99.868 181.017 99.868 180.842C100.052 170.013 101.147 164.599 100.641 161.252C98.1312 158.449 91.205 156.244 90.7626 156.153C90.7443 156.144 83.4723 156.097 81.888 156.153C78.2586 157.086 71.8363 159.015 68.6435 164.459C68.8192 168.808 68.5377 174.094 69.06 180.868C69.1508 181.888 70.0429 192 69.1308 199.547Z" fill="url(#paint36_linear_1_4305)"/>
<path d="M98.0438 139.482C98.0438 139.482 98.5903 143.255 96.8335 143.946L96.1429 139.77" fill="#192139"/>
<path d="M88.8767 161.522C93.1316 161.012 91.2216 156.676 90.7676 156.102L90.7618 156.109C90.7618 156.109 90.0537 151.491 89.9971 151.271L82.7792 148.12C82.7792 148.12 82.6126 156.003 81.8879 156.11C80.7909 156.627 82.2594 162.313 88.8767 161.522Z" fill="#FFA49A"/>
<path style="mix-blend-mode:multiply" d="M85.2865 150.743C85.805 151.779 86.5483 152.687 87.4623 153.399C88.3762 154.112 89.4377 154.612 90.5693 154.862L89.997 151.271L85.2865 150.743Z" fill="url(#paint37_linear_1_4305)"/>
<path d="M97.18 139.304C97.18 139.304 98.8135 151.738 93.3283 153.78C93.3283 153.78 87.8655 154.294 84.6818 150.013C83.7656 148.779 82.606 148.503 82.2279 147.014C81.6131 144.598 80.746 140.131 81.8522 137.441C83.4274 133.61 97.0309 129.977 97.18 139.304Z" fill="#FFA49A"/>
<path d="M93.5149 130.576C93.5149 130.576 92.2379 127.62 88.302 129.024C86.6529 129.613 85.2088 130.666 84.1429 132.055C83.9789 131.931 83.7899 131.845 83.5891 131.801C83.3882 131.758 83.1803 131.759 82.9798 131.804C82.7793 131.848 82.591 131.937 82.4279 132.062C82.2648 132.187 82.1309 132.346 82.0354 132.528C81.3782 133.42 81.7989 135.316 81.7989 135.316C75.2557 136.516 81.8622 150.414 81.9421 150.864L82.641 151.274C82.8268 149.24 82.7676 147.379 82.8851 145.959C82.9201 145.529 83.6006 145.28 83.7597 144.978C85.0459 145.193 86.312 145.175 87.04 144.554C88.3187 143.465 88.5777 141.674 88.7118 140.464C89.9247 140.874 99.9155 142.452 99.4257 136.749C99.703 136.189 99.9038 135.594 100.023 134.981C101.198 127.905 93.5149 130.576 93.5149 130.576Z" fill="#192139"/>
<path d="M85.0417 147.694C82.5669 148.643 81.793 142.55 84.1437 142.279C85.9263 142.074 85.9996 144.561 85.9996 144.561C85.9996 144.561 86.4553 147.152 85.0417 147.694Z" fill="#FFA49A"/>
<path style="mix-blend-mode:multiply" d="M78.9999 172.778L76.152 182.164L70.3918 182.97L78.9999 172.778Z" fill="#568596"/>
<path d="M60.5168 183.761C62.3977 178.446 64.5909 173.247 67.0849 168.19L76.7167 173.72C76.7167 173.72 73.0374 181.064 70.5984 186.196C72.9516 186.771 79.0291 188.294 83.6847 189.795C87.3893 190.972 91.1999 191.787 95.0625 192.225C94.9026 193.376 94.8178 194.536 94.8084 195.697C86.7222 196.073 78.6222 196.033 70.5401 195.578C68.0797 195.508 65.6341 195.17 63.2465 194.572C60.9974 193.797 59.4647 193.191 59.3606 190.838C59.3298 188.43 59.7211 186.035 60.5168 183.761Z" fill="#FFA49A"/>
<path d="M83.7614 198.483H97.1042V197.177H83.7614C83.6756 197.177 83.5908 197.194 83.5116 197.226C83.4324 197.259 83.3605 197.307 83.2999 197.368C83.2393 197.429 83.1913 197.501 83.1585 197.58C83.1258 197.659 83.109 197.744 83.1091 197.83C83.109 197.916 83.1258 198 83.1585 198.08C83.1913 198.159 83.2393 198.231 83.2999 198.291C83.3605 198.352 83.4324 198.4 83.5116 198.433C83.5908 198.466 83.6756 198.483 83.7614 198.483Z" fill="white"/>
<path d="M90.9809 198.483H122.867C123.062 198.483 123.251 198.419 123.406 198.301C123.561 198.183 123.673 198.018 123.726 197.831L130.563 173.216C130.598 173.089 130.603 172.955 130.579 172.826C130.554 172.697 130.499 172.575 130.419 172.47C130.34 172.365 130.237 172.28 130.119 172.222C130.001 172.163 129.871 172.133 129.739 172.133H98.9543C98.5881 172.133 98.2321 172.253 97.9406 172.475C97.6491 172.696 97.4382 173.007 97.3399 173.36L90.5269 197.881C90.5068 197.952 90.5032 198.026 90.5166 198.097C90.5299 198.169 90.5598 198.237 90.6038 198.295C90.6479 198.354 90.7049 198.401 90.7703 198.434C90.8357 198.466 90.9078 198.483 90.9809 198.483Z" fill="white"/>
<path d="M92.1895 198.483H124.076C124.271 198.483 124.46 198.419 124.615 198.301C124.77 198.183 124.882 198.018 124.934 197.831L131.771 173.216C131.807 173.089 131.812 172.956 131.787 172.826C131.762 172.697 131.708 172.575 131.628 172.47C131.549 172.366 131.446 172.281 131.328 172.222C131.21 172.164 131.08 172.133 130.948 172.133H100.164C99.7974 172.133 99.4412 172.253 99.1496 172.474C98.8579 172.696 98.6468 173.007 98.5486 173.36L91.7355 197.881C91.7154 197.952 91.7119 198.026 91.7252 198.097C91.7386 198.169 91.7684 198.237 91.8125 198.295C91.8565 198.354 91.9135 198.401 91.9789 198.434C92.0443 198.466 92.1164 198.483 92.1895 198.483Z" fill="url(#paint38_linear_1_4305)"/>
<path d="M120.334 198.483C120.334 198.483 119.785 199.717 117.281 199.97L117.455 198.483H120.334Z" fill="#FFA49A"/>
<path d="M119.751 194.3C119.696 194.065 119.137 193.809 118.686 193.961C118.822 193.616 118.935 193.263 119.025 192.904C118.978 192.252 118.342 192.335 117.98 192.538C117.564 192.771 117.078 193.849 116.947 193.965C117.081 193.712 117.189 193.446 117.27 193.171C117.201 193.05 117.106 192.946 116.992 192.866C116.878 192.786 116.748 192.731 116.611 192.706C116.475 192.681 116.334 192.686 116.199 192.721C116.064 192.756 115.939 192.82 115.831 192.908C115.393 193.479 114.998 194.082 114.651 194.712C114.69 194.585 114.716 194.455 114.727 194.323C114.635 193.936 113.905 193.797 113.414 194.245C112.702 195.179 112.117 196.202 111.673 197.289C111.202 198.351 110.764 198.484 110.627 198.484H108.003C108.095 198.837 108.275 199.161 108.527 199.424C108.778 199.688 109.093 199.883 109.442 199.991C111.235 200.489 113.097 200.691 114.955 200.589C115.588 200.61 116.217 200.482 116.792 200.216C117.367 199.949 117.872 199.552 118.265 199.056C118.655 198.091 118.968 197.097 119.202 196.083C119.308 195.716 119.761 194.337 119.751 194.3Z" fill="#FFA49A"/>
<path d="M68.6393 164.459C68.6393 164.459 66.5118 167.117 62.7101 176.349C66.6885 178.556 70.9743 180.157 75.4257 181.098C75.4257 181.098 76.8909 178.136 80.3328 169.472" fill="url(#paint39_linear_1_4305)"/>
<path d="M68.9817 111.01C68.9817 113.119 69.8194 115.141 71.3107 116.633C72.8019 118.124 74.8245 118.962 76.9334 118.962H117.713C119.822 118.962 121.845 118.124 123.336 116.633C124.827 115.141 125.665 113.119 125.665 111.01C125.665 108.901 124.827 106.878 123.336 105.387C121.845 103.896 119.822 103.058 117.713 103.058H76.9334C74.8245 103.058 72.8019 103.896 71.3107 105.387C69.8194 106.878 68.9817 108.901 68.9817 111.01Z" fill="white"/>
<path d="M117.123 108.199H82.6869C82.4507 108.199 82.2242 108.105 82.0572 107.938C81.8902 107.771 81.7964 107.544 81.7964 107.308C81.7964 107.072 81.8902 106.845 82.0572 106.678C82.2242 106.511 82.4507 106.418 82.6869 106.418H117.123C117.36 106.418 117.586 106.511 117.753 106.678C117.92 106.845 118.014 107.072 118.014 107.308C118.014 107.544 117.92 107.771 117.753 107.938C117.586 108.105 117.36 108.199 117.123 108.199Z" fill="url(#paint40_linear_1_4305)"/>
<path d="M104.138 111.917H82.6869C82.4507 111.917 82.2242 111.823 82.0572 111.656C81.8902 111.489 81.7964 111.263 81.7964 111.027C81.7963 110.91 81.8192 110.794 81.864 110.686C81.9087 110.578 81.9743 110.479 82.057 110.397C82.1397 110.314 82.2379 110.248 82.346 110.204C82.454 110.159 82.5699 110.136 82.6869 110.136H104.138C104.374 110.136 104.601 110.23 104.768 110.397C104.935 110.564 105.028 110.79 105.028 111.027C105.028 111.263 104.935 111.489 104.768 111.656C104.601 111.823 104.374 111.917 104.138 111.917Z" fill="url(#paint41_linear_1_4305)"/>
<path d="M117.123 111.917H107.938C107.702 111.917 107.475 111.823 107.308 111.656C107.141 111.489 107.048 111.263 107.048 111.027C107.047 110.91 107.07 110.794 107.115 110.686C107.16 110.578 107.225 110.479 107.308 110.397C107.391 110.314 107.489 110.248 107.597 110.204C107.705 110.159 107.821 110.136 107.938 110.136H117.123C117.24 110.136 117.356 110.159 117.464 110.204C117.572 110.248 117.671 110.314 117.753 110.397C117.836 110.479 117.902 110.578 117.946 110.686C117.991 110.794 118.014 110.91 118.014 111.027C118.014 111.263 117.92 111.489 117.753 111.656C117.586 111.823 117.36 111.917 117.123 111.917Z" fill="url(#paint42_linear_1_4305)"/>
<path d="M99.0141 115.64H82.6876C82.4513 115.64 82.2248 115.546 82.0579 115.379C81.8909 115.212 81.7971 114.985 81.7971 114.749C81.7971 114.513 81.8909 114.287 82.0579 114.12C82.2249 113.953 82.4514 113.859 82.6876 113.859H99.0141C99.2504 113.859 99.477 113.952 99.6441 114.119C99.8112 114.286 99.9052 114.513 99.9055 114.749C99.9055 114.986 99.8115 115.212 99.6444 115.379C99.4772 115.547 99.2505 115.64 99.0141 115.64Z" fill="url(#paint43_linear_1_4305)"/>
<path d="M79.4998 107.308C79.4999 107.484 79.4478 107.657 79.35 107.803C79.2521 107.95 79.113 108.065 78.9501 108.132C78.7873 108.2 78.608 108.217 78.4351 108.183C78.2621 108.149 78.1032 108.064 77.9785 107.939C77.8538 107.815 77.7688 107.656 77.7344 107.483C77.6999 107.31 77.7175 107.131 77.7849 106.968C77.8524 106.805 77.9666 106.666 78.1132 106.568C78.2598 106.47 78.4321 106.418 78.6085 106.418C78.8447 106.418 79.0713 106.511 79.2384 106.678C79.4055 106.845 79.4995 107.072 79.4998 107.308Z" fill="url(#paint44_linear_1_4305)"/>
<path d="M79.4998 111.029C79.4999 111.205 79.4478 111.378 79.35 111.524C79.2521 111.671 79.113 111.785 78.9501 111.853C78.7873 111.921 78.608 111.938 78.4351 111.904C78.2621 111.87 78.1032 111.785 77.9785 111.66C77.8538 111.536 77.7688 111.377 77.7344 111.204C77.6999 111.031 77.7175 110.852 77.7849 110.689C77.8524 110.526 77.9666 110.387 78.1132 110.289C78.2598 110.191 78.4321 110.139 78.6085 110.139C78.8447 110.139 79.0713 110.232 79.2384 110.399C79.4055 110.566 79.4995 110.793 79.4998 111.029Z" fill="url(#paint45_linear_1_4305)"/>
<path d="M79.4998 114.749C79.4999 114.925 79.4478 115.098 79.35 115.245C79.2521 115.391 79.113 115.506 78.9501 115.573C78.7873 115.641 78.608 115.659 78.4351 115.624C78.2621 115.59 78.1032 115.505 77.9785 115.381C77.8538 115.256 77.7688 115.097 77.7344 114.924C77.6999 114.751 77.7175 114.572 77.7849 114.409C77.8524 114.246 77.9666 114.107 78.1132 114.009C78.2598 113.911 78.4321 113.859 78.6085 113.859C78.8447 113.859 79.0713 113.952 79.2384 114.119C79.4055 114.286 79.4995 114.513 79.4998 114.749Z" fill="url(#paint46_linear_1_4305)"/>
<path d="M247.593 77.8211C247.593 79.93 248.43 81.9526 249.922 83.4438C251.413 84.935 253.435 85.7728 255.544 85.7728H296.327C298.436 85.7728 300.458 84.935 301.949 83.4438C303.441 81.9526 304.278 79.93 304.278 77.8211C304.278 75.7122 303.441 73.6896 301.949 72.1984C300.458 70.7072 298.436 69.8694 296.327 69.8694H255.544C253.435 69.8694 251.413 70.7072 249.922 72.1984C248.43 73.6896 247.593 75.7122 247.593 77.8211V77.8211Z" stroke="white" stroke-miterlimit="10"/>
<path d="M295.735 75.0098H261.298C261.062 75.0096 260.835 74.9157 260.668 74.7487C260.501 74.5818 260.408 74.3554 260.407 74.1193C260.407 73.8832 260.501 73.6567 260.668 73.4897C260.835 73.3227 261.062 73.2289 261.298 73.2289H295.735C295.971 73.2289 296.198 73.3227 296.365 73.4897C296.532 73.6567 296.626 73.8832 296.626 74.1193C296.625 74.3554 296.532 74.5818 296.365 74.7487C296.198 74.9157 295.971 75.0096 295.735 75.0098Z" fill="white"/>
<path d="M282.749 78.7307H261.298C261.062 78.7305 260.835 78.6366 260.668 78.4697C260.501 78.3027 260.408 78.0764 260.407 77.8403C260.407 77.604 260.501 77.3775 260.668 77.2103C260.835 77.0432 261.062 76.9492 261.298 76.949H282.749C282.866 76.949 282.982 76.972 283.09 77.0168C283.198 77.0617 283.296 77.1273 283.379 77.2101C283.462 77.2929 283.527 77.3911 283.572 77.4993C283.617 77.6074 283.64 77.7233 283.639 77.8403C283.639 78.0764 283.546 78.3029 283.379 78.4699C283.212 78.6369 282.985 78.7307 282.749 78.7307Z" fill="white"/>
<path d="M295.735 78.7307H286.549C286.313 78.7305 286.087 78.6366 285.92 78.4697C285.753 78.3027 285.659 78.0764 285.659 77.8403C285.659 77.604 285.752 77.3775 285.919 77.2103C286.086 77.0432 286.313 76.9492 286.549 76.949H295.735C295.971 76.9492 296.198 77.0432 296.365 77.2103C296.532 77.3775 296.626 77.604 296.626 77.8403C296.625 78.0764 296.532 78.3027 296.365 78.4697C296.198 78.6366 295.971 78.7305 295.735 78.7307Z" fill="white"/>
<path d="M277.626 82.4517H261.3C261.063 82.4515 260.837 82.3575 260.67 82.1903C260.503 82.0232 260.409 81.7966 260.409 81.5604C260.409 81.3243 260.503 81.0979 260.67 80.931C260.837 80.764 261.063 80.6701 261.3 80.6699H277.626C277.862 80.6701 278.089 80.764 278.255 80.931C278.422 81.0979 278.516 81.3243 278.517 81.5604C278.517 81.7966 278.423 82.0232 278.256 82.1903C278.089 82.3575 277.862 82.4515 277.626 82.4517Z" fill="white"/>
<path d="M258.107 74.1193C258.107 74.2954 258.054 74.4676 257.957 74.614C257.859 74.7605 257.72 74.8746 257.557 74.942C257.394 75.0094 257.215 75.027 257.042 74.9927C256.87 74.9583 256.711 74.8735 256.587 74.749C256.462 74.6244 256.377 74.4658 256.343 74.293C256.308 74.1203 256.326 73.9413 256.393 73.7786C256.461 73.6158 256.575 73.4768 256.721 73.3789C256.868 73.2811 257.04 73.2289 257.216 73.2289C257.452 73.2289 257.679 73.3227 257.846 73.4897C258.013 73.6567 258.107 73.8832 258.107 74.1193Z" fill="white"/>
<path d="M258.107 77.8403C258.106 78.0164 258.054 78.1884 257.956 78.3348C257.858 78.4811 257.719 78.5951 257.556 78.6624C257.394 78.7296 257.215 78.7471 257.042 78.7127C256.869 78.6782 256.711 78.5934 256.586 78.4688C256.462 78.3442 256.377 78.1856 256.343 78.0129C256.308 77.8401 256.326 77.6611 256.394 77.4985C256.461 77.3358 256.575 77.1968 256.722 77.099C256.868 77.0012 257.04 76.949 257.216 76.949C257.333 76.949 257.449 76.972 257.557 77.0168C257.665 77.0617 257.763 77.1273 257.846 77.2101C257.929 77.2929 257.994 77.3911 258.039 77.4993C258.084 77.6074 258.107 77.7233 258.107 77.8403Z" fill="white"/>
<path d="M258.107 81.5604C258.107 81.7365 258.054 81.9087 257.957 82.0551C257.859 82.2015 257.72 82.3157 257.557 82.3831C257.394 82.4505 257.215 82.4681 257.042 82.4337C256.87 82.3994 256.711 82.3146 256.587 82.19C256.462 82.0655 256.377 81.9068 256.343 81.7341C256.308 81.5614 256.326 81.3823 256.393 81.2196C256.461 81.0569 256.575 80.9178 256.721 80.82C256.868 80.7221 257.04 80.6699 257.216 80.6699C257.452 80.6699 257.679 80.7637 257.846 80.9307C258.013 81.0977 258.107 81.3242 258.107 81.5604Z" fill="white"/>
<path d="M205.625 52.43H191.707C188.995 52.43 186.796 54.6288 186.796 57.3413V71.2588C186.796 73.9713 188.995 76.1701 191.707 76.1701H205.625C208.337 76.1701 210.536 73.9713 210.536 71.2588V57.3413C210.536 54.6288 208.337 52.43 205.625 52.43Z" fill="white"/>
<path d="M193.52 63.7636C193.355 64.0261 193.098 64.2174 192.799 64.3C193.098 64.3827 193.355 64.574 193.52 64.8365C193.69 65.1771 193.767 65.5562 193.744 65.936V68.9781C193.721 69.3066 193.827 69.6311 194.04 69.8827C194.158 69.9938 194.298 70.0789 194.451 70.1327C194.604 70.1865 194.767 70.2077 194.929 70.1951H195.262V71.7969H194.462C193.723 71.8508 192.992 71.6114 192.428 71.1305C192.186 70.8709 192 70.5642 191.881 70.2294C191.763 69.8945 191.715 69.5389 191.74 69.1847V65.8861C191.74 65.374 191.5 65.118 191.019 65.118H190.49V63.4846H191.019C191.499 63.4846 191.739 63.2283 191.74 62.7157V59.4162C191.715 59.0623 191.763 58.707 191.881 58.3725C192 58.038 192.186 57.7314 192.428 57.472C192.992 56.9912 193.723 56.7518 194.462 56.8057H195.262V58.4067H194.929C194.767 58.3943 194.605 58.4157 194.452 58.4693C194.299 58.5229 194.158 58.6077 194.04 58.7182C193.827 58.9702 193.721 59.2949 193.744 59.6236V62.6657C193.767 63.045 193.689 63.4235 193.52 63.7636Z" fill="#499096"/>
<path d="M206.839 63.4837V65.1172H206.294C206.199 65.1111 206.103 65.125 206.014 65.158C205.924 65.191 205.843 65.2424 205.774 65.3088C205.639 65.4694 205.573 65.6763 205.589 65.8852V69.1838C205.615 69.5388 205.566 69.895 205.446 70.2301C205.326 70.5651 205.138 70.8714 204.893 71.1297C204.326 71.6095 203.593 71.8487 202.852 71.7961H202.051V70.1926H202.384C202.548 70.2058 202.713 70.1849 202.869 70.1311C203.025 70.0774 203.167 69.9919 203.288 69.8802C203.501 69.6286 203.607 69.3041 203.584 68.9756V65.936C203.561 65.5551 203.635 65.1746 203.801 64.8307C203.963 64.5711 204.217 64.3825 204.513 64.3025C204.217 64.2223 203.963 64.0334 203.801 63.7736C203.635 63.43 203.561 63.0497 203.584 62.669V59.627C203.607 59.2982 203.501 58.9735 203.288 58.7215C203.167 58.6101 203.024 58.525 202.869 58.4714C202.713 58.4178 202.548 58.3969 202.384 58.41H202.051V56.8065H202.852C203.593 56.7539 204.326 56.993 204.893 57.4729C205.137 57.7308 205.326 58.037 205.446 58.3717C205.566 58.7064 205.614 59.0624 205.589 59.4171V62.7165C205.573 62.9254 205.64 63.1323 205.774 63.2929C205.843 63.3593 205.924 63.4107 206.014 63.4438C206.103 63.4769 206.199 63.4911 206.294 63.4854L206.839 63.4837Z" fill="#499096"/>
<path d="M148.917 281.17C156.891 281.17 163.355 274.706 163.355 266.732C163.355 258.758 156.891 252.294 148.917 252.294C140.943 252.294 134.479 258.758 134.479 266.732C134.479 274.706 140.943 281.17 148.917 281.17Z" fill="#DEAD85"/>
<path d="M146.937 260.82L155.085 265.524C155.297 265.647 155.473 265.823 155.595 266.035C155.718 266.247 155.782 266.487 155.782 266.732C155.782 266.977 155.718 267.217 155.595 267.429C155.473 267.641 155.297 267.817 155.085 267.94L146.937 272.644C146.725 272.766 146.484 272.831 146.239 272.83C145.995 272.83 145.754 272.766 145.542 272.644C145.33 272.521 145.154 272.345 145.031 272.133C144.909 271.921 144.844 271.681 144.844 271.436V262.023C144.845 261.779 144.91 261.539 145.033 261.327C145.156 261.116 145.332 260.941 145.544 260.819C145.756 260.697 145.996 260.633 146.24 260.633C146.485 260.633 146.725 260.697 146.937 260.82Z" fill="white"/>
<path d="M375.52 128.862H375.53L372.615 135.503C372.526 135.705 372.381 135.877 372.196 135.997C372.012 136.118 371.796 136.182 371.575 136.182H369.743C369.615 136.182 369.493 136.131 369.403 136.041C369.313 135.951 369.262 135.829 369.262 135.701V126.421C369.262 126.284 369.317 126.153 369.413 126.056C369.51 125.96 369.641 125.905 369.778 125.905H371.27C371.424 125.9 371.569 125.834 371.676 125.724C371.783 125.613 371.842 125.465 371.842 125.311C371.842 125.157 371.783 125.009 371.676 124.898C371.569 124.788 371.424 124.722 371.27 124.717H366.066C365.912 124.722 365.767 124.788 365.66 124.898C365.553 125.009 365.494 125.157 365.494 125.311C365.494 125.465 365.553 125.613 365.66 125.724C365.767 125.834 365.912 125.9 366.066 125.905H367.557C367.694 125.905 367.825 125.96 367.922 126.056C368.019 126.153 368.073 126.284 368.074 126.421V135.701C368.074 135.765 368.061 135.827 368.037 135.885C368.013 135.944 367.977 135.997 367.933 136.041C367.888 136.086 367.835 136.121 367.776 136.146C367.718 136.17 367.655 136.182 367.592 136.182H365.766C365.544 136.183 365.327 136.119 365.141 135.998C364.955 135.878 364.808 135.706 364.717 135.503L361.811 128.862C361.11 127.658 360.741 126.29 360.742 124.897C360.764 122.834 361.581 120.859 363.023 119.383C364.465 117.908 366.421 117.045 368.483 116.976C369.89 116.94 371.281 117.281 372.513 117.963C373.745 118.644 374.772 119.642 375.49 120.853C376.207 122.064 376.589 123.445 376.595 124.853C376.601 126.261 376.231 127.644 375.524 128.862H375.52Z" fill="url(#paint47_linear_1_4305)"/>
<path d="M372.069 138.134H365.262C365.066 138.134 364.878 138.056 364.74 137.917C364.601 137.779 364.523 137.591 364.523 137.395C364.523 137.199 364.601 137.011 364.74 136.872C364.878 136.734 365.066 136.656 365.262 136.656H372.069C372.265 136.656 372.453 136.734 372.592 136.872C372.731 137.011 372.808 137.199 372.808 137.395C372.808 137.591 372.731 137.779 372.592 137.917C372.453 138.056 372.265 138.134 372.069 138.134Z" fill="#DFAC85"/>
<path d="M372.069 140.086H365.262C365.066 140.086 364.878 140.008 364.74 139.87C364.601 139.731 364.523 139.543 364.523 139.347C364.523 139.151 364.601 138.963 364.74 138.825C364.878 138.686 365.066 138.608 365.262 138.608H372.069C372.265 138.608 372.453 138.686 372.592 138.825C372.731 138.963 372.808 139.151 372.808 139.347C372.808 139.543 372.731 139.731 372.592 139.87C372.453 140.008 372.265 140.086 372.069 140.086Z" fill="#DFAD85"/>
<path d="M370.605 140.605C370.656 140.605 370.706 140.617 370.751 140.639C370.797 140.66 370.838 140.692 370.87 140.731C370.902 140.77 370.925 140.816 370.938 140.865C370.951 140.914 370.953 140.965 370.943 141.015C370.847 141.548 370.566 142.031 370.15 142.379C369.733 142.726 369.208 142.916 368.666 142.916C368.124 142.916 367.599 142.726 367.183 142.379C366.767 142.031 366.486 141.548 366.389 141.015C366.38 140.966 366.382 140.915 366.394 140.866C366.406 140.817 366.429 140.772 366.461 140.733C366.492 140.694 366.532 140.662 366.578 140.64C366.623 140.618 366.672 140.606 366.723 140.605H370.605Z" fill="url(#paint48_linear_1_4305)"/>
<path d="M134.477 92.4834C129.057 92.4834 123.758 90.8761 119.251 87.8647C114.745 84.8534 111.232 80.5733 109.158 75.5656C107.084 70.558 106.541 65.0477 107.598 59.7315C108.656 54.4154 111.266 49.5323 115.098 45.6996C118.931 41.8669 123.814 39.2568 129.13 38.1993C134.447 37.1419 139.957 37.6846 144.965 39.7588C149.972 41.8331 154.252 45.3457 157.264 49.8525C160.275 54.3593 161.882 59.6578 161.882 65.0781C161.874 72.3439 158.984 79.3098 153.846 84.4475C148.709 89.5853 141.743 92.4752 134.477 92.4834ZM134.477 38.33C129.187 38.33 124.015 39.8987 119.617 42.8378C115.218 45.777 111.789 49.9544 109.765 54.842C107.74 59.7296 107.211 65.1077 108.243 70.2964C109.275 75.485 111.822 80.251 115.563 83.9918C119.304 87.7326 124.07 90.2801 129.259 91.3122C134.447 92.3443 139.825 91.8146 144.713 89.7901C149.601 87.7656 153.778 84.3372 156.717 79.9385C159.656 75.5398 161.225 70.3683 161.225 65.0781C161.217 57.9865 158.396 51.1876 153.382 46.1731C148.367 41.1586 141.569 38.3379 134.477 38.33Z" fill="white"/>
<path d="M142.988 87.0492C155.118 82.3559 161.146 68.718 156.453 56.5881C151.76 44.4583 138.122 38.4298 125.992 43.1231C113.862 47.8164 107.834 61.4543 112.527 73.5842C117.22 85.714 130.858 91.7425 142.988 87.0492Z" fill="white"/>
<path d="M136.622 65.078C136.623 65.502 136.497 65.9165 136.262 66.2693C136.027 66.622 135.693 66.8971 135.301 67.0598C134.91 67.2224 134.479 67.2653 134.063 67.1831C133.647 67.1008 133.265 66.897 132.965 66.5975C132.665 66.2981 132.46 65.9163 132.377 65.5006C132.294 65.0849 132.336 64.6539 132.498 64.2621C132.66 63.8703 132.934 63.5353 133.287 63.2995C133.639 63.0636 134.053 62.9376 134.477 62.9373C135.045 62.9368 135.591 63.1621 135.993 63.5635C136.395 63.965 136.621 64.5098 136.622 65.078Z" fill="url(#paint49_linear_1_4305)"/>
<path d="M134.245 64.6566C134.169 64.6998 134.084 64.7273 133.996 64.7376C133.909 64.7479 133.82 64.7407 133.735 64.7165C133.651 64.6922 133.571 64.6514 133.503 64.5964C133.434 64.5413 133.376 64.4732 133.334 64.3958L126.411 51.9085C126.368 51.8317 126.34 51.747 126.33 51.6595C126.32 51.5719 126.327 51.4832 126.351 51.3984C126.376 51.3137 126.416 51.2346 126.471 51.1657C126.526 51.0968 126.595 51.0396 126.672 50.9972C126.749 50.954 126.833 50.9264 126.921 50.9161C127.009 50.9059 127.097 50.913 127.182 50.9373C127.267 50.9615 127.346 51.0024 127.415 51.0574C127.484 51.1125 127.541 51.1806 127.583 51.2579L134.506 63.7461C134.549 63.8229 134.577 63.9075 134.587 63.9949C134.597 64.0824 134.59 64.171 134.566 64.2557C134.541 64.3404 134.501 64.4194 134.446 64.4882C134.391 64.557 134.323 64.6142 134.245 64.6566Z" fill="url(#paint50_linear_1_4305)"/>
<path d="M134.819 65.4179C134.945 65.2923 135.116 65.2217 135.293 65.2217C135.471 65.2217 135.642 65.2923 135.767 65.4179L141.757 71.4079C141.819 71.4699 141.869 71.5436 141.903 71.6249C141.937 71.7062 141.954 71.7934 141.954 71.8815C141.954 71.9695 141.937 72.0567 141.903 72.138C141.869 72.2193 141.819 72.2931 141.757 72.355C141.695 72.4177 141.621 72.4675 141.539 72.5015C141.458 72.5355 141.371 72.553 141.283 72.553C141.194 72.553 141.107 72.5355 141.026 72.5015C140.944 72.4675 140.871 72.4177 140.809 72.355L134.819 66.3658C134.694 66.2401 134.623 66.0696 134.623 65.8919C134.623 65.7141 134.694 65.5436 134.819 65.4179Z" fill="url(#paint51_linear_1_4305)"/>
<path d="M134.623 47.0688C134.402 47.0688 134.19 46.9811 134.034 46.8249C133.878 46.6686 133.79 46.4568 133.79 46.2358V43.5286C133.79 43.3077 133.878 43.0958 134.034 42.9396C134.19 42.7834 134.402 42.6956 134.623 42.6956C134.844 42.6956 135.056 42.7834 135.212 42.9396C135.368 43.0958 135.456 43.3077 135.456 43.5286V46.2358C135.456 46.4568 135.368 46.6686 135.212 46.8249C135.056 46.9811 134.844 47.0688 134.623 47.0688Z" fill="url(#paint52_linear_1_4305)"/>
<path d="M156.028 66.0551H153.321C153.1 66.0551 152.888 65.9674 152.732 65.8112C152.576 65.6549 152.488 65.4431 152.488 65.2221C152.488 65.0012 152.576 64.7894 152.732 64.6331C152.888 64.4769 153.1 64.3892 153.321 64.3892H156.028C156.249 64.3892 156.461 64.4769 156.617 64.6331C156.773 64.7894 156.861 65.0012 156.861 65.2221C156.861 65.4431 156.773 65.6549 156.617 65.8112C156.461 65.9674 156.249 66.0551 156.028 66.0551Z" fill="url(#paint53_linear_1_4305)"/>
<path d="M134.335 87.4596C134.114 87.4596 133.902 87.3719 133.746 87.2156C133.589 87.0594 133.502 86.8475 133.502 86.6266V83.9194C133.502 83.6985 133.589 83.4866 133.746 83.3304C133.902 83.1742 134.114 83.0864 134.335 83.0864C134.555 83.0864 134.767 83.1742 134.924 83.3304C135.08 83.4866 135.168 83.6985 135.168 83.9194V86.6266C135.168 86.8475 135.08 87.0594 134.924 87.2156C134.767 87.3719 134.555 87.4596 134.335 87.4596Z" fill="url(#paint54_linear_1_4305)"/>
<path d="M115.637 65.7694H112.93C112.709 65.7694 112.497 65.6817 112.341 65.5255C112.185 65.3692 112.097 65.1574 112.097 64.9364C112.097 64.7155 112.185 64.5036 112.341 64.3474C112.497 64.1912 112.709 64.1035 112.93 64.1035H115.637C115.858 64.1035 116.07 64.1912 116.226 64.3474C116.383 64.5036 116.47 64.7155 116.47 64.9364C116.47 65.1574 116.383 65.3692 116.226 65.5255C116.07 65.6817 115.858 65.7694 115.637 65.7694Z" fill="url(#paint55_linear_1_4305)"/>
<g opacity="0.5">
<path d="M125.183 49.1047C125.11 49.1048 125.038 49.0856 124.975 49.0491C124.911 49.0125 124.858 48.9598 124.822 48.8964L123.468 46.5515C123.414 46.4559 123.4 46.3427 123.428 46.2366C123.457 46.1304 123.527 46.04 123.622 45.985C123.717 45.93 123.83 45.9149 123.937 45.943C124.043 45.9711 124.134 46.0402 124.19 46.1351L125.543 48.4799C125.598 48.5756 125.613 48.6893 125.585 48.796C125.556 48.9026 125.486 48.9936 125.391 49.0488C125.328 49.0857 125.256 49.105 125.183 49.1047Z" fill="#DEE2F9"/>
<path d="M150.869 56.1984C150.777 56.1989 150.688 56.1689 150.615 56.1131C150.541 56.0573 150.489 55.9789 150.465 55.89C150.441 55.8011 150.447 55.7068 150.483 55.6219C150.518 55.5369 150.58 55.4661 150.66 55.4204L153.005 54.0668C153.101 54.0115 153.215 53.9966 153.321 54.0253C153.428 54.0539 153.519 54.1238 153.574 54.2196C153.63 54.3154 153.645 54.4292 153.616 54.5359C153.587 54.6427 153.517 54.7337 153.422 54.789L151.077 56.1426C151.014 56.179 150.942 56.1982 150.869 56.1984Z" fill="#DEE2F9"/>
<path d="M145.129 84.2284C145.056 84.2286 144.984 84.2094 144.92 84.1729C144.857 84.1363 144.804 84.0836 144.768 84.0202L143.414 81.6753C143.36 81.5797 143.345 81.4665 143.374 81.3603C143.403 81.2542 143.473 81.1638 143.568 81.1088C143.663 81.0538 143.776 81.0387 143.883 81.0668C143.989 81.0949 144.08 81.164 144.135 81.2588L145.489 83.6037C145.544 83.6994 145.559 83.813 145.531 83.9197C145.502 84.0264 145.432 84.1174 145.337 84.1726C145.274 84.2093 145.202 84.2286 145.129 84.2284Z" fill="#DEE2F9"/>
<path d="M115.746 76.1443C115.654 76.1445 115.565 76.1144 115.492 76.0586C115.419 76.0029 115.366 75.9246 115.343 75.836C115.319 75.7474 115.325 75.6534 115.36 75.5686C115.395 75.4838 115.457 75.413 115.536 75.3671L117.881 74.0135C117.929 73.9857 117.981 73.9676 118.036 73.9602C118.09 73.9527 118.145 73.9561 118.198 73.9702C118.252 73.9842 118.301 74.0086 118.345 74.042C118.389 74.0753 118.425 74.117 118.453 74.1646C118.48 74.2121 118.498 74.2647 118.505 74.3191C118.512 74.3736 118.508 74.4289 118.494 74.482C118.48 74.535 118.455 74.5846 118.421 74.628C118.387 74.6714 118.346 74.7077 118.298 74.7349L115.953 76.0885C115.89 76.1249 115.818 76.1442 115.746 76.1443Z" fill="#DEE2F9"/>
</g>
<g opacity="0.5">
<path d="M118.234 55.9485C118.161 55.9487 118.089 55.9294 118.026 55.8927L115.681 54.5391C115.634 54.5119 115.592 54.4756 115.558 54.4322C115.525 54.3888 115.5 54.3391 115.485 54.2861C115.471 54.2331 115.467 54.1778 115.474 54.1233C115.481 54.0688 115.499 54.0163 115.527 53.9687C115.554 53.9212 115.591 53.8795 115.634 53.8461C115.678 53.8128 115.728 53.7884 115.781 53.7743C115.834 53.7603 115.889 53.7569 115.944 53.7643C115.998 53.7718 116.051 53.7899 116.098 53.8177L118.442 55.1713C118.521 55.2171 118.583 55.2879 118.619 55.3726C118.654 55.4573 118.66 55.5512 118.636 55.6398C118.612 55.7283 118.56 55.8066 118.487 55.8624C118.415 55.9182 118.325 55.9485 118.234 55.9485Z" fill="#DEE2F9"/>
<path d="M144.024 49.2488C143.951 49.2491 143.879 49.2298 143.817 49.1929C143.721 49.1377 143.651 49.0467 143.622 48.94C143.594 48.8334 143.609 48.7197 143.664 48.624L145.018 46.2792C145.045 46.2314 145.081 46.1895 145.125 46.1558C145.168 46.1222 145.218 46.0975 145.271 46.0831C145.324 46.0687 145.379 46.0649 145.433 46.072C145.488 46.0791 145.54 46.0969 145.588 46.1243C145.636 46.1518 145.677 46.1884 145.711 46.232C145.744 46.2756 145.768 46.3254 145.782 46.3785C145.796 46.4317 145.8 46.487 145.792 46.5414C145.785 46.5959 145.767 46.6483 145.739 46.6956L144.385 49.0405C144.349 49.1039 144.296 49.1566 144.233 49.1932C144.169 49.2297 144.097 49.2489 144.024 49.2488Z" fill="#DEE2F9"/>
<path d="M153.068 76.3933C152.995 76.3936 152.923 76.3743 152.86 76.3375L150.516 74.9839C150.421 74.9283 150.352 74.8374 150.324 74.7311C150.296 74.6248 150.311 74.5116 150.366 74.4164C150.421 74.3211 150.512 74.2515 150.618 74.2227C150.724 74.1939 150.837 74.2082 150.933 74.2626L153.277 75.6162C153.356 75.662 153.418 75.7328 153.453 75.8175C153.488 75.9022 153.494 75.9961 153.471 76.0847C153.447 76.1732 153.395 76.2515 153.322 76.3073C153.249 76.3631 153.16 76.3933 153.068 76.3933Z" fill="#DEE2F9"/>
<path d="M123.579 84.0843C123.506 84.0846 123.434 84.0653 123.371 84.0285C123.275 83.9733 123.205 83.8823 123.177 83.7756C123.148 83.6689 123.163 83.5553 123.218 83.4596L124.572 81.1147C124.628 81.0198 124.719 80.9508 124.825 80.9227C124.931 80.8946 125.044 80.9097 125.14 80.9647C125.235 81.0197 125.304 81.1101 125.333 81.2162C125.362 81.3224 125.348 81.4356 125.293 81.5312L123.94 83.8761C123.903 83.9394 123.851 83.992 123.787 84.0285C123.724 84.0651 123.652 84.0843 123.579 84.0843Z" fill="#DEE2F9"/>
</g>
<path d="M15.4846 313.341H448.222" stroke="#232230" stroke-linecap="round" stroke-linejoin="round"/>
</g>
<defs>
<linearGradient id="paint0_linear_1_4305" x1="379.869" y1="-13320.5" x2="379.869" y2="-13387" gradientUnits="userSpaceOnUse">
<stop stop-color="#DFEDF2"/>
<stop offset="1" stop-color="#E8F8FF"/>
</linearGradient>
<linearGradient id="paint1_linear_1_4305" x1="390.723" y1="-13407.3" x2="409.414" y2="-13387.2" gradientUnits="userSpaceOnUse">
<stop stop-color="#DFEDF2"/>
<stop offset="1" stop-color="#E8F8FF"/>
</linearGradient>
<linearGradient id="paint2_linear_1_4305" x1="429.206" y1="-13635.8" x2="441.489" y2="-13622.7" gradientUnits="userSpaceOnUse">
<stop stop-color="#DFEDF2"/>
<stop offset="1" stop-color="#E8F8FF"/>
</linearGradient>
<linearGradient id="paint3_linear_1_4305" x1="35.6631" y1="161.807" x2="81.0516" y2="207.194" gradientUnits="userSpaceOnUse">
<stop stop-color="#499096"/>
<stop offset="1" stop-color="#51B9F8"/>
</linearGradient>
<linearGradient id="paint4_linear_1_4305" x1="98.11" y1="175.933" x2="362.971" y2="175.933" gradientUnits="userSpaceOnUse">
<stop stop-color="#DB8363"/>
<stop offset="1" stop-color="#DEAD85"/>
</linearGradient>
<linearGradient id="paint5_linear_1_4305" x1="98.1259" y1="175.935" x2="362.987" y2="175.935" gradientUnits="userSpaceOnUse">
<stop stop-color="#DB8363"/>
<stop offset="1" stop-color="#DEAD85"/>
</linearGradient>
<linearGradient id="paint6_linear_1_4305" x1="259.803" y1="210.32" x2="229.031" y2="193.367" gradientUnits="userSpaceOnUse">
<stop stop-color="#CBE1F2" stop-opacity="0"/>
<stop offset="1" stop-color="#AED2ED"/>
</linearGradient>
<linearGradient id="paint7_linear_1_4305" x1="206.019" y1="137.54" x2="233.406" y2="162.034" gradientUnits="userSpaceOnUse">
<stop stop-color="#CBE1F2" stop-opacity="0"/>
<stop offset="1" stop-color="#AED2ED"/>
</linearGradient>
<linearGradient id="paint8_linear_1_4305" x1="256.783" y1="134.751" x2="303.946" y2="119.259" gradientUnits="userSpaceOnUse">
<stop stop-color="#CBE1F2" stop-opacity="0"/>
<stop offset="1" stop-color="#AED2ED"/>
</linearGradient>
<linearGradient id="paint9_linear_1_4305" x1="194.764" y1="128.919" x2="160.037" y2="118.57" gradientUnits="userSpaceOnUse">
<stop stop-color="#DEAD85"/>
<stop offset="1" stop-color="#DB8363" stop-opacity="0.2"/>
</linearGradient>
<linearGradient id="paint10_linear_1_4305" x1="136.088" y1="219.449" x2="171.189" y2="235.565" gradientUnits="userSpaceOnUse">
<stop stop-color="#DEAD85"/>
<stop offset="1" stop-color="#DB8363" stop-opacity="0.2"/>
</linearGradient>
<linearGradient id="paint11_linear_1_4305" x1="332.106" y1="220.142" x2="294.142" y2="233.255" gradientUnits="userSpaceOnUse">
<stop stop-color="#CBE1F2" stop-opacity="0"/>
<stop offset="1" stop-color="#AED2ED"/>
</linearGradient>
<linearGradient id="paint12_linear_1_4305" x1="323.428" y1="321.292" x2="323.428" y2="270.138" gradientUnits="userSpaceOnUse">
<stop stop-color="#33221F"/>
<stop offset="1" stop-color="#33221F"/>
</linearGradient>
<linearGradient id="paint13_linear_1_4305" x1="341.391" y1="208.964" x2="341.391" y2="285.265" gradientUnits="userSpaceOnUse">
<stop stop-color="#33221F"/>
<stop offset="1" stop-color="#33221F"/>
</linearGradient>
<linearGradient id="paint14_linear_1_4305" x1="357.852" y1="196.169" x2="357.623" y2="236.065" gradientUnits="userSpaceOnUse">
<stop stop-color="#123042"/>
<stop offset="1" stop-color="#274455" stop-opacity="0.91"/>
</linearGradient>
<linearGradient id="paint15_linear_1_4305" x1="354.909" y1="216.958" x2="362.513" y2="216.958" gradientUnits="userSpaceOnUse">
<stop stop-color="#49A5F7"/>
<stop offset="1" stop-color="#1C6CEB"/>
</linearGradient>
<linearGradient id="paint16_linear_1_4305" x1="358.268" y1="203.249" x2="353.271" y2="218.243" gradientUnits="userSpaceOnUse">
<stop stop-color="#123042" stop-opacity="0.89"/>
<stop offset="1" stop-color="#123042"/>
</linearGradient>
<linearGradient id="paint17_linear_1_4305" x1="286.438" y1="82.3283" x2="277.629" y2="155.735" gradientUnits="userSpaceOnUse">
<stop stop-color="#71D2F9"/>
<stop offset="1" stop-color="#51B9F8"/>
</linearGradient>
<linearGradient id="paint18_linear_1_4305" x1="216.836" y1="112.359" x2="188.057" y2="124.634" gradientUnits="userSpaceOnUse">
<stop stop-color="#DFEDF2"/>
<stop offset="1" stop-color="#E8F8FF"/>
</linearGradient>
<linearGradient id="paint19_linear_1_4305" x1="242.702" y1="104.212" x2="242.702" y2="110.113" gradientUnits="userSpaceOnUse">
<stop stop-color="#DFEDF2"/>
<stop offset="1" stop-color="#E8F8FF"/>
</linearGradient>
<linearGradient id="paint20_linear_1_4305" x1="243.059" y1="108.057" x2="243.059" y2="113.96" gradientUnits="userSpaceOnUse">
<stop stop-color="#DFEDF2"/>
<stop offset="1" stop-color="#E8F8FF"/>
</linearGradient>
<linearGradient id="paint21_linear_1_4305" x1="243.392" y1="111.9" x2="243.392" y2="117.801" gradientUnits="userSpaceOnUse">
<stop stop-color="#DFEDF2"/>
<stop offset="1" stop-color="#E8F8FF"/>
</linearGradient>
<linearGradient id="paint22_linear_1_4305" x1="243.739" y1="115.749" x2="243.739" y2="121.65" gradientUnits="userSpaceOnUse">
<stop stop-color="#DFEDF2"/>
<stop offset="1" stop-color="#E8F8FF"/>
</linearGradient>
<linearGradient id="paint23_linear_1_4305" x1="244.079" y1="119.59" x2="244.079" y2="125.49" gradientUnits="userSpaceOnUse">
<stop stop-color="#DFEDF2"/>
<stop offset="1" stop-color="#E8F8FF"/>
</linearGradient>
<linearGradient id="paint24_linear_1_4305" x1="244.43" y1="123.426" x2="244.43" y2="129.326" gradientUnits="userSpaceOnUse">
<stop stop-color="#DFEDF2"/>
<stop offset="1" stop-color="#E8F8FF"/>
</linearGradient>
<linearGradient id="paint25_linear_1_4305" x1="203.475" y1="283.544" x2="203.475" y2="176.756" gradientUnits="userSpaceOnUse">
<stop stop-color="#80794A"/>
<stop offset="1" stop-color="#66613B"/>
</linearGradient>
<linearGradient id="paint26_linear_1_4305" x1="203.472" y1="207.175" x2="212.565" y2="207.175" gradientUnits="userSpaceOnUse">
<stop stop-color="#283770"/>
<stop offset="1" stop-color="#141A5A"/>
</linearGradient>
<linearGradient id="paint27_linear_1_4305" x1="217.206" y1="285.092" x2="217.206" y2="176.579" gradientUnits="userSpaceOnUse">
<stop stop-color="#7D7749"/>
<stop offset="1" stop-color="#66613B"/>
</linearGradient>
<linearGradient id="paint28_linear_1_4305" x1="216.031" y1="134.089" x2="206.672" y2="171.433" gradientUnits="userSpaceOnUse">
<stop stop-color="#499096"/>
<stop offset="1" stop-color="#499096"/>
</linearGradient>
<linearGradient id="paint29_linear_1_4305" x1="214.585" y1="99.6535" x2="191.446" y2="148.682" gradientUnits="userSpaceOnUse">
<stop stop-color="#272E79"/>
<stop offset="1" stop-color="#0B1B38"/>
</linearGradient>
<linearGradient id="paint30_linear_1_4305" x1="376.702" y1="150.994" x2="406.107" y2="191.363" gradientUnits="userSpaceOnUse">
<stop stop-color="#71D2F9"/>
<stop offset="1" stop-color="#51B9F8"/>
</linearGradient>
<linearGradient id="paint31_linear_1_4305" x1="397.515" y1="150.82" x2="397.515" y2="175.708" gradientUnits="userSpaceOnUse">
<stop stop-color="#71D2F9"/>
<stop offset="1" stop-color="#51B9F8"/>
</linearGradient>
<linearGradient id="paint32_linear_1_4305" x1="-3.37505" y1="302.136" x2="-3.37505" y2="314.117" gradientUnits="userSpaceOnUse">
<stop stop-color="#1A2F79"/>
<stop offset="1" stop-color="#160545"/>
</linearGradient>
<linearGradient id="paint33_linear_1_4305" x1="35.0164" y1="302.656" x2="35.0164" y2="314.751" gradientUnits="userSpaceOnUse">
<stop stop-color="#1A2F79"/>
<stop offset="1" stop-color="#160545"/>
</linearGradient>
<linearGradient id="paint34_linear_1_4305" x1="100.459" y1="162.016" x2="106.289" y2="175.761" gradientUnits="userSpaceOnUse">
<stop stop-color="#658F9F"/>
<stop offset="1" stop-color="#256178"/>
</linearGradient>
<linearGradient id="paint35_linear_1_4305" x1="-14.036" y1="171.197" x2="-14.036" y2="178.781" gradientUnits="userSpaceOnUse">
<stop stop-color="#6EC4F7"/>
<stop offset="1" stop-color="#398EF6"/>
</linearGradient>
<linearGradient id="paint36_linear_1_4305" x1="2.27662" y1="156.565" x2="2.27662" y2="204.898" gradientUnits="userSpaceOnUse">
<stop stop-color="#215E75" stop-opacity="0.66"/>
<stop offset="1" stop-color="#215E75"/>
</linearGradient>
<linearGradient id="paint37_linear_1_4305" x1="364.705" y1="149.878" x2="371.659" y2="158.116" gradientUnits="userSpaceOnUse">
<stop stop-color="#F4CFB3"/>
<stop offset="1" stop-color="#F2BB9B"/>
</linearGradient>
<linearGradient id="paint38_linear_1_4305" x1="-25.7324" y1="167.759" x2="-25.7324" y2="202.04" gradientUnits="userSpaceOnUse">
<stop stop-color="#0C1C24"/>
<stop offset="1" stop-color="#51B9F8" stop-opacity="0.45"/>
</linearGradient>
<linearGradient id="paint39_linear_1_4305" x1="74.6359" y1="166.598" x2="69.638" y2="179.093" gradientUnits="userSpaceOnUse">
<stop stop-color="#628D9D"/>
<stop offset="1" stop-color="#215E75"/>
</linearGradient>
<linearGradient id="paint40_linear_1_4305" x1="119.539" y1="-13437.8" x2="119.418" y2="-13455.6" gradientUnits="userSpaceOnUse">
<stop stop-color="#B6DFF6"/>
<stop offset="1" stop-color="#DDEAF7"/>
</linearGradient>
<linearGradient id="paint41_linear_1_4305" x1="117.619" y1="-13439.9" x2="117.318" y2="-13458.1" gradientUnits="userSpaceOnUse">
<stop stop-color="#B6DFF6"/>
<stop offset="1" stop-color="#DDEAF7"/>
</linearGradient>
<linearGradient id="paint42_linear_1_4305" x1="119.788" y1="-13445.9" x2="118.235" y2="-13466.9" gradientUnits="userSpaceOnUse">
<stop stop-color="#B6DFF6"/>
<stop offset="1" stop-color="#DDEAF7"/>
</linearGradient>
<linearGradient id="paint43_linear_1_4305" x1="116.166" y1="-13443.2" x2="115.656" y2="-13462" gradientUnits="userSpaceOnUse">
<stop stop-color="#B6DFF6"/>
<stop offset="1" stop-color="#DDEAF7"/>
</linearGradient>
<linearGradient id="paint44_linear_1_4305" x1="78.1771" y1="105.854" x2="81.3019" y2="116.38" gradientUnits="userSpaceOnUse">
<stop stop-color="#71D2F9"/>
<stop offset="1" stop-color="#51B9F8"/>
</linearGradient>
<linearGradient id="paint45_linear_1_4305" x1="77.161" y1="106.153" x2="80.2859" y2="116.679" gradientUnits="userSpaceOnUse">
<stop stop-color="#71D2F9"/>
<stop offset="1" stop-color="#51B9F8"/>
</linearGradient>
<linearGradient id="paint46_linear_1_4305" x1="76.1449" y1="106.456" x2="79.2698" y2="116.976" gradientUnits="userSpaceOnUse">
<stop stop-color="#71D2F9"/>
<stop offset="1" stop-color="#51B9F8"/>
</linearGradient>
<linearGradient id="paint47_linear_1_4305" x1="362.772" y1="115.11" x2="382.482" y2="139.057" gradientUnits="userSpaceOnUse">
<stop stop-color="#DEAD85"/>
<stop offset="1" stop-color="#DC8B6A"/>
</linearGradient>
<linearGradient id="paint48_linear_1_4305" x1="356.183" y1="118.814" x2="360.364" y2="147.896" gradientUnits="userSpaceOnUse">
<stop stop-color="#DFAD85"/>
<stop offset="1" stop-color="#DFAD85"/>
</linearGradient>
<linearGradient id="paint49_linear_1_4305" x1="149.782" y1="91.2586" x2="120.62" y2="41.3716" gradientUnits="userSpaceOnUse">
<stop stop-color="#B6DFF6"/>
<stop offset="1" stop-color="#DDEAF7"/>
</linearGradient>
<linearGradient id="paint50_linear_1_4305" x1="149.949" y1="91.1586" x2="106.52" y2="64.6216" gradientUnits="userSpaceOnUse">
<stop stop-color="#B6DFF6"/>
<stop offset="1" stop-color="#DDEAF7"/>
</linearGradient>
<linearGradient id="paint51_linear_1_4305" x1="150.964" y1="90.566" x2="121.799" y2="40.6853" gradientUnits="userSpaceOnUse">
<stop stop-color="#B6DFF6"/>
<stop offset="1" stop-color="#DDEAF7"/>
</linearGradient>
<linearGradient id="paint52_linear_1_4305" x1="158.684" y1="86.0427" x2="119.56" y2="76.3301" gradientUnits="userSpaceOnUse">
<stop stop-color="#B6DFF6"/>
<stop offset="1" stop-color="#DDEAF7"/>
</linearGradient>
<linearGradient id="paint53_linear_1_4305" x1="164.768" y1="82.4883" x2="160.358" y2="30.5145" gradientUnits="userSpaceOnUse">
<stop stop-color="#B6DFF6"/>
<stop offset="1" stop-color="#DDEAF7"/>
</linearGradient>
<linearGradient id="paint54_linear_1_4305" x1="140.872" y1="96.4553" x2="101.748" y2="86.7427" gradientUnits="userSpaceOnUse">
<stop stop-color="#B6DFF6"/>
<stop offset="1" stop-color="#DDEAF7"/>
</linearGradient>
<linearGradient id="paint55_linear_1_4305" x1="134.79" y1="100.015" x2="130.38" y2="48.0398" gradientUnits="userSpaceOnUse">
<stop stop-color="#B6DFF6"/>
<stop offset="1" stop-color="#DDEAF7"/>
</linearGradient>
<clipPath id="clip0_1_4305">
<rect width="481" height="336.714" fill="white" transform="translate(0.5)"/>
</clipPath>
</defs>
</svg>
