<svg width="66" height="66" viewBox="0 0 66 66" fill="none" xmlns="http://www.w3.org/2000/svg">
<g clip-path="url(#clip0_1_4257)">
<path d="M32.7255 0.596706C32.2953 0.596704 31.9477 0.944318 31.9477 1.37443L31.9477 5.45227L19.1416 18.2583L19.2742 50.589C19.2742 51.3216 19.5602 52.0113 20.0783 52.5294C20.5964 53.0476 21.2862 53.3336 22.0188 53.3336L44.5321 53.3336C45.2879 53.3336 45.9726 53.0272 46.4693 52.5305C46.9682 52.0317 47.2762 51.342 47.2767 50.578L46.8532 18.8023L33.5032 5.45227L33.5032 1.37443C33.5032 0.944317 33.1556 0.596705 32.7255 0.596706ZM45.3066 19.4557L45.7213 50.589C45.7213 51.2446 45.1878 51.7781 44.5321 51.7781L22.0188 51.7781C21.3632 51.7781 20.8297 51.2446 20.8297 50.5857L20.7004 18.8997L31.9477 7.65234L31.9477 12.9688C31.2245 13.1157 30.5347 13.4655 29.9754 14.0249C28.459 15.5413 28.459 18.0086 29.9754 19.525C31.4918 21.0414 33.9591 21.0414 35.4755 19.525C36.9919 18.0086 36.9919 15.5413 35.4755 14.0249C34.9162 13.4655 34.2265 13.1157 33.5032 12.9688L33.5032 7.65234L45.3066 19.4557ZM34.3755 15.1249C35.2852 16.0346 35.2852 17.5153 34.3755 18.425C33.4658 19.3347 31.9851 19.3347 31.0754 18.425C30.1657 17.5153 30.1657 16.0346 31.0754 15.1249C31.3295 14.8708 31.6298 14.6959 31.9477 14.5837L31.9477 16.7749C31.9477 17.2051 32.2953 17.5527 32.7255 17.5527C32.94 17.5527 33.1347 17.4658 33.2755 17.325C33.4163 17.1842 33.5032 16.9895 33.5032 16.7749L33.5032 14.5837C33.8216 14.6953 34.1214 14.8708 34.3755 15.1249Z" fill="black"/>
<g clip-path="url(#clip1_1_4257)">
<path d="M38.057 29.8885L33.2565 34.6891C32.2194 35.7262 31.7008 36.2448 31.0564 36.2448C30.4121 36.2448 29.8935 35.7262 28.8564 34.6891L27.5562 33.3888" stroke="black" stroke-width="1.55569" stroke-linecap="round"/>
</g>
</g>
<defs>
<clipPath id="clip0_1_4257">
<rect width="46.669" height="46.669" fill="white" transform="translate(0 33) rotate(-45)"/>
</clipPath>
<clipPath id="clip1_1_4257">
<rect width="12.4455" height="12.4455" fill="white" transform="translate(26.7783 26.7772)"/>
</clipPath>
</defs>
</svg>
