<svg width="343" height="203" viewBox="0 0 343 203" fill="none" xmlns="http://www.w3.org/2000/svg">
<path d="M73.9541 35.1391C75.7816 35.1391 77.2632 33.6576 77.2632 31.8301C77.2632 30.0025 75.7816 28.521 73.9541 28.521C72.1265 28.521 70.645 30.0025 70.645 31.8301C70.645 33.6576 72.1265 35.1391 73.9541 35.1391Z" fill="white"/>
<path d="M11.2339 197.024C11.2339 197.024 -19.6018 154.235 20.902 102.322C61.4058 50.4078 105.551 70.4912 138.079 37.7925C170.607 5.09388 189.415 -4.1609 246.327 3.18827C305.101 10.777 366.949 91.4114 333.641 198.502L11.2339 197.024Z" fill="#F4EDE4"/>
<g style="mix-blend-mode:multiply" opacity="0.35">
<path d="M291.439 194.6H256.124C256.124 194.6 264.978 182.008 281 180.08C282.183 179.938 283.265 179.79 284.259 179.63L291.439 194.6Z" fill="#40BB3B"/>
</g>
<g style="mix-blend-mode:multiply" opacity="0.23">
<path d="M265.842 192.376C258.579 195.214 250.234 194.528 250.234 194.528L233.928 194.599C233.928 194.599 234.265 193.357 234.892 191.417L245.715 171.439C250.618 168.446 256.994 170.912 259.33 167.725L265.842 192.376Z" fill="#40BB3B"/>
</g>
<g style="mix-blend-mode:multiply" opacity="0.35">
<path d="M69.7324 194.6H105.047C105.047 194.6 96.1932 182.008 80.1712 180.08C78.9884 179.938 77.906 179.79 76.9124 179.63L69.7324 194.6Z" fill="#40BB3B"/>
</g>
<g style="mix-blend-mode:multiply" opacity="0.23">
<path d="M95.3296 192.376C102.592 195.214 110.938 194.528 110.938 194.528L127.243 194.599C127.243 194.599 126.906 193.357 126.279 191.417L115.456 171.439C110.553 168.446 104.177 170.912 101.841 167.725L95.3296 192.376Z" fill="#40BB3B"/>
</g>
<path d="M214.99 66.2115L221.669 54.6436L215.163 50.8862C215.66 48.1144 215.602 45.2715 214.993 42.5221L221.255 38.9073L214.576 27.3388L208.192 31.0252C206.021 29.117 203.486 27.6684 200.74 26.7669V19.8306H187.381V26.771C184.495 27.7176 181.844 29.2667 179.602 31.3156L173.961 28.0586L167.282 39.6259L173.036 42.9486C172.43 46 172.494 49.1468 173.225 52.1708L167.697 55.3645L174.376 66.933L180.262 63.5346C182.583 65.4897 185.293 66.9285 188.212 67.7557V74.4389H201.569V67.2145C204.273 66.2005 206.745 64.6504 208.835 62.6575L214.99 66.2115ZM193.511 61.6343C190.684 61.4456 187.974 60.4347 185.715 58.726C183.455 57.0174 181.744 54.6854 180.792 52.0171C179.84 49.3487 179.689 46.4603 180.357 43.7072C181.025 40.954 182.484 38.4562 184.553 36.521C186.622 34.5858 189.211 33.2976 192.003 32.8149C194.795 32.3321 197.667 32.6759 200.265 33.8039C202.864 34.9319 205.077 36.7949 206.63 39.1638C208.184 41.5326 209.012 44.304 209.011 47.1371C209.001 49.1239 208.586 51.0878 207.79 52.9085C206.995 54.7292 205.836 56.3683 204.385 57.7255C202.934 59.0827 201.221 60.1294 199.351 60.8015C197.482 61.4736 195.494 61.757 193.511 61.6343Z" stroke="#DB8363" stroke-width="1.18287" stroke-miterlimit="10"/>
<path d="M245.058 41.4837L251.3 37.0745L248.82 33.5638C249.742 32.2427 250.394 30.752 250.736 29.1777L254.856 28.8003L254.158 21.1904L249.959 21.5748C249.288 20.064 248.319 18.7045 247.108 17.5785L248.771 13.9737L241.832 10.7728L240.168 14.3806C238.443 14.1808 236.694 14.3501 235.038 14.8774L232.887 11.8285L226.645 16.2377L228.838 19.3427C227.792 20.7826 227.071 22.4328 226.726 24.1789L223.09 24.5124L223.787 32.1224L227.66 31.7676C228.396 33.3394 229.459 34.7364 230.778 35.8656L229.175 39.3385L236.115 42.54L237.846 38.7861C239.494 38.9075 241.149 38.6945 242.712 38.1598L245.058 41.4837ZM236.412 32.2094C235.314 31.7025 234.391 30.8813 233.759 29.8498C233.128 28.8183 232.817 27.6227 232.865 26.4143C232.913 25.2059 233.318 24.0389 234.03 23.0609C234.741 22.0828 235.726 21.3377 236.861 20.9197C237.996 20.5017 239.229 20.4296 240.405 20.7125C241.581 20.9954 242.647 21.6206 243.467 22.5091C244.288 23.3975 244.826 24.5094 245.015 25.7039C245.203 26.8985 245.034 28.1222 244.527 29.2203C243.847 30.6926 242.61 31.8346 241.088 32.3951C239.566 32.9557 237.884 32.8889 236.412 32.2094Z" fill="#DEAD85"/>
<path d="M287.606 58.6112H215.849C215.178 58.6112 214.535 58.8777 214.06 59.3521C213.586 59.8265 213.32 60.4699 213.32 61.1408V105.057C213.32 105.389 213.385 105.718 213.512 106.025C213.639 106.332 213.825 106.611 214.06 106.846C214.295 107.081 214.574 107.268 214.881 107.395C215.188 107.522 215.517 107.587 215.849 107.587H223.173C222.329 111.404 220.461 115.996 216.322 118.189C216.322 118.189 230.498 116.48 233.757 107.587H287.606C287.938 107.587 288.267 107.522 288.574 107.395C288.881 107.268 289.16 107.081 289.395 106.846C289.63 106.611 289.816 106.332 289.943 106.025C290.07 105.718 290.136 105.389 290.136 105.057V61.1414C290.136 60.8091 290.07 60.4801 289.943 60.1732C289.816 59.8662 289.63 59.5873 289.395 59.3523C289.16 59.1173 288.881 58.931 288.574 58.8038C288.267 58.6766 287.938 58.6112 287.606 58.6112Z" fill="#DEAD85"/>
<path d="M245.55 66.3893H222.783V68.4972H245.55V66.3893Z" fill="white"/>
<path d="M264.417 73.2405H222.783V75.3484H264.417V73.2405Z" fill="white"/>
<path d="M283.285 80.0918H222.783V82.6214H283.285V80.0918Z" fill="white"/>
<path d="M283.286 87.3645H253.562V89.8941H283.286V87.3645Z" fill="white"/>
<path d="M250.926 87.3645H222.783V89.8941H250.926V87.3645Z" fill="white"/>
<path d="M261.466 94.6372H222.783V96.8155H261.466V94.6372Z" fill="white"/>
<path d="M283.285 73.2405H267.508V75.3484H283.285V73.2405Z" fill="white"/>
<path d="M98.7214 15.2725H49.1852C48.0018 15.2725 47.0425 16.2318 47.0425 17.4152V52.1419C47.0425 53.3253 48.0018 54.2847 49.1852 54.2847H98.7214C99.9049 54.2847 100.864 53.3253 100.864 52.1419V17.4152C100.864 16.2318 99.9049 15.2725 98.7214 15.2725Z" fill="white" stroke="#393BC6" stroke-width="0.946295" stroke-miterlimit="10"/>
<path d="M98.7214 63.578H49.1852C48.0018 63.578 47.0425 64.5374 47.0425 65.7208V100.447C47.0425 101.631 48.0018 102.59 49.1852 102.59H98.7214C99.9049 102.59 100.864 101.631 100.864 100.447V65.7208C100.864 64.5374 99.9049 63.578 98.7214 63.578Z" fill="white" stroke="#EA711F" stroke-width="0.946295" stroke-miterlimit="10"/>
<path d="M98.7214 111.04H49.1852C48.0018 111.04 47.0425 111.999 47.0425 113.183V147.909C47.0425 149.093 48.0018 150.052 49.1852 150.052H98.7214C99.9049 150.052 100.864 149.093 100.864 147.909V113.183C100.864 111.999 99.9049 111.04 98.7214 111.04Z" fill="white" stroke="#499096" stroke-width="0.946295" stroke-miterlimit="10"/>
<path d="M87.7568 74.9941V91.1711C87.7569 91.3145 87.7287 91.4565 87.6739 91.589C87.619 91.7215 87.5386 91.8418 87.4372 91.9432C87.3358 92.0446 87.2154 92.1251 87.0829 92.1799C86.9504 92.2347 86.8084 92.2629 86.665 92.2628H61.2889C61.1458 92.2628 61.0042 92.2344 60.872 92.1795C60.7399 92.1245 60.6199 92.044 60.519 91.9426C60.418 91.8411 60.3381 91.7208 60.2838 91.5884C60.2295 91.456 60.2018 91.3142 60.2025 91.1711V74.9941C60.2013 74.901 60.2135 74.8082 60.2385 74.7185C60.298 74.4851 60.4335 74.2781 60.6238 74.1303C60.814 73.9825 61.048 73.9023 61.2889 73.9024H86.665C86.8803 73.9015 87.0909 73.9649 87.27 74.0844C87.4491 74.2038 87.5885 74.374 87.6705 74.573C87.7283 74.7059 87.7577 74.8493 87.7568 74.9941Z" fill="#DB8363" stroke="#EA711F" stroke-width="0.946295" stroke-miterlimit="10"/>
<path d="M87.6693 74.575L75.4804 85.0215C75.0611 85.3818 74.527 85.5808 73.9741 85.5826C73.4212 85.5845 72.8858 85.3891 72.4641 85.0315L60.2385 74.7205C60.298 74.487 60.4335 74.28 60.6237 74.1322C60.8139 73.9844 61.048 73.9042 61.2889 73.9043H86.665C86.8801 73.9037 87.0904 73.9672 87.2693 74.0867C87.4482 74.2061 87.5874 74.3761 87.6693 74.575Z" fill="white" stroke="#EA711F" stroke-width="0.946295" stroke-miterlimit="10"/>
<path d="M73.9549 47.1357C80.2976 47.1357 85.4394 41.9939 85.4394 35.6512C85.4394 29.3085 80.2976 24.1667 73.9549 24.1667C67.6122 24.1667 62.4705 29.3085 62.4705 35.6512C62.4705 41.9939 67.6122 47.1357 73.9549 47.1357Z" fill="#3D42B0"/>
<path d="M71.9069 36.4041H76.0008C76.8207 36.4041 77.607 36.7298 78.1867 37.3095C78.7665 37.8893 79.0922 38.6756 79.0922 39.4955V41.8453C79.0922 41.9684 79.0679 42.0904 79.0208 42.2042C78.9737 42.318 78.9046 42.4214 78.8175 42.5085C78.7304 42.5956 78.627 42.6647 78.5131 42.7119C78.3993 42.759 78.2774 42.7833 78.1542 42.7833H69.7534C69.6303 42.7833 69.5083 42.759 69.3945 42.7119C69.2807 42.6647 69.1773 42.5956 69.0902 42.5085C69.0031 42.4214 68.934 42.318 68.8868 42.2042C68.8397 42.0904 68.8154 41.9684 68.8154 41.8453V39.4955C68.8154 38.6756 69.1411 37.8893 69.7209 37.3095C70.3006 36.7298 71.087 36.4041 71.9069 36.4041V36.4041Z" fill="white"/>
<path d="M73.954 142.101C80.3356 142.101 85.5089 136.928 85.5089 130.546C85.5089 124.165 80.3356 118.991 73.954 118.991C67.5725 118.991 62.3992 124.165 62.3992 130.546C62.3992 136.928 67.5725 142.101 73.954 142.101Z" fill="white" stroke="#499096" stroke-width="0.946295" stroke-miterlimit="10"/>
<path d="M76.1572 127.966C75.5778 127.647 75.0541 127.236 74.6064 126.749C74.3761 126.509 74.2288 126.201 74.1862 125.871C74.1436 125.541 74.208 125.206 74.3698 124.916C74.8006 124.156 75.3384 123.461 75.9667 122.854C76.2389 122.59 76.5976 122.433 76.9765 122.412C77.3555 122.391 77.7291 122.508 78.0285 122.742C79.028 123.52 80.4232 124.852 80.642 126.349C81.1625 129.922 78.8789 134.347 74.5798 137.232C71.9243 139.014 69.5289 138.962 67.9628 138.158C67.7798 138.06 67.6183 137.926 67.4879 137.764C67.3574 137.602 67.2606 137.416 67.2031 137.216C67.1457 137.016 67.1287 136.807 67.1532 136.601C67.1778 136.395 67.2433 136.195 67.346 136.015C67.7228 135.315 68.1663 134.654 68.6702 134.04C68.9148 133.752 69.2552 133.561 69.629 133.503C70.0028 133.445 70.3849 133.524 70.7053 133.725C71.0087 133.916 71.2963 134.131 71.5653 134.369C71.8403 134.611 72.1916 134.75 72.5582 134.761C72.9249 134.772 73.2838 134.654 73.5726 134.428C74.927 133.37 76.9964 131.411 76.9911 129.317C76.9894 129.037 76.9106 128.763 76.7635 128.524C76.6165 128.286 76.4067 128.093 76.1572 127.966Z" fill="#499096"/>
<path d="M112.301 15.2725V149.516" stroke="#020331" stroke-width="1.18287" stroke-miterlimit="10"/>
<path d="M112.299 39.0555C114.229 39.0555 115.794 37.4908 115.794 35.5607C115.794 33.6306 114.229 32.0659 112.299 32.0659C110.369 32.0659 108.804 33.6306 108.804 35.5607C108.804 37.4908 110.369 39.0555 112.299 39.0555Z" fill="white" stroke="#020331" stroke-width="1.7743" stroke-miterlimit="10"/>
<path d="M152.922 167.465C152.922 167.465 151.26 172.805 148.776 178.732C146.073 185.16 142.406 192.27 138.84 193.967C131.991 197.238 125.242 189.33 119.659 178.578C114.076 167.826 107.428 145.168 107.428 145.168L117.128 140.211C123.137 153.755 130.725 165.738 132.482 171.682C133.432 169.415 134.132 167.051 134.569 164.632C134.806 163.478 135.031 162.248 135.255 160.929L143.932 164.141L152.922 167.465Z" fill="#FABC93"/>
<path opacity="0.61" d="M148.776 178.732C145.085 177.85 139.894 175.505 136.415 172.044L140.524 183.144L132.481 171.682C133.431 169.415 134.131 167.051 134.568 164.632L143.931 164.141L152.921 167.465C152.921 167.465 151.26 172.805 148.776 178.732Z" fill="#DE6F25"/>
<path d="M117.306 140.614L107.429 145.168L107.009 144.21C103.447 142.744 99.7821 141.542 96.0439 140.614C89.5795 138.981 85.4336 134.309 85.9304 133.043C86.0428 132.754 86.4923 132.813 87.1133 133.073C87.1251 133.073 87.131 133.079 87.1428 133.085C87.338 133.174 87.5509 133.274 87.7757 133.392C85.7293 131.671 84.4873 130.14 85.0137 129.814C85.4572 129.542 87.2375 130.352 88.9585 131.257C85.8772 129.081 83.6593 126.396 84.7179 125.875C85.1793 125.651 86.6874 126.591 88.2488 127.354C89.3962 127.91 90.6027 128.483 91.5194 128.927C88.8521 127.46 86.5337 125.177 87.1251 124.474C87.823 123.628 91.0581 125.455 96.6117 127.916C97.9383 128.489 99.304 128.967 100.699 129.347C102.023 129.72 103.348 130.027 104.584 130.27C105.489 130.453 106.353 130.601 107.11 130.719C109.02 131.027 110.309 131.145 110.309 131.145L110.303 131.139C109.558 129.708 108.587 128.406 107.429 127.283C105.809 125.875 105.602 123.137 106.027 122.646C106.453 122.155 107.5 123.699 110.871 125.455C113.578 126.846 115.661 129.205 116.709 132.062C117.903 135.155 117.306 140.614 117.306 140.614Z" fill="#FABC93"/>
<path opacity="0.61" d="M117.306 140.613C117.306 140.613 114.756 143.479 111.752 144.533C111.752 144.533 115.833 145.07 118.537 143.3L117.306 140.613Z" fill="#DE6F25"/>
<path d="M213.993 152.034C213.893 153.347 213.816 154.128 213.816 154.128L212.901 176.117L212.132 194.6H156.59L154.757 170.883L154.101 166.465C146.707 167.667 139.135 165.947 132.986 161.669C135.541 153.122 141.113 130.441 147.275 125.875C154.97 120.185 165.255 118.778 165.255 118.778L195.933 119.411C195.933 119.411 207.779 120.996 211.99 125.354C215.448 128.927 214.461 146.025 213.993 152.034Z" fill="#215E75"/>
<path opacity="0.75" d="M157.261 171.845C157.261 171.845 172.579 187.939 200.968 182.148L198.439 190.692L158.103 197.086L157.261 171.845Z" fill="#123042"/>
<path d="M154.756 170.884C154.324 170.937 153.898 170.978 153.478 171.02C153.384 171.025 153.289 171.037 153.2 171.043C144.843 171.788 139.544 170.304 136.333 168.63L136.262 168.595C134.593 167.797 133.14 166.613 132.021 165.141C132.012 165.122 132.002 165.105 131.991 165.087C131.991 165.087 132.352 163.792 132.985 161.669C139.134 165.948 146.705 167.668 154.099 166.465L154.756 170.884Z" fill="#DEE9FC"/>
<path opacity="0.75" d="M154.755 170.883C152.722 171.128 150.675 171.235 148.627 171.203C148.166 166.317 149.905 149.592 152.543 135.788C151.561 152.159 154.755 170.883 154.755 170.883Z" fill="#163C4F"/>
<path opacity="0.75" d="M213.992 152.034C213.892 153.347 213.815 154.128 213.815 154.128L212.943 175.058C208.417 175.53 203.86 175.631 199.317 175.359C194.221 155.812 202.083 133.75 202.083 133.75C202.083 133.75 208.161 143.796 213.992 152.034Z" fill="#163C4F"/>
<path d="M190.633 114.923C190.633 114.923 194.915 115.758 195.929 119.412C195.929 119.412 192.385 130.198 182.161 135.785C182.161 135.785 180.441 130.444 176.715 128.196C176.715 128.196 174.045 127.879 169.759 135.047C167.798 132.87 166.37 130.268 165.588 127.444C164.806 124.621 164.692 121.654 165.254 118.779C165.254 118.779 168.566 114.93 173.096 114.923C177.626 114.915 190.633 114.923 190.633 114.923Z" fill="#DEE9FC"/>
<path d="M191.122 118.075C191.122 118.075 186.06 125.734 177.206 125.876C175.529 125.296 173.996 124.362 172.711 123.137C171.426 121.913 170.42 120.426 169.76 118.779C169.76 118.779 172.078 115.827 171.096 109.292L190.815 96.251C190.815 96.251 190.697 97.2209 190.566 98.8237C190.229 103.005 189.803 111.469 191.122 118.075Z" fill="#FABC93"/>
<path opacity="0.61" d="M190.815 96.251C190.778 97.1124 190.695 97.9712 190.566 98.8237C189.727 104.732 186.012 118.779 169.76 118.779C169.76 118.779 172.078 115.827 171.096 109.292L190.815 96.251Z" fill="#DE6F25"/>
<path d="M163.958 84.9219H162.297V99.5439H163.958V84.9219Z" fill="white" stroke="#EF184C" stroke-width="0.295717" stroke-miterlimit="10"/>
<path d="M162.297 99.5433C165.448 99.5433 168.002 96.2702 168.002 92.2326C168.002 88.195 165.448 84.9219 162.297 84.9219C159.146 84.9219 156.591 88.195 156.591 92.2326C156.591 96.2702 159.146 99.5433 162.297 99.5433Z" fill="#86F7F5"/>
<path d="M163.977 99.5433C167.128 99.5433 169.682 96.2702 169.682 92.2326C169.682 88.195 167.128 84.9219 163.977 84.9219C160.825 84.9219 158.271 88.195 158.271 92.2326C158.271 96.2702 160.825 99.5433 163.977 99.5433Z" fill="#499096"/>
<path d="M158.655 88.7396C158.655 88.7396 156.831 82.1155 158.719 73.1488L165.875 75.6695L158.655 88.7396Z" fill="#DEE9FC"/>
<path d="M193.926 88.7745C193.926 88.7745 197.164 79.1471 196.04 74.861C195.736 73.6521 195.075 72.5629 194.143 71.7355C193.211 70.908 192.051 70.3809 190.815 70.223C190.815 70.223 192.737 65.0935 182.337 60.8783C171.938 56.6632 159.008 68.6782 156.196 67.484C156.196 67.484 156.716 72.2457 160.604 71.2621C158.937 72.5171 157.673 74.2326 156.969 76.1971C155.774 79.4996 153.877 79.8509 153.877 79.8509C153.877 79.8509 157.32 82.3811 159.358 79.3595C159.358 79.3595 157.882 81.3266 158.936 85.5784C159.288 86.8682 159.891 88.0757 160.711 89.1314C161.531 90.187 162.552 91.07 163.715 91.7293L190.347 94.3316L193.926 88.7745Z" fill="#020331"/>
<path d="M195.522 92.175C195.293 93.2764 194.707 94.2718 193.857 95.0081C193.006 95.7444 191.937 96.1807 190.814 96.25C190.814 96.25 191.293 98.6453 187.431 104.057C183.569 109.469 174.781 115.826 167.476 108.558C161.627 102.738 160.882 83.7885 160.882 83.7885L161.716 80.2517L161.763 80.0447C163.135 84.788 173.728 83.5756 173.728 83.5756C169.564 82.9427 167.299 79.3586 167.299 79.3586C172.569 84.8412 182.321 81.7835 182.321 81.7835C182.48 83.2254 183.051 84.5909 183.966 85.7166C184.923 86.8654 186.205 87.6982 187.644 88.106L190.045 92.9557L190.596 88.6856C193.05 86.2962 196.368 88.2361 195.522 92.175Z" fill="#FABC93"/>
<path d="M193.338 84.9219H191.676V99.5439H193.338V84.9219Z" fill="#393BC6"/>
<path d="M192.507 95.8417L189.894 103.778C189.413 105.24 188.483 106.512 187.236 107.414C185.99 108.316 184.49 108.802 182.951 108.802H175.662" stroke="#499096" stroke-width="1.18287" stroke-miterlimit="10"/>
<path d="M176.652 109.961H173.371C173.21 109.961 173.051 109.929 172.903 109.868C172.755 109.806 172.62 109.716 172.506 109.603C172.393 109.489 172.303 109.355 172.241 109.206C172.18 109.058 172.148 108.899 172.148 108.738C172.148 108.414 172.277 108.103 172.506 107.873C172.736 107.644 173.047 107.515 173.371 107.515H176.652C176.813 107.515 176.972 107.547 177.12 107.608C177.269 107.67 177.403 107.76 177.517 107.873C177.63 107.987 177.721 108.122 177.782 108.27C177.843 108.419 177.875 108.578 177.875 108.738C177.875 108.899 177.843 109.058 177.782 109.206C177.721 109.354 177.63 109.489 177.517 109.603C177.403 109.716 177.269 109.806 177.12 109.868C176.972 109.929 176.813 109.961 176.652 109.961Z" fill="#DEE9FC"/>
<path d="M197.38 92.353C197.28 96.3895 194.645 99.5987 191.495 99.5206C188.345 99.4425 185.872 96.1062 185.973 92.0685C186.073 88.0308 188.707 84.8229 191.858 84.9009C195.009 84.979 197.48 88.3165 197.38 92.353Z" fill="#499096"/>
<path d="M193.926 85.5127C193.926 85.5127 194.441 74.2991 187.326 68.4493C180.211 62.5994 170.25 63.0211 165.507 65.8144C159.351 69.4399 158.655 73.4019 158.655 73.4019C158.655 73.4019 164.451 65.2342 174.256 66.7104C184.06 68.1867 189.757 74.408 190.119 86.8949L193.926 85.5127Z" fill="#DEE9FC"/>
<path d="M199.059 92.3952C199.159 88.3589 196.687 85.0234 193.537 84.9452C190.387 84.867 187.752 88.0757 187.651 92.1121C187.551 96.1484 190.024 99.4839 193.174 99.5621C196.324 99.6403 198.959 96.4316 199.059 92.3952Z" fill="#86F7F5"/>
<path d="M198.545 92.3819C198.468 95.5106 196.422 98.0005 193.979 97.9414C193.593 97.9287 193.212 97.8548 192.849 97.7226C190.974 97.0306 189.632 94.7891 189.703 92.1631C189.768 89.614 191.128 87.4967 192.95 86.8224C193.37 86.6662 193.815 86.5919 194.263 86.6036C196.705 86.6687 198.622 89.2532 198.545 92.3819Z" fill="#499096"/>
<path d="M196.096 92.3821C196.031 94.9312 194.671 97.0485 192.849 97.7228C190.974 97.0308 189.632 94.7893 189.703 92.1633C189.768 89.6142 191.128 87.4969 192.95 86.8226C194.825 87.5146 196.163 89.7561 196.096 92.3821Z" fill="#DEE9FC"/>
<path d="M227.17 188.277C226.75 192.388 224.745 194.6 219.263 194.6H176.153V188.591L207.878 179.737L207.168 175.437L205.796 167.092L223.267 160.929C223.267 160.929 224.266 166.294 225.26 172.326C226.326 178.85 227.391 186.142 227.17 188.277Z" fill="#FABC93"/>
<path opacity="0.61" d="M225.261 172.326C219.631 174.55 212.522 175.26 207.169 175.437L205.797 167.092L223.268 160.929C223.268 160.929 224.266 166.294 225.261 172.326Z" fill="#DE6F25"/>
<path d="M227.17 164.667C215.365 173.237 203.418 170.428 203.418 170.428C202.874 169.003 202.401 167.548 201.993 166.075C196.203 145.126 203.85 120.197 211.988 125.355C218.677 129.589 224.036 150.461 226.171 159.954C226.821 162.834 227.17 164.667 227.17 164.667Z" fill="#215E75"/>
<path d="M227.17 164.667C215.365 173.237 203.418 170.428 203.418 170.428C202.874 169.002 202.401 167.548 201.993 166.075C201.993 166.075 216.536 167.524 226.171 159.953C226.821 162.834 227.17 164.667 227.17 164.667Z" fill="#DEE9FC"/>
<path d="M176.153 188.591L165.549 185.761C165.037 185.624 164.5 185.598 163.977 185.685C163.453 185.772 162.954 185.97 162.514 186.266L152.359 193.074C152.211 193.174 152.099 193.318 152.039 193.486C151.979 193.655 151.975 193.838 152.027 194.009C152.079 194.179 152.184 194.329 152.328 194.436C152.471 194.542 152.645 194.6 152.824 194.6H160.63C160.923 194.6 161.214 194.563 161.498 194.489L164.839 193.617C164.839 193.617 167.298 195.091 176.152 194.6L176.153 188.591Z" fill="#FABC93"/>
<path d="M179.76 194.6H158.047L158.258 190.806L177.598 192.334L179.76 194.6Z" fill="#EA711F"/>
<path d="M163.917 194.6H101.319L92.9268 152.105C92.8794 151.864 92.8859 151.615 92.946 151.377C93.0061 151.139 93.1181 150.917 93.2742 150.727C93.4302 150.537 93.6263 150.384 93.8485 150.278C94.0706 150.173 94.3133 150.119 94.5591 150.118H153.188C153.736 150.118 154.267 150.309 154.69 150.657C155.113 151.006 155.402 151.491 155.506 152.029L163.917 194.6Z" fill="#123042"/>
<path d="M161.069 194.6H101.317C101.317 194.6 101.305 194.547 101.287 194.44L92.9243 152.105C92.8769 151.864 92.8835 151.615 92.9436 151.377C93.0036 151.139 93.1157 150.917 93.2717 150.727C93.4277 150.537 93.6239 150.384 93.846 150.278C94.0682 150.173 94.3109 150.119 94.5567 150.118H150.335C150.884 150.118 151.415 150.308 151.839 150.657C152.263 151.005 152.553 151.49 152.659 152.029L161.069 194.6Z" fill="#020331"/>
<g style="mix-blend-mode:screen" opacity="0.27">
<path d="M103.062 192.506L95.4288 153.867C95.3857 153.647 95.3917 153.42 95.4465 153.202C95.5014 152.985 95.6037 152.782 95.7461 152.608C95.8884 152.435 96.0674 152.295 96.2701 152.199C96.4729 152.103 96.6943 152.053 96.9187 152.053H147.828C97.1617 153.165 102.608 189.877 103.062 192.506Z" fill="#123042"/>
</g>
<path d="M128.722 173.645C128.822 174.085 128.82 174.543 128.715 174.982C128.61 175.421 128.406 175.83 128.119 176.178C127.831 176.526 127.467 176.803 127.055 176.988C126.644 177.173 126.195 177.262 125.744 177.246C124.737 177.211 123.771 176.836 123.004 176.182C122.238 175.528 121.715 174.634 121.521 173.645C121.421 173.205 121.423 172.748 121.528 172.308C121.632 171.869 121.836 171.46 122.124 171.112C122.412 170.764 122.776 170.487 123.187 170.302C123.599 170.116 124.048 170.028 124.499 170.044C125.506 170.079 126.472 170.454 127.239 171.108C128.005 171.762 128.528 172.656 128.722 173.645Z" fill="#86F7F5"/>
<path d="M340.517 194.6H6.39746V202.401H340.517V194.6Z" fill="#933306"/>
<path d="M180.143 202.401H179.682C179.043 200.124 178.02 198.592 176.535 197.669C173.584 195.836 168.77 196.291 159.922 199.237C146.461 203.726 126.352 201.987 116.025 197.545C113.182 196.356 110.256 195.372 107.272 194.6H108.94C111.41 195.292 113.834 196.14 116.197 197.137C126.452 201.549 146.413 203.276 159.786 198.817C168.77 195.818 173.69 195.381 176.766 197.291C178.374 198.29 179.475 199.941 180.143 202.401Z" fill="#BC561D"/>
<path d="M163.286 194.6C160.489 196.232 155.385 198.456 148.057 198.722C147.761 198.734 147.46 198.74 147.164 198.74C141.196 198.74 134.348 196.694 128.977 194.6H130.202C135.625 196.617 142.314 198.48 148.039 198.279C153.04 198.174 157.948 196.915 162.382 194.6H163.286Z" fill="#BC561D"/>
<path d="M176.778 202.401H176.275C175.636 201.123 174.583 199.822 172.904 199.668C170.916 199.485 168.894 201.04 167.457 202.401H166.824C168.356 200.881 170.591 199.024 172.945 199.231C174.931 199.408 176.109 200.958 176.778 202.401Z" fill="#BC561D"/>
<path d="M305.101 202.401H304.598C300.813 195.073 290.007 193.819 270.981 198.397C248.802 203.743 223.424 199.018 220.579 198.456C220.582 198.638 220.537 198.817 220.449 198.976C219.662 200.39 215.54 201.236 208.833 201.36C208.549 201.36 208.265 201.366 207.987 201.366C196.803 201.366 190.552 197.38 187.553 194.6H188.216C191.356 197.368 197.696 201.123 208.827 200.916C218.237 200.745 219.804 199.225 220.058 198.764C220.115 198.665 220.142 198.553 220.136 198.44C220.131 198.327 220.094 198.217 220.029 198.125C219.313 196.942 215.522 195.771 210.448 195.877C206.142 195.96 204.303 196.599 204.037 197.125C204.014 197.165 204.005 197.212 204.011 197.257C204.016 197.303 204.035 197.346 204.066 197.38C204.521 198.036 207.23 198.787 211.619 198.296C211.676 198.292 211.733 198.31 211.778 198.346C211.823 198.382 211.853 198.434 211.861 198.491C211.868 198.55 211.851 198.609 211.815 198.656C211.778 198.702 211.725 198.732 211.666 198.74C207.319 199.219 204.32 198.527 203.699 197.634C203.624 197.533 203.579 197.413 203.568 197.287C203.558 197.162 203.583 197.036 203.64 196.924C204.09 196.055 206.568 195.511 210.442 195.434C215.226 195.333 219.503 196.398 220.407 197.9C220.423 197.924 220.435 197.95 220.443 197.977C221.608 198.214 247.968 203.483 270.875 197.971C290.319 193.281 301.316 194.677 305.101 202.401Z" fill="#BC561D"/>
<path d="M266.996 194.6C260.827 196.67 253.032 198.533 244.971 198.533C238.683 198.636 232.456 197.29 226.772 194.6H227.801C240.476 200.408 255.096 197.936 265.57 194.6H266.996Z" fill="#BC561D"/>
<path d="M112.298 202.401H111.518C108.257 200.285 104.659 198.742 100.878 197.841C93.9461 196.161 83.0933 195.771 69.2064 202.401H68.2009C82.6024 195.292 93.8633 195.682 101.008 197.415C105.045 198.371 108.872 200.061 112.298 202.401Z" fill="#BC561D"/>
<path d="M105.421 202.401H104.605C100.619 199.905 92.8471 197.273 80.7995 202.401H79.6995C93.06 196.38 101.441 199.686 105.421 202.401Z" fill="#BC561D"/>
<path d="M98.8627 202.401H98.1766C97.2897 201.639 96.184 201.177 95.0184 201.082C93.7107 201.064 92.4433 201.534 91.4638 202.401H90.7837C91.3394 201.837 92.0027 201.391 92.7341 201.088C93.4656 200.785 94.2504 200.632 95.042 200.639C96.4812 200.766 97.8316 201.389 98.8627 202.401Z" fill="#BC561D"/>
<path d="M70.521 194.6C64.2214 197.89 57.3328 199.9 50.2526 200.514C49.531 200.567 48.8213 200.597 48.1352 200.597C42.0943 200.607 36.2441 198.483 31.6165 194.6H32.3203C37.3633 198.652 43.7706 200.61 50.2171 200.071C56.9493 199.494 63.5095 197.637 69.5452 194.6H70.521Z" fill="#BC561D"/>
<path d="M57.7871 194.6C56.4209 196.51 54.1675 198.19 50.4533 198.338C50.2759 198.344 50.1044 198.344 49.9328 198.344C48.6251 198.375 47.3241 198.147 46.105 197.673C44.8858 197.199 43.7726 196.488 42.8297 195.582C42.5094 195.272 42.2072 194.944 41.9248 194.6H42.4867C43.4598 195.735 44.6865 196.624 46.0675 197.197C47.4486 197.769 48.945 198.008 50.4355 197.894C53.7949 197.758 55.9063 196.309 57.2252 194.6H57.7871Z" fill="#BC561D"/>
<path d="M26.0665 202.401H25.5283C22.8905 198.562 19.1231 196.12 15.7341 194.6H16.7928C20.5181 196.337 23.7175 199.028 26.0665 202.401Z" fill="#BC561D"/>
<path opacity="0.61" d="M340.517 194.6H6.39746V197.025H340.517V194.6Z" fill="#DE6F25"/>
</svg>
