<svg width="464" height="358" viewBox="0 0 464 358" fill="none" xmlns="http://www.w3.org/2000/svg">
<g style="mix-blend-mode:multiply">
<path d="M108.272 336.508C105.497 333.6 64.7983 252.139 110.122 177.467C155.446 102.795 269.22 111.524 314.544 140.616C359.868 169.708 382.069 207.526 386.693 247.291C391.317 287.056 360.796 349.12 360.796 349.12L108.272 336.508Z" fill="#F4EDE4"/>
</g>
<path d="M427.4 161.547H375.113C371.877 161.547 369.254 164.17 369.254 167.406V193.509C369.254 196.744 371.877 199.368 375.113 199.368H427.4C430.636 199.368 433.259 196.744 433.259 193.509V167.406C433.259 164.17 430.636 161.547 427.4 161.547Z" fill="#499096" fill-opacity="0.65"/>
<path d="M401.256 214.157L409.542 194.519H392.97L401.256 214.157Z" fill="#499096" fill-opacity="0.5"/>
<path d="M401.057 173.963H416.025V176.153L423.363 171.922L416.025 167.692V169.882H401.057V173.963Z" fill="#223A7A"/>
<path d="M423.363 182.569H408.395V180.385L401.057 184.616L408.395 188.846V186.656H423.363V182.569Z" fill="white"/>
<path d="M391.871 186.419L391.158 186.678C389.793 185.078 388.658 183.295 387.785 181.382C387.051 179.417 386.648 177.344 386.592 175.247L387.112 175.031L383.948 167.456C383.33 167.935 382.809 168.526 382.411 169.199C380.619 172.225 380.797 176.87 382.599 181.407C384.402 185.945 386.327 189.993 389.841 192.54C390.564 193.137 391.4 193.582 392.299 193.848C393.198 194.114 394.142 194.195 395.073 194.086L391.871 186.419Z" fill="#223A7A"/>
<path d="M394.142 185.528L393.159 185.879L396.399 193.634C396.738 193.524 397.065 193.382 397.378 193.211C397.782 192.991 398.092 192.63 398.249 192.197C398.406 191.764 398.399 191.289 398.229 190.861L396.537 186.596C396.355 186.142 396.003 185.776 395.556 185.577C395.109 185.377 394.602 185.36 394.142 185.528Z" fill="#223A7A"/>
<path d="M386.422 166.127C385.982 166.286 385.557 166.486 385.153 166.724L388.385 174.458L389.474 174.003C389.928 173.814 390.289 173.454 390.481 173.001C390.674 172.549 390.681 172.039 390.503 171.581L388.803 167.219C388.628 166.763 388.28 166.393 387.835 166.189C387.39 165.984 386.883 165.962 386.422 166.127Z" fill="#223A7A"/>
<path d="M93.1526 323.417V236.138C93.1526 236.138 92.1824 212.621 104.547 205.833C116.912 199.044 169.037 202.682 169.037 202.682V323.417H93.1526Z" fill="#DB8363"/>
<path d="M185.321 120.974C185.321 120.974 182.168 147.4 180.957 149.582L179.745 151.763L173.683 155.886C173.683 155.886 185.321 172.371 199.625 175.038C213.929 177.705 212.716 169.22 212.716 169.22L210.534 164.613L213.444 139.4C213.444 139.4 187.503 127.525 185.321 120.974Z" fill="#FF9D8C"/>
<path d="M166.167 158.072L175.623 153.95C175.623 153.95 181.684 163.89 195.746 169.709C209.808 175.529 210.05 172.134 210.777 169.709C211.176 168.023 211.092 166.259 210.534 164.618L211.575 156.129L217.199 158.004L236.719 315.902L186.535 318.327L166.167 158.072Z" fill="white"/>
<path d="M212.475 156.293C212.475 156.293 215.874 164.133 219.021 182.558C222.168 200.984 225.082 232.016 225.809 253.351C226.537 274.686 227.021 323.417 227.021 323.417H290.298C291.026 323.417 295.39 299.415 295.39 299.415C295.39 299.415 267.751 275.736 266.297 271.858C265.327 269.271 265.812 221.353 261.691 199.287C257.57 177.221 252.236 172.779 241.083 167.285C229.557 161.605 212.475 156.293 212.475 156.293Z" fill="#215E75"/>
<path d="M245.446 295.637C245.29 295.637 245.141 295.575 245.031 295.465C244.922 295.355 244.86 295.206 244.86 295.051C244.86 293.318 244.552 268.685 244.254 244.873C243.956 221.061 243.648 196.422 243.648 194.68C243.648 194.525 243.71 194.376 243.82 194.266C243.93 194.156 244.079 194.094 244.234 194.094C244.389 194.094 244.539 194.156 244.648 194.266C244.758 194.376 244.82 194.525 244.82 194.68C244.82 196.413 245.128 221.046 245.425 244.858C245.721 268.67 246.032 293.31 246.032 295.051C246.032 295.206 245.97 295.355 245.86 295.465C245.75 295.575 245.601 295.637 245.446 295.637Z" fill="#8593B6"/>
<path d="M119.376 289.713L118.89 323.412H192.597C192.597 323.412 195.749 294.804 194.536 292.137C193.323 289.47 119.376 289.713 119.376 289.713Z" fill="#223A7A"/>
<g style="mix-blend-mode:multiply">
<path d="M201.401 148.863C204.537 151.224 208.014 153.091 211.713 154.401L213.443 139.408C213.443 139.408 193.957 130.481 187.346 123.841C188.728 131.382 192.127 141.381 201.401 148.863Z" fill="#8E9BBB"/>
</g>
<path d="M236.234 71.7587C239.499 77.7667 241.558 84.3551 242.295 91.1532C243.264 101.817 242.295 129.217 233.568 140.854C224.84 152.491 206.656 149.098 198.414 142.067C190.849 135.614 183.382 128.489 181.443 114.427C179.503 100.366 185.564 73.698 202.777 68.1214C219.991 62.5448 236.234 71.7587 236.234 71.7587Z" fill="#FF9D8C"/>
<path d="M258.105 308.175C258.105 308.175 257.249 308.175 255.949 308.14C255.644 308.128 255.304 308.14 254.953 308.128C253.699 308.093 252.175 308.058 250.64 308.011L249.609 307.976C248.086 307.941 246.785 308.128 245.567 308.058H245.531C245.274 308.046 244.899 308.081 244.594 308.093C244.466 308.108 244.336 308.112 244.207 308.105C243.643 307.977 243.102 307.763 242.602 307.472C234.379 305.38 225.939 304.255 217.455 304.121C206.628 304.168 196.913 304.906 195.331 303.582C193.738 302.234 192.777 288.63 202.022 287.739L213.389 292.051C213.389 292.051 239.344 288.969 248.859 295.988C258.398 303.008 258.105 308.175 258.105 308.175Z" fill="#FF9D8C"/>
<path d="M245.531 308.058C245.273 308.047 244.898 308.082 244.594 308.093C244.296 307.624 243.963 307.177 243.598 306.758C240.668 303.769 233.591 301.836 231.024 301.215C230.911 301.188 230.813 301.118 230.752 301.019C230.69 300.92 230.67 300.801 230.696 300.688C230.725 300.573 230.798 300.475 230.899 300.413C230.999 300.352 231.12 300.333 231.235 300.36C234.973 301.262 242.906 303.57 245.156 307.355C245.227 307.461 245.414 307.824 245.531 308.058Z" fill="#223A7A"/>
<path d="M250.643 308.01C250.303 308.002 249.952 307.993 249.613 307.973C246.414 302.14 241.176 300.466 234.714 298.386L234.33 298.259C234.221 298.22 234.13 298.141 234.078 298.037C234.026 297.933 234.016 297.813 234.05 297.701C234.088 297.591 234.167 297.499 234.272 297.447C234.376 297.394 234.497 297.385 234.608 297.421L234.981 297.548C241.819 299.743 247.321 301.506 250.643 308.01Z" fill="#223A7A"/>
<path d="M255.95 308.14C255.645 308.133 255.306 308.14 254.954 308.127C253.189 304.97 250.773 302.223 247.867 300.069C244.962 297.915 241.632 296.402 238.098 295.631C238.04 295.622 237.985 295.601 237.935 295.57C237.886 295.539 237.843 295.498 237.809 295.451C237.775 295.403 237.752 295.349 237.739 295.292C237.726 295.235 237.725 295.176 237.736 295.119C237.76 295.006 237.827 294.907 237.922 294.842C238.017 294.776 238.134 294.75 238.248 294.767C247 296.411 254.058 303.557 255.95 308.14Z" fill="#223A7A"/>
<path d="M187.26 102.432C191.191 100.179 194.357 96.8015 196.352 92.7338C198.589 88.5639 199.716 83.8887 199.625 79.1574C199.625 79.1574 206.413 78.0664 216.596 81.0967C226.779 84.127 238.9 88.2447 249.083 82.4302C259.266 76.6157 259.266 67.2777 254.295 63.3978C248.729 59.054 237.688 61.7011 237.688 61.7011C237.688 61.7011 241.93 57.5798 239.628 55.1554C237.325 52.7309 228.964 55.8831 228.964 55.8831C228.964 55.8831 218.781 47.7613 199.507 48.7351C180.234 49.7089 171.02 63.1611 169.929 78.1918C168.838 93.2225 174.293 108.254 174.293 108.254L187.26 102.432Z" fill="#734338"/>
<g style="mix-blend-mode:multiply">
<path d="M226.361 106.075C225.269 108.77 225.296 111.894 225.02 114.746C224.806 116.973 224.398 119.561 226.435 121.062C227.408 121.779 232.01 123.713 229.643 125.281C228.555 125.733 227.362 125.867 226.201 125.667C225.498 125.635 224.779 125.604 224.072 125.55C223.312 125.494 222.566 125.264 221.806 125.261C221.71 125.263 221.618 125.296 221.543 125.355C221.468 125.414 221.414 125.496 221.389 125.588C221.364 125.68 221.369 125.778 221.405 125.867C221.44 125.956 221.503 126.031 221.584 126.081C222.959 126.786 224.485 127.148 226.03 127.136C227.294 127.272 228.57 127.047 229.711 126.488C230.127 126.339 230.498 126.089 230.792 125.759C231.086 125.429 231.292 125.031 231.391 124.601C231.395 124.08 231.264 123.567 231.011 123.112C230.757 122.657 230.389 122.276 229.944 122.005C229.027 121.326 227.903 121.009 226.977 120.347C225.688 119.428 225.798 117.88 225.888 116.448C226.105 113 226.899 109.613 227.207 106.181C227.254 105.657 226.527 105.657 226.361 106.064V106.075Z" fill="#8E9BBB"/>
</g>
<path d="M236.273 114.137C235.911 116.18 234.425 117.625 232.952 117.365C231.479 117.105 230.579 115.237 230.941 113.194C231.303 111.15 232.789 109.704 234.262 109.964C235.735 110.224 236.635 112.093 236.273 114.137Z" fill="#8E5F67"/>
<path d="M217.722 112.518C217.394 114.723 215.841 116.318 214.253 116.082C212.665 115.847 211.642 113.866 211.97 111.662C212.298 109.458 213.852 107.862 215.441 108.098C217.03 108.333 218.051 110.311 217.722 112.518Z" fill="#8E5F67"/>
<path d="M231.955 105.713C233.087 105.904 234.23 105.713 235.373 105.789C235.648 105.809 235.92 105.849 236.193 105.875C236.388 105.893 235.83 105.817 236.101 105.863C236.159 105.872 236.218 105.88 236.276 105.891C236.419 105.917 236.562 105.946 236.703 105.98C236.947 106.04 237.182 106.131 237.426 106.185C237.651 106.243 237.883 106.273 238.116 106.274L238.49 106.224L238.255 106.266C238.413 106.266 238.57 106.249 238.724 106.217C239.04 106.126 239.309 105.914 239.471 105.628C239.634 105.342 239.678 105.003 239.594 104.685C239.543 104.506 239.459 104.338 239.346 104.191C239.298 104.127 239.249 104.064 239.199 104.002L239.336 104.159C239.288 104.091 239.237 104.024 239.185 103.96C239.122 103.853 239.033 103.764 238.926 103.701C238.835 103.631 238.745 103.558 238.652 103.492C238.327 103.292 237.97 103.15 237.597 103.07C236.916 102.896 236.216 102.806 235.513 102.803C234.823 102.809 234.134 102.863 233.451 102.967C232.818 103.04 232.211 103.264 231.683 103.621C231.492 103.739 231.34 103.909 231.243 104.111C231.146 104.313 231.109 104.539 231.137 104.761C231.164 104.983 231.256 105.193 231.402 105.362C231.548 105.532 231.741 105.654 231.957 105.713H231.955Z" fill="#8E5F67"/>
<path d="M219.023 102.469C218.872 102.379 218.715 102.297 218.555 102.224C218.416 102.161 218.041 101.965 218.32 102.12C218.217 102.064 218.114 102.003 218.01 101.954C217.542 101.726 217.051 101.55 216.545 101.43C215.433 101.151 214.28 101.072 213.14 101.195C211.953 101.29 210.804 101.65 209.776 102.25C209.623 102.333 209.481 102.433 209.352 102.55C209.269 102.655 209.187 102.762 209.108 102.87L209.177 102.764C209.018 102.875 208.889 103.023 208.8 103.195C208.712 103.368 208.666 103.559 208.668 103.752C208.668 103.931 208.716 104.107 208.809 104.261C208.901 104.415 209.034 104.54 209.192 104.624C209.377 104.706 209.577 104.749 209.78 104.751C209.982 104.753 210.183 104.713 210.37 104.635H209.757C210.058 104.695 210.369 104.692 210.67 104.625C210.682 104.625 210.997 104.544 210.787 104.588C210.577 104.631 211.117 104.548 211.175 104.54C211.232 104.531 211.606 104.494 211.22 104.531C211.292 104.524 211.362 104.515 211.432 104.507C211.616 104.483 211.798 104.461 211.982 104.447C212.782 104.383 213.58 104.347 214.382 104.321C215.126 104.296 215.884 104.29 216.627 104.321C216.946 104.333 217.263 104.345 217.582 104.353C217.762 104.353 217.685 104.386 217.563 104.353C217.628 104.374 217.697 104.386 217.762 104.405C217.895 104.441 218.025 104.485 218.154 104.534C218.417 104.606 218.697 104.579 218.941 104.459C219.186 104.339 219.378 104.133 219.482 103.881C219.587 103.631 219.598 103.35 219.514 103.092C219.429 102.834 219.254 102.615 219.021 102.475L219.023 102.469Z" fill="#8E5F67"/>
<path d="M224.78 136.171C225.982 133.945 227.917 132.203 230.257 131.24C228.225 131.034 218.635 130.146 216.215 131.52C213.503 133.059 216.715 139.24 222.322 139.551C222.869 139.578 223.417 139.546 223.957 139.456C223.996 138.315 224.277 137.196 224.78 136.171Z" fill="#8E5F67"/>
<path d="M180.472 123.16C180.472 123.16 181.442 126.918 187.017 131.283C191.248 134.344 195.835 136.881 200.676 138.838L201.322 136.01C201.322 136.01 192.957 132.377 189.079 128.373C185.2 124.369 184.715 122.191 184.715 122.191L180.472 123.16Z" fill="#DEE1EB"/>
<path d="M202.292 133.918C203.985 133.814 205.659 134.328 207.002 135.364C208.345 136.401 209.267 137.889 209.597 139.553C209.91 141.849 207.754 144.422 202.709 142.162C196.443 139.353 197.805 134.126 202.292 133.918Z" fill="#0C1C24"/>
<path d="M183.987 95.4011C183.987 95.4011 185.925 81.4684 195.261 72.0049C213.081 53.9475 228.235 55.0349 228.235 55.0349C228.235 55.0349 228.118 52.4886 222.416 50.5492C217.067 48.7283 214.659 49.7009 214.659 49.7009C214.659 49.7009 199.99 50.9125 187.627 64.6108C175.263 78.3092 173.928 95.7643 173.928 95.7643L183.987 95.4011Z" fill="#DEE1EB"/>
<path d="M182.653 93.7043C170.979 91.7251 164.47 100.852 163.985 110.068C163.5 119.285 170.195 126.285 179.137 125.585C199.262 124.009 196.958 96.1322 182.653 93.7043Z" fill="white"/>
<path d="M176.841 116.631C175.367 116.654 173.914 116.266 172.647 115.511C171.38 114.756 170.348 113.664 169.666 112.356C168.883 110.942 168.501 109.342 168.561 107.728C168.621 106.113 169.121 104.545 170.007 103.194C170.04 103.146 170.081 103.105 170.129 103.073C170.178 103.041 170.232 103.019 170.289 103.008C170.346 102.997 170.404 102.998 170.461 103.009C170.518 103.021 170.571 103.044 170.619 103.076C170.667 103.109 170.708 103.151 170.74 103.199C170.771 103.248 170.793 103.302 170.804 103.359C170.815 103.416 170.814 103.474 170.802 103.531C170.79 103.588 170.767 103.641 170.734 103.689C169.938 104.906 169.49 106.317 169.437 107.771C169.385 109.224 169.731 110.664 170.437 111.935C171.06 113.14 172.016 114.14 173.191 114.816C174.366 115.492 175.711 115.816 177.065 115.749C178.327 115.742 179.567 115.425 180.677 114.826C181.787 114.227 182.733 113.364 183.43 112.313C184.246 111.051 184.757 109.616 184.924 108.122C185.09 106.628 184.908 105.116 184.391 103.704C183.909 102.379 183.012 101.245 181.834 100.47C180.656 99.6957 179.259 99.3216 177.851 99.4037C177.738 99.4157 177.624 99.3829 177.534 99.3123C177.444 99.2416 177.385 99.1387 177.37 99.0253C177.354 98.9119 177.384 98.7971 177.452 98.7052C177.52 98.6132 177.621 98.5515 177.734 98.533C179.341 98.4112 180.943 98.8207 182.293 99.6985C183.644 100.576 184.669 101.874 185.21 103.391C185.775 104.935 185.974 106.588 185.791 108.221C185.608 109.854 185.048 111.422 184.156 112.802C183.381 113.97 182.33 114.931 181.097 115.598C179.864 116.265 178.486 116.619 177.084 116.628L176.841 116.631Z" fill="#818FB3"/>
<path d="M168.349 154.677C168.349 154.677 132.953 163.405 120.589 177.467C108.226 191.528 102.406 260.867 102.164 273.716C101.921 286.565 110.891 291.899 116.225 295.536C121.56 299.173 145.075 305.719 163.986 306.688C182.896 307.657 200.838 306.688 200.838 306.688C201.056 303.131 202.027 299.66 203.686 296.506C206.381 290.882 209.808 289.718 209.808 289.718L193.564 283.899C193.564 283.899 190.719 232.933 186.291 208.257C181.199 179.891 168.349 154.677 168.349 154.677Z" fill="#215E75"/>
<path d="M227.021 275.756C226.94 275.756 226.86 275.739 226.786 275.706C226.644 275.643 226.533 275.526 226.477 275.382C226.421 275.237 226.425 275.076 226.488 274.934C229.804 267.452 233.241 252.761 235.175 242.455L235.335 241.623C235.921 238.591 236.649 234.826 235.195 232.218C234.453 230.89 232.779 228.01 231.168 225.241C229.496 222.367 227.916 219.652 227.478 218.841C226.625 217.258 229.313 213.03 233.204 207.231C234.259 205.663 235.164 204.31 235.693 203.394C237.079 200.994 236.156 198.796 235.087 196.246L234.724 195.37C233.755 192.991 232.652 190.606 231.588 188.302C231.154 187.365 230.718 186.417 230.289 185.469C229.719 184.219 229.146 182.947 228.57 181.652C225.185 173.716 221.343 165.982 217.064 158.49C216.985 158.356 216.961 158.196 217 158.046C217.038 157.895 217.135 157.766 217.268 157.686C217.402 157.607 217.562 157.584 217.712 157.622C217.863 157.66 217.992 157.757 218.072 157.891C222.374 165.422 226.236 173.196 229.638 181.173C230.216 182.461 230.788 183.732 231.355 184.986C231.784 185.931 232.216 186.872 232.651 187.811C233.722 190.127 234.83 192.523 235.808 194.928L236.168 195.793C237.259 198.388 238.386 201.073 236.707 203.976C236.157 204.927 235.24 206.295 234.177 207.88C232.147 210.904 227.925 217.199 228.509 218.279C228.938 219.074 230.513 221.782 232.18 224.648C233.795 227.424 235.474 230.311 236.218 231.643C237.882 234.619 237.108 238.623 236.486 241.837L236.327 242.663C235.624 246.413 231.888 265.631 227.559 275.401C227.513 275.506 227.438 275.596 227.343 275.659C227.247 275.722 227.135 275.756 227.021 275.756Z" fill="#8593B6"/>
<path d="M192.472 277.817C192.395 277.817 192.319 277.802 192.248 277.773C192.177 277.743 192.112 277.7 192.058 277.645C189.302 274.869 176.017 251.865 175.028 247.538C174.486 245.17 175.848 239.163 177.16 233.359C178.179 228.858 179.232 224.204 178.932 222.944C178.485 221.061 175.088 218.286 171.802 215.602C167.833 212.361 163.729 209.008 162.935 205.993C162.031 202.561 162.804 181.073 163.314 166.855C163.498 161.742 163.643 157.704 163.643 156.264C163.643 156.109 163.704 155.96 163.814 155.85C163.924 155.74 164.073 155.678 164.229 155.678C164.384 155.678 164.533 155.74 164.643 155.85C164.753 155.96 164.814 156.109 164.814 156.264C164.814 157.727 164.669 161.772 164.485 166.898C164.008 180.188 163.209 202.43 164.068 205.697C164.771 208.346 168.898 211.722 172.544 214.701C176.139 217.637 179.533 220.411 180.072 222.681C180.434 224.204 179.447 228.569 178.303 233.623C177.077 239.041 175.689 245.179 176.17 247.29C177.141 251.53 190.183 274.104 192.888 276.831C192.97 276.913 193.025 277.017 193.047 277.131C193.069 277.244 193.058 277.362 193.013 277.468C192.969 277.575 192.894 277.666 192.797 277.731C192.701 277.795 192.588 277.829 192.472 277.829V277.817Z" fill="#8593B6"/>
<path d="M144.834 267.756C144.806 267.756 144.778 267.754 144.75 267.75C144.597 267.729 144.458 267.647 144.364 267.522C144.271 267.398 144.231 267.242 144.252 267.088C144.682 264.042 151.409 203.342 151.717 198.693C151.722 198.616 151.742 198.541 151.776 198.472C151.81 198.403 151.857 198.341 151.915 198.29C151.973 198.24 152.04 198.201 152.113 198.176C152.186 198.152 152.263 198.141 152.34 198.147C152.417 198.152 152.492 198.172 152.561 198.206C152.63 198.24 152.692 198.287 152.742 198.345C152.793 198.403 152.832 198.47 152.856 198.543C152.881 198.616 152.891 198.693 152.886 198.77C152.577 203.427 145.844 264.201 145.412 267.253C145.392 267.393 145.323 267.52 145.217 267.613C145.11 267.705 144.974 267.756 144.834 267.756Z" fill="#8593B6"/>
<path d="M193.082 284.242C193.006 284.242 192.932 284.228 192.862 284.199C191.371 283.596 184.787 281.374 176.451 278.564C159.626 272.889 136.582 265.119 132.201 262.842C132.068 262.768 131.968 262.645 131.924 262.498C131.88 262.352 131.895 262.195 131.965 262.059C132.036 261.924 132.156 261.821 132.301 261.773C132.446 261.725 132.604 261.736 132.741 261.802C137.043 264.037 160.982 272.114 176.826 277.453C185.179 280.265 191.779 282.492 193.302 283.113C193.429 283.164 193.534 283.257 193.599 283.377C193.664 283.496 193.685 283.635 193.659 283.769C193.633 283.902 193.561 284.023 193.456 284.109C193.35 284.196 193.218 284.243 193.082 284.242Z" fill="#8593B6"/>
<path d="M184.988 308.412C170.181 308.412 141.474 305.741 119.667 298.029C119.52 297.977 119.4 297.869 119.333 297.729C119.266 297.589 119.258 297.428 119.309 297.281C119.361 297.134 119.469 297.014 119.609 296.947C119.749 296.88 119.911 296.872 120.057 296.924C147.605 306.668 186.147 308.332 193.314 306.722C193.466 306.688 193.625 306.716 193.757 306.799C193.888 306.882 193.981 307.014 194.015 307.166C194.049 307.318 194.022 307.477 193.938 307.609C193.855 307.74 193.723 307.833 193.571 307.867C190.733 308.312 187.859 308.494 184.988 308.412Z" fill="#8593B6"/>
<path d="M48.4725 225.673C48.7619 226.064 49.0256 226.47 49.3244 226.853C49.4658 227.044 49.6281 227.219 49.8084 227.374C49.9867 227.563 50.2252 227.685 50.4833 227.718C50.5089 227.718 50.534 227.711 50.5561 227.698C50.5783 227.685 50.5966 227.666 50.6094 227.644C50.6221 227.622 50.6289 227.597 50.629 227.571C50.6291 227.545 50.6225 227.52 50.6099 227.498C50.4653 227.317 50.2947 227.159 50.1036 227.029C49.9302 226.876 49.7521 226.726 49.5845 226.566C49.2447 226.245 48.9342 225.896 48.6026 225.568C48.5381 225.505 48.4151 225.59 48.4725 225.668V225.673Z" fill="#43588E"/>
<path d="M53.1497 275.292C45.0268 275.175 29.552 275.091 29.552 275.091L33.3814 303.52C33.7979 306.612 35.3219 309.448 37.6707 311.502C40.0196 313.556 43.0338 314.689 46.1541 314.689H60.143C63.2633 314.689 66.2775 313.556 68.6264 311.502C70.9752 309.448 72.4992 306.612 72.9156 303.52L76.7451 275.091C76.7451 275.091 61.2738 275.183 53.1497 275.292Z" fill="white"/>
<path d="M445.824 223.046L399.477 314.851L264.357 315.821L306.057 221.749L445.824 223.046Z" fill="#F6F7FA"/>
<path d="M174.685 315.249L174.711 307.901H262.18L302.425 219.652H442.309L445.824 223.05H309.169L267.347 315.178C267.347 315.178 174.685 315.007 174.685 315.249Z" fill="#DED1B4"/>
<path d="M375.66 273.706C374.137 278.285 365.849 281.822 357.155 281.604C348.462 281.386 342.652 277.502 344.178 272.919C345.703 268.337 353.989 264.804 362.683 265.022C371.376 265.239 377.187 269.127 375.66 273.706Z" fill="#EDE3CC"/>
<path d="M267.347 315.76C267.264 315.76 267.181 315.742 267.105 315.708C266.963 315.643 266.853 315.525 266.799 315.38C266.744 315.234 266.75 315.073 266.814 314.932L308.791 222.46H445.825C445.981 222.46 446.13 222.522 446.24 222.632C446.349 222.742 446.411 222.891 446.411 223.046C446.411 223.202 446.349 223.351 446.24 223.461C446.13 223.571 445.981 223.632 445.825 223.632H309.545L267.88 315.417C267.834 315.519 267.759 315.606 267.664 315.667C267.57 315.728 267.46 315.76 267.347 315.76Z" fill="white"/>
<path d="M168.592 322.205H7.85425V357.843H168.592V322.205Z" fill="#596B9B"/>
<path d="M456.872 322.205H167.673V357.843H456.872V322.205Z" fill="#7A89AF"/>
<g style="mix-blend-mode:multiply">
<path d="M168.591 322.205H7.85425V328.751H456.873V322.205H168.591Z" fill="#BDC4D7"/>
</g>
<path d="M175.623 315.174H0.0957031V323.902H175.623V315.174Z" fill="#6F7FA9"/>
<path d="M463.904 315.174H174.705V323.902H463.904V315.174Z" fill="#9CA6C3"/>
<path d="M128.01 87.1445H71.2668C67.7552 87.1445 64.9086 89.9912 64.9086 93.5027V121.831C64.9086 125.343 67.7552 128.189 71.2668 128.189H128.01C131.522 128.189 134.368 125.343 134.368 121.831V93.5027C134.368 89.9912 131.522 87.1445 128.01 87.1445Z" fill="white"/>
<path d="M150.546 107.667L129.234 98.675V116.66L150.546 107.667Z" fill="white"/>
<path d="M86.1777 111.593C88.3457 111.593 90.1033 109.835 90.1033 107.667C90.1033 105.499 88.3457 103.742 86.1777 103.742C84.0097 103.742 82.2522 105.499 82.2522 107.667C82.2522 109.835 84.0097 111.593 86.1777 111.593Z" fill="#0D3D63"/>
<path d="M99.6385 111.593C101.807 111.593 103.564 109.835 103.564 107.667C103.564 105.499 101.807 103.742 99.6385 103.742C97.4705 103.742 95.713 105.499 95.713 107.667C95.713 109.835 97.4705 111.593 99.6385 111.593Z" fill="#0D3D63"/>
<path d="M113.1 111.593C115.268 111.593 117.026 109.835 117.026 107.667C117.026 105.499 115.268 103.742 113.1 103.742C110.932 103.742 109.175 105.499 109.175 107.667C109.175 109.835 110.932 111.593 113.1 111.593Z" fill="#0D3D63"/>
<path d="M416.895 0H285.888C281.848 0 277.973 1.60494 275.116 4.46176C272.259 7.31857 270.655 11.1933 270.655 15.2334V77.3833C270.655 81.4235 272.259 85.2981 275.116 88.155C277.973 91.0118 281.848 92.6167 285.888 92.6167H297.629C297.959 98.2496 297.152 106.63 292.449 117.342C304.122 112.042 313.992 103.448 320.85 92.6167H416.895C420.935 92.6167 424.81 91.0118 427.667 88.155C430.524 85.2981 432.129 81.4235 432.129 77.3833V15.2334C432.129 11.1933 430.524 7.31857 427.667 4.46176C424.81 1.60494 420.935 0 416.895 0Z" fill="#DEAD85"/>
<path d="M361.01 29.6184H296.036C295.612 29.6184 295.191 29.5348 294.799 29.3723C294.407 29.2098 294.05 28.9717 293.75 28.6715C293.45 28.3712 293.212 28.0148 293.049 27.6226C292.887 27.2304 292.803 26.8099 292.803 26.3854C292.803 25.9609 292.887 25.5405 293.049 25.1483C293.212 24.7562 293.45 24.3998 293.75 24.0997C294.05 23.7996 294.407 23.5616 294.799 23.3992C295.191 23.2369 295.612 23.1534 296.036 23.1536H361.01C361.435 23.1534 361.855 23.2369 362.247 23.3992C362.639 23.5616 362.996 23.7996 363.296 24.0997C363.596 24.3998 363.834 24.7562 363.997 25.1483C364.159 25.5405 364.243 25.9609 364.243 26.3854C364.243 27.2428 363.902 28.0651 363.296 28.6715C362.69 29.2778 361.868 29.6184 361.01 29.6184Z" fill="white"/>
<path d="M407.6 48.448H294.783C294.258 48.448 293.755 48.2396 293.384 47.8684C293.012 47.4973 292.803 46.9939 292.803 46.4689C292.803 45.9437 293.012 45.4399 293.383 45.0686C293.754 44.6972 294.258 44.4885 294.783 44.4885H407.6C408.125 44.4888 408.628 44.6976 408.999 45.069C409.37 45.4403 409.579 45.9439 409.579 46.4689C409.579 46.9938 409.37 47.4972 408.999 47.8684C408.628 48.2395 408.125 48.448 407.6 48.448Z" fill="#DB8363"/>
<path d="M407.6 59.4383H294.783C294.258 59.4383 293.755 59.2298 293.384 58.8587C293.012 58.4875 292.803 57.9841 292.803 57.4591C292.803 56.9339 293.012 56.4302 293.383 56.0588C293.754 55.6874 294.258 55.4788 294.783 55.4788H407.6C408.125 55.4791 408.628 55.6879 408.999 56.0592C409.37 56.4306 409.579 56.9341 409.579 57.4591C409.579 57.984 409.37 58.4874 408.999 58.8586C408.628 59.2298 408.125 59.4383 407.6 59.4383Z" fill="#DB8363"/>
<path d="M382.99 71.1563H294.783C294.258 71.1563 293.755 70.9478 293.384 70.5767C293.012 70.2055 292.803 69.7021 292.803 69.1771C292.803 68.6519 293.012 68.1482 293.383 67.7768C293.754 67.4054 294.258 67.1968 294.783 67.1968H382.99C383.515 67.1968 384.018 67.4054 384.39 67.7768C384.761 68.1482 384.97 68.6519 384.97 69.1771C384.97 69.4371 384.919 69.6946 384.819 69.9348C384.72 70.175 384.574 70.3932 384.39 70.577C384.206 70.7608 383.988 70.9066 383.747 71.006C383.507 71.1054 383.25 71.1564 382.99 71.1563Z" fill="#DB8363"/>
<path d="M406.714 29.6184H375.718C374.861 29.6184 374.039 29.2778 373.432 28.6715C372.826 28.0651 372.485 27.2428 372.485 26.3854C372.485 25.9609 372.569 25.5405 372.732 25.1483C372.894 24.7562 373.132 24.3998 373.432 24.0997C373.733 23.7996 374.089 23.5616 374.481 23.3992C374.874 23.2369 375.294 23.1534 375.718 23.1536H406.714C407.571 23.1536 408.393 23.4941 408.999 24.1001C409.605 24.7062 409.946 25.5283 409.946 26.3854C409.946 26.8099 409.862 27.2303 409.7 27.6225C409.538 28.0147 409.3 28.3712 408.999 28.6714C408.699 28.9716 408.343 29.2098 407.951 29.3723C407.559 29.5347 407.138 29.6184 406.714 29.6184Z" fill="white"/>
<path d="M450.863 118.469H382.171C379.583 118.469 377.484 120.568 377.484 123.156V133.904C377.484 136.493 379.583 138.591 382.171 138.591H450.863C453.452 138.591 455.55 136.493 455.55 133.904V123.156C455.55 120.568 453.452 118.469 450.863 118.469Z" fill="#215E75"/>
<path d="M387.131 133.807C386.991 133.812 386.851 133.785 386.722 133.728C386.594 133.671 386.48 133.585 386.39 133.477C386.295 133.364 386.225 133.233 386.182 133.092C386.139 132.952 386.126 132.803 386.141 132.657L386.439 130.051C386.46 129.985 386.449 129.942 386.406 129.919C386.378 129.909 386.348 129.907 386.319 129.913C386.29 129.919 386.263 129.933 386.241 129.953L384.096 131.502C383.984 131.595 383.852 131.662 383.71 131.699C383.568 131.737 383.42 131.742 383.276 131.716C383.131 131.686 382.993 131.625 382.874 131.537C382.754 131.449 382.655 131.335 382.584 131.205C382.49 131.073 382.431 130.919 382.41 130.758C382.39 130.597 382.409 130.434 382.466 130.282C382.525 130.152 382.609 130.036 382.714 129.939C382.819 129.843 382.943 129.769 383.077 129.722L385.484 128.633C385.551 128.612 385.583 128.578 385.583 128.535C385.583 128.491 385.551 128.457 385.484 128.435L383.077 127.346C382.937 127.294 382.81 127.211 382.707 127.102C382.604 126.994 382.528 126.863 382.483 126.721C382.44 126.579 382.427 126.429 382.444 126.282C382.461 126.134 382.508 125.992 382.582 125.863C382.654 125.733 382.753 125.62 382.873 125.531C382.992 125.443 383.13 125.381 383.275 125.351C383.417 125.325 383.563 125.327 383.704 125.359C383.844 125.39 383.978 125.449 384.095 125.533L386.24 127.116C386.262 127.136 386.289 127.149 386.318 127.155C386.347 127.161 386.377 127.159 386.405 127.15C386.448 127.127 386.459 127.083 386.438 127.017L386.14 124.412C386.125 124.265 386.14 124.115 386.186 123.974C386.232 123.833 386.306 123.703 386.405 123.592C386.505 123.483 386.627 123.396 386.764 123.339C386.9 123.282 387.048 123.256 387.196 123.262C387.341 123.258 387.486 123.287 387.619 123.346C387.752 123.406 387.87 123.494 387.965 123.604C388.06 123.715 388.128 123.845 388.166 123.986C388.205 124.126 388.211 124.274 388.185 124.417L387.888 127.022C387.866 127.088 387.877 127.132 387.921 127.154C387.949 127.164 387.979 127.166 388.008 127.16C388.037 127.154 388.064 127.14 388.086 127.12L390.23 125.571C390.346 125.477 390.482 125.409 390.627 125.372C390.772 125.335 390.923 125.329 391.071 125.356C391.216 125.382 391.353 125.442 391.47 125.531C391.588 125.62 391.683 125.735 391.747 125.868C391.84 126 391.9 126.154 391.92 126.315C391.94 126.476 391.921 126.639 391.864 126.791C391.806 126.921 391.721 127.037 391.616 127.134C391.511 127.23 391.388 127.304 391.254 127.351L388.848 128.44C388.781 128.462 388.748 128.495 388.748 128.539C388.748 128.584 388.781 128.617 388.848 128.638L391.254 129.726C391.395 129.78 391.523 129.864 391.628 129.972C391.734 130.08 391.814 130.21 391.864 130.352C391.913 130.494 391.927 130.646 391.907 130.795C391.887 130.944 391.832 131.086 391.747 131.21C391.682 131.342 391.588 131.457 391.47 131.546C391.353 131.635 391.216 131.695 391.071 131.721C390.926 131.749 390.776 131.747 390.632 131.716C390.487 131.685 390.351 131.625 390.23 131.54L388.086 129.957C388.064 129.937 388.037 129.924 388.008 129.918C387.979 129.912 387.949 129.914 387.921 129.923C387.877 129.947 387.866 129.99 387.888 130.056L388.185 132.662C388.211 132.808 388.202 132.959 388.159 133.101C388.116 133.244 388.04 133.374 387.938 133.482C387.834 133.59 387.708 133.675 387.569 133.73C387.43 133.786 387.281 133.812 387.131 133.807Z" fill="white"/>
<path d="M401.337 133.807C401.197 133.812 401.057 133.785 400.928 133.728C400.8 133.671 400.686 133.585 400.595 133.477C400.502 133.364 400.431 133.233 400.389 133.092C400.346 132.951 400.333 132.803 400.348 132.657L400.645 130.051C400.667 129.985 400.656 129.942 400.612 129.919C400.584 129.909 400.554 129.907 400.525 129.913C400.495 129.919 400.469 129.933 400.447 129.953L398.303 131.502C398.19 131.595 398.058 131.662 397.917 131.699C397.775 131.736 397.627 131.742 397.483 131.716C397.338 131.686 397.2 131.625 397.081 131.537C396.961 131.448 396.862 131.335 396.791 131.205C396.697 131.073 396.638 130.919 396.617 130.758C396.597 130.597 396.616 130.434 396.673 130.282C396.732 130.152 396.816 130.036 396.921 129.94C397.026 129.843 397.149 129.769 397.283 129.722L399.691 128.633C399.756 128.612 399.79 128.578 399.79 128.535C399.79 128.491 399.756 128.457 399.691 128.435L397.283 127.346C397.143 127.294 397.016 127.211 396.914 127.102C396.811 126.994 396.734 126.863 396.69 126.721C396.647 126.579 396.633 126.429 396.65 126.282C396.667 126.134 396.714 125.992 396.788 125.863C396.86 125.733 396.959 125.62 397.079 125.532C397.198 125.443 397.335 125.382 397.481 125.351C397.623 125.325 397.768 125.328 397.909 125.359C398.05 125.39 398.183 125.449 398.301 125.533L400.444 127.116C400.466 127.136 400.493 127.149 400.522 127.155C400.551 127.161 400.581 127.159 400.609 127.15C400.654 127.127 400.665 127.083 400.642 127.017L400.346 124.412C400.331 124.265 400.346 124.116 400.392 123.975C400.437 123.833 400.511 123.703 400.609 123.592C400.709 123.482 400.832 123.396 400.969 123.339C401.106 123.282 401.253 123.256 401.402 123.262C401.547 123.258 401.692 123.287 401.825 123.346C401.958 123.405 402.076 123.494 402.17 123.604C402.265 123.715 402.334 123.845 402.372 123.986C402.409 124.127 402.416 124.274 402.389 124.417L402.094 127.022C402.072 127.088 402.082 127.132 402.127 127.154C402.155 127.164 402.185 127.166 402.214 127.16C402.243 127.154 402.27 127.14 402.292 127.12L404.435 125.571C404.552 125.477 404.687 125.409 404.833 125.372C404.978 125.334 405.129 125.329 405.277 125.356C405.422 125.382 405.559 125.442 405.676 125.531C405.793 125.62 405.888 125.735 405.953 125.868C406.046 126 406.106 126.154 406.126 126.315C406.147 126.476 406.127 126.639 406.07 126.791C406.011 126.921 405.927 127.037 405.823 127.133C405.718 127.23 405.595 127.304 405.461 127.351L403.054 128.44C402.988 128.462 402.955 128.495 402.955 128.539C402.955 128.584 402.988 128.617 403.054 128.638L405.461 129.726C405.602 129.78 405.73 129.864 405.835 129.972C405.94 130.08 406.02 130.21 406.07 130.352C406.119 130.494 406.133 130.646 406.113 130.795C406.093 130.944 406.038 131.086 405.953 131.21C405.888 131.342 405.793 131.457 405.676 131.546C405.558 131.635 405.422 131.695 405.277 131.721C405.132 131.749 404.982 131.747 404.838 131.716C404.693 131.685 404.556 131.626 404.435 131.54L402.292 129.957C402.27 129.937 402.243 129.924 402.214 129.918C402.185 129.912 402.155 129.914 402.127 129.923C402.082 129.947 402.072 129.99 402.094 130.056L402.389 132.662C402.416 132.808 402.407 132.959 402.364 133.101C402.322 133.244 402.246 133.374 402.143 133.482C402.039 133.59 401.914 133.674 401.775 133.73C401.636 133.786 401.487 133.812 401.337 133.807Z" fill="white"/>
<path d="M415.546 133.807C415.405 133.812 415.265 133.785 415.137 133.728C415.008 133.671 414.895 133.585 414.804 133.477C414.71 133.364 414.64 133.233 414.597 133.092C414.554 132.951 414.54 132.803 414.556 132.657L414.853 130.051C414.874 129.985 414.864 129.942 414.821 129.919C414.793 129.909 414.762 129.907 414.733 129.913C414.704 129.919 414.677 129.933 414.655 129.953L412.512 131.502C412.399 131.595 412.267 131.662 412.126 131.699C411.984 131.736 411.836 131.742 411.692 131.716C411.546 131.686 411.409 131.625 411.289 131.537C411.17 131.449 411.071 131.335 410.999 131.205C410.906 131.072 410.847 130.919 410.826 130.758C410.806 130.597 410.825 130.434 410.882 130.282C410.941 130.152 411.025 130.036 411.13 129.939C411.235 129.843 411.358 129.769 411.493 129.722L413.901 128.633C413.966 128.612 413.999 128.578 413.999 128.535C413.999 128.491 413.966 128.457 413.901 128.435L411.493 127.346C411.353 127.295 411.226 127.211 411.123 127.103C411.021 126.994 410.944 126.863 410.9 126.721C410.856 126.579 410.843 126.429 410.86 126.282C410.876 126.134 410.924 125.991 410.998 125.863C411.07 125.733 411.169 125.62 411.289 125.531C411.408 125.443 411.545 125.381 411.691 125.351C411.833 125.325 411.978 125.328 412.119 125.359C412.26 125.39 412.393 125.449 412.511 125.532L414.654 127.116C414.676 127.135 414.703 127.149 414.732 127.155C414.761 127.161 414.791 127.159 414.819 127.15C414.863 127.127 414.873 127.083 414.852 127.017L414.555 124.412C414.54 124.265 414.555 124.116 414.601 123.974C414.647 123.833 414.721 123.703 414.819 123.592C414.919 123.483 415.042 123.396 415.178 123.339C415.315 123.282 415.462 123.256 415.61 123.262C415.756 123.258 415.901 123.287 416.034 123.346C416.167 123.405 416.285 123.493 416.38 123.604C416.475 123.714 416.544 123.845 416.581 123.986C416.619 124.126 416.626 124.274 416.599 124.417L416.303 127.022C416.281 127.087 416.291 127.132 416.337 127.154C416.365 127.164 416.395 127.166 416.424 127.16C416.453 127.154 416.48 127.14 416.502 127.12L418.645 125.571C418.762 125.477 418.897 125.409 419.042 125.372C419.188 125.334 419.339 125.329 419.487 125.356C419.631 125.382 419.768 125.442 419.885 125.531C420.003 125.62 420.097 125.735 420.162 125.868C420.255 126 420.315 126.154 420.335 126.315C420.356 126.476 420.336 126.639 420.279 126.791C420.22 126.921 420.136 127.037 420.031 127.133C419.927 127.23 419.804 127.304 419.669 127.351L417.263 128.44C417.196 128.462 417.163 128.495 417.163 128.539C417.163 128.584 417.196 128.617 417.263 128.638L419.669 129.726C419.81 129.78 419.938 129.864 420.043 129.972C420.149 130.08 420.229 130.21 420.279 130.352C420.327 130.494 420.342 130.646 420.322 130.795C420.302 130.944 420.247 131.086 420.162 131.21C420.097 131.342 420.002 131.457 419.885 131.546C419.768 131.635 419.631 131.695 419.487 131.721C419.342 131.749 419.192 131.747 419.048 131.716C418.903 131.685 418.766 131.625 418.645 131.54L416.502 129.957C416.48 129.937 416.453 129.924 416.424 129.918C416.395 129.912 416.365 129.914 416.337 129.923C416.291 129.947 416.281 129.99 416.303 130.056L416.599 132.662C416.626 132.808 416.617 132.959 416.574 133.101C416.531 133.244 416.456 133.374 416.353 133.482C416.249 133.59 416.123 133.674 415.984 133.73C415.845 133.786 415.696 133.812 415.546 133.807Z" fill="white"/>
<path d="M429.753 133.807C429.613 133.812 429.473 133.785 429.344 133.728C429.215 133.671 429.101 133.585 429.01 133.477C428.917 133.364 428.846 133.233 428.804 133.092C428.761 132.951 428.748 132.803 428.763 132.657L429.061 130.051C429.082 129.985 429.071 129.942 429.028 129.919C429 129.909 428.97 129.907 428.941 129.913C428.912 129.919 428.885 129.933 428.863 129.953L426.718 131.502C426.605 131.595 426.474 131.662 426.332 131.699C426.19 131.737 426.042 131.742 425.898 131.716C425.753 131.686 425.615 131.625 425.496 131.537C425.376 131.449 425.277 131.335 425.206 131.205C425.112 131.073 425.053 130.919 425.032 130.758C425.012 130.597 425.031 130.434 425.088 130.282C425.147 130.152 425.231 130.036 425.336 129.939C425.441 129.843 425.565 129.769 425.699 129.722L428.106 128.633C428.173 128.612 428.205 128.578 428.205 128.535C428.205 128.491 428.173 128.457 428.106 128.435L425.699 127.346C425.559 127.294 425.432 127.211 425.329 127.102C425.226 126.994 425.15 126.863 425.105 126.721C425.062 126.579 425.049 126.429 425.066 126.282C425.083 126.134 425.13 125.992 425.204 125.863C425.276 125.733 425.375 125.62 425.495 125.531C425.614 125.443 425.751 125.381 425.897 125.351C426.039 125.325 426.185 125.327 426.325 125.359C426.466 125.39 426.6 125.449 426.717 125.533L428.862 127.116C428.884 127.136 428.91 127.149 428.94 127.155C428.969 127.161 428.999 127.159 429.027 127.15C429.07 127.127 429.081 127.083 429.06 127.017L428.762 124.412C428.747 124.265 428.762 124.116 428.808 123.974C428.854 123.833 428.928 123.703 429.027 123.592C429.127 123.483 429.249 123.396 429.386 123.339C429.522 123.282 429.67 123.256 429.818 123.262C429.963 123.258 430.108 123.287 430.241 123.346C430.374 123.406 430.492 123.494 430.587 123.604C430.682 123.715 430.75 123.845 430.788 123.986C430.827 124.126 430.833 124.274 430.807 124.417L430.51 127.022C430.488 127.088 430.499 127.132 430.543 127.154C430.571 127.164 430.601 127.166 430.63 127.16C430.659 127.154 430.686 127.14 430.708 127.12L432.852 125.571C432.968 125.477 433.104 125.409 433.249 125.372C433.394 125.335 433.545 125.329 433.693 125.356C433.838 125.382 433.975 125.442 434.092 125.531C434.21 125.62 434.305 125.735 434.369 125.868C434.462 126 434.522 126.154 434.542 126.315C434.562 126.476 434.543 126.639 434.486 126.791C434.428 126.921 434.343 127.037 434.238 127.134C434.133 127.23 434.01 127.304 433.876 127.351L431.47 128.44C431.403 128.462 431.37 128.495 431.37 128.539C431.37 128.584 431.403 128.617 431.47 128.638L433.876 129.726C434.017 129.78 434.145 129.864 434.25 129.972C434.356 130.08 434.436 130.21 434.486 130.352C434.535 130.494 434.549 130.646 434.529 130.795C434.509 130.944 434.454 131.086 434.369 131.21C434.304 131.342 434.209 131.457 434.092 131.546C433.975 131.635 433.838 131.695 433.693 131.721C433.548 131.749 433.398 131.747 433.254 131.716C433.109 131.685 432.972 131.625 432.852 131.54L430.708 129.957C430.686 129.937 430.659 129.924 430.63 129.918C430.601 129.912 430.571 129.914 430.543 129.923C430.499 129.947 430.488 129.99 430.51 130.056L430.807 132.662C430.833 132.808 430.824 132.959 430.781 133.101C430.738 133.244 430.662 133.374 430.56 133.482C430.456 133.59 430.33 133.675 430.191 133.73C430.052 133.786 429.903 133.812 429.753 133.807Z" fill="white"/>
<path d="M443.965 133.807C443.824 133.812 443.684 133.785 443.556 133.728C443.427 133.671 443.313 133.585 443.223 133.477C443.129 133.364 443.059 133.233 443.017 133.092C442.974 132.951 442.96 132.803 442.976 132.657L443.272 130.051C443.295 129.985 443.283 129.942 443.239 129.919C443.211 129.909 443.181 129.907 443.152 129.913C443.123 129.919 443.096 129.933 443.074 129.953L440.931 131.502C440.818 131.595 440.686 131.662 440.545 131.699C440.403 131.736 440.255 131.742 440.111 131.716C439.965 131.686 439.828 131.625 439.708 131.537C439.589 131.448 439.49 131.335 439.418 131.205C439.325 131.073 439.265 130.919 439.245 130.758C439.224 130.597 439.244 130.434 439.301 130.282C439.36 130.152 439.444 130.036 439.548 129.94C439.653 129.843 439.776 129.769 439.91 129.722L442.318 128.633C442.384 128.612 442.418 128.578 442.418 128.535C442.418 128.491 442.384 128.457 442.318 128.435L439.91 127.346C439.77 127.295 439.644 127.211 439.541 127.103C439.438 126.994 439.362 126.863 439.317 126.721C439.274 126.579 439.261 126.429 439.278 126.282C439.295 126.134 439.342 125.992 439.416 125.863C439.488 125.733 439.587 125.62 439.706 125.532C439.826 125.443 439.963 125.382 440.108 125.351C440.25 125.325 440.396 125.328 440.537 125.359C440.678 125.39 440.811 125.449 440.929 125.533L443.072 127.116C443.094 127.136 443.121 127.149 443.15 127.155C443.179 127.161 443.209 127.159 443.237 127.15C443.281 127.127 443.292 127.083 443.27 127.017L442.973 124.412C442.958 124.265 442.974 124.116 443.019 123.975C443.065 123.833 443.139 123.703 443.237 123.592C443.337 123.482 443.46 123.396 443.597 123.339C443.733 123.282 443.881 123.256 444.029 123.262C444.175 123.258 444.319 123.287 444.452 123.346C444.585 123.405 444.703 123.494 444.798 123.604C444.893 123.715 444.961 123.845 444.999 123.986C445.037 124.127 445.043 124.274 445.017 124.417L444.722 127.022C444.7 127.088 444.71 127.132 444.755 127.154C444.783 127.164 444.813 127.166 444.842 127.16C444.871 127.154 444.898 127.14 444.92 127.12L447.063 125.571C447.18 125.477 447.315 125.409 447.46 125.372C447.605 125.334 447.757 125.329 447.904 125.356C448.049 125.382 448.186 125.442 448.304 125.531C448.421 125.62 448.516 125.735 448.581 125.868C448.674 126 448.734 126.154 448.754 126.315C448.775 126.476 448.755 126.639 448.698 126.791C448.639 126.921 448.555 127.037 448.45 127.133C448.346 127.23 448.222 127.304 448.088 127.351L445.682 128.44C445.616 128.462 445.583 128.495 445.583 128.539C445.583 128.584 445.616 128.617 445.682 128.638L448.088 129.726C448.23 129.78 448.357 129.864 448.463 129.972C448.568 130.08 448.648 130.21 448.698 130.352C448.746 130.494 448.761 130.646 448.741 130.795C448.72 130.944 448.666 131.086 448.581 131.21C448.516 131.342 448.421 131.457 448.304 131.546C448.186 131.635 448.049 131.695 447.904 131.721C447.759 131.749 447.61 131.747 447.465 131.716C447.321 131.685 447.184 131.626 447.063 131.54L444.92 129.957C444.898 129.937 444.871 129.924 444.842 129.918C444.813 129.912 444.783 129.914 444.755 129.923C444.71 129.947 444.7 129.99 444.722 130.056L445.017 132.662C445.043 132.808 445.035 132.959 444.992 133.101C444.949 133.244 444.874 133.374 444.771 133.482C444.667 133.59 444.541 133.674 444.403 133.73C444.264 133.786 444.114 133.812 443.965 133.807Z" fill="#EDE3CC"/>
</svg>
