<svg width="547" height="364" viewBox="0 0 547 364" fill="none" xmlns="http://www.w3.org/2000/svg">
<path d="M153.539 100.091C155.787 100.091 157.609 98.2686 157.609 96.0211C157.609 93.7736 155.787 91.9517 153.539 91.9517C151.292 91.9517 149.47 93.7736 149.47 96.0211C149.47 98.2686 151.292 100.091 153.539 100.091Z" fill="white"/>
<path d="M546.25 0H0.75V363.667H546.25V0Z" fill="white"/>
<path d="M76.4075 299.174C76.4075 299.174 38.4865 246.553 88.2972 182.711C138.108 118.868 192.396 143.566 232.399 103.354C272.401 63.142 295.531 51.7607 365.52 60.7986C437.799 70.131 513.858 169.293 472.897 300.991L76.4075 299.174Z" fill="#F4EDE4"/>
<g style="mix-blend-mode:multiply" opacity="0.35">
<path d="M420.998 296.192H377.569C377.569 296.192 388.457 280.707 408.16 278.336C409.615 278.161 410.946 277.979 412.168 277.783L420.998 296.192Z" fill="#40BB3B"/>
</g>
<g style="mix-blend-mode:multiply" opacity="0.23">
<path d="M389.519 293.457C380.587 296.948 370.324 296.105 370.324 296.105L350.272 296.192C350.272 296.192 350.686 294.665 351.457 292.279L364.767 267.71C370.797 264.029 378.638 267.062 381.511 263.142L389.519 293.457Z" fill="#40BB3B"/>
</g>
<g style="mix-blend-mode:multiply" opacity="0.35">
<path d="M148.348 296.192H191.777C191.777 296.192 180.889 280.707 161.186 278.336C159.731 278.161 158.4 277.979 157.178 277.783L148.348 296.192Z" fill="#40BB3B"/>
</g>
<g style="mix-blend-mode:multiply" opacity="0.23">
<path d="M179.827 293.457C188.759 296.948 199.021 296.105 199.021 296.105L219.074 296.192C219.074 296.192 218.659 294.665 217.888 292.279L204.578 267.71C198.549 264.029 190.708 267.062 187.835 263.142L179.827 293.457Z" fill="#40BB3B"/>
</g>
<path d="M326.982 138.303L335.196 124.077L327.195 119.457C327.806 116.048 327.735 112.552 326.986 109.171L334.687 104.725L326.474 90.4985L318.622 95.032C315.952 92.6852 312.835 90.9038 309.458 89.7952V81.265H293.029V89.8003C289.481 90.9643 286.22 92.8694 283.463 95.3891L276.525 91.3837L268.312 105.609L275.389 109.695C274.643 113.448 274.722 117.317 275.621 121.036L268.823 124.964L277.036 139.191L284.275 135.011C287.129 137.416 290.461 139.185 294.051 140.202V148.421H310.478V139.537C313.803 138.29 316.842 136.384 319.413 133.933L326.982 138.303ZM300.568 132.674C297.092 132.442 293.759 131.199 290.98 129.098C288.201 126.997 286.097 124.129 284.926 120.847C283.756 117.566 283.57 114.014 284.392 110.628C285.213 107.242 287.007 104.17 289.551 101.791C292.096 99.4107 295.28 97.8265 298.714 97.2328C302.147 96.6392 305.678 97.0619 308.874 98.4491C312.07 99.8363 314.791 102.127 316.702 105.041C318.613 107.954 319.631 111.362 319.63 114.846C319.618 117.289 319.107 119.705 318.128 121.944C317.15 124.183 315.725 126.198 313.941 127.867C312.156 129.536 310.05 130.824 307.75 131.65C305.451 132.477 303.007 132.825 300.568 132.674Z" stroke="#DB8363" stroke-width="1.45467" stroke-miterlimit="10"/>
<path d="M363.96 107.893L371.637 102.471L368.586 98.1538C369.72 96.5292 370.521 94.6959 370.943 92.7599L376.009 92.2958L375.151 82.9372L369.987 83.41C369.162 81.552 367.97 79.8802 366.481 78.4954L368.526 74.0623L359.993 70.126L357.947 74.5627C355.824 74.317 353.674 74.5253 351.638 75.1737L348.993 71.4243L341.316 76.8465L344.013 80.665C342.727 82.4358 341.84 84.4651 341.416 86.6124L336.944 87.0227L337.802 96.3813L342.564 95.9449C343.47 97.8778 344.777 99.5958 346.398 100.985L344.428 105.255L352.962 109.193L355.091 104.576C357.117 104.725 359.153 104.463 361.075 103.806L363.96 107.893ZM353.327 96.4882C351.976 95.8648 350.841 94.8549 350.065 93.5864C349.289 92.3179 348.906 90.8476 348.965 89.3615C349.024 87.8755 349.523 86.4403 350.397 85.2375C351.272 84.0348 352.484 83.1184 353.88 82.6043C355.275 82.0903 356.792 82.0016 358.238 82.3495C359.684 82.6974 360.994 83.4663 362.003 84.559C363.012 85.6516 363.675 87.0189 363.907 88.4879C364.139 89.957 363.93 91.4619 363.307 92.8122C362.47 94.6229 360.949 96.0273 359.078 96.7166C357.206 97.406 355.138 97.3238 353.327 96.4882Z" fill="#DEAD85"/>
<path d="M416.285 128.956H328.039C327.214 128.956 326.423 129.284 325.84 129.867C325.256 130.451 324.929 131.242 324.929 132.067V186.074C324.929 186.483 325.009 186.887 325.165 187.265C325.322 187.642 325.551 187.985 325.84 188.274C326.128 188.563 326.471 188.793 326.849 188.949C327.226 189.105 327.631 189.186 328.039 189.186H337.046C336.009 193.879 333.711 199.527 328.621 202.223C328.621 202.223 346.055 200.121 350.062 189.186H416.285C416.693 189.186 417.098 189.105 417.475 188.949C417.853 188.793 418.196 188.563 418.485 188.274C418.773 187.985 419.003 187.642 419.159 187.265C419.315 186.887 419.396 186.483 419.396 186.074V132.068C419.396 131.659 419.315 131.254 419.159 130.877C419.003 130.499 418.773 130.156 418.485 129.867C418.196 129.578 417.853 129.349 417.475 129.193C417.098 129.037 416.693 128.956 416.285 128.956Z" fill="#DEAD85"/>
<path d="M364.565 138.522H336.566V141.114H364.565V138.522Z" fill="white"/>
<path d="M387.767 146.947H336.566V149.539H387.767V146.947Z" fill="white"/>
<path d="M410.97 155.372H336.566V158.483H410.97V155.372Z" fill="white"/>
<path d="M410.971 164.316H374.417V167.427H410.971V164.316Z" fill="white"/>
<path d="M371.176 164.316H336.566V167.427H371.176V164.316Z" fill="white"/>
<path d="M384.138 173.26H336.566V175.939H384.138V173.26Z" fill="white"/>
<path d="M410.97 146.947H391.569V149.539H410.97V146.947Z" fill="white"/>
<path d="M183.999 75.6594H123.08C121.625 75.6594 120.445 76.8392 120.445 78.2946V121.001C120.445 122.456 121.625 123.636 123.08 123.636H183.999C185.454 123.636 186.634 122.456 186.634 121.001V78.2946C186.634 76.8392 185.454 75.6594 183.999 75.6594Z" fill="white" stroke="#393BC6" stroke-width="1.16373" stroke-miterlimit="10"/>
<path d="M183.999 135.064H123.08C121.625 135.064 120.445 136.244 120.445 137.7V180.406C120.445 181.861 121.625 183.041 123.08 183.041H183.999C185.454 183.041 186.634 181.861 186.634 180.406V137.7C186.634 136.244 185.454 135.064 183.999 135.064Z" fill="white" stroke="#EA711F" stroke-width="1.16373" stroke-miterlimit="10"/>
<path d="M183.999 193.432H123.08C121.625 193.432 120.445 194.612 120.445 196.067V238.773C120.445 240.229 121.625 241.408 123.08 241.408H183.999C185.454 241.408 186.634 240.229 186.634 238.773V196.067C186.634 194.612 185.454 193.432 183.999 193.432Z" fill="white" stroke="#499096" stroke-width="1.16373" stroke-miterlimit="10"/>
<path d="M170.514 149.103V168.997C170.514 169.174 170.48 169.348 170.412 169.511C170.345 169.674 170.246 169.822 170.121 169.947C169.997 170.071 169.849 170.17 169.686 170.238C169.523 170.305 169.348 170.34 169.172 170.34H137.965C137.789 170.34 137.615 170.305 137.452 170.237C137.29 170.17 137.142 170.071 137.018 169.946C136.894 169.821 136.795 169.673 136.729 169.51C136.662 169.348 136.628 169.173 136.629 168.997V149.103C136.627 148.989 136.642 148.875 136.673 148.764C136.746 148.477 136.913 148.223 137.147 148.041C137.381 147.859 137.668 147.76 137.965 147.761H169.172C169.436 147.76 169.695 147.837 169.916 147.984C170.136 148.131 170.307 148.34 170.408 148.585C170.479 148.749 170.515 148.925 170.514 149.103Z" fill="#DB8363" stroke="#EA711F" stroke-width="1.16373" stroke-miterlimit="10"/>
<path d="M170.406 148.588L155.416 161.435C154.901 161.878 154.244 162.123 153.564 162.125C152.884 162.127 152.226 161.887 151.707 161.447L136.672 148.767C136.745 148.48 136.912 148.225 137.146 148.043C137.38 147.862 137.668 147.763 137.964 147.763H169.171C169.436 147.762 169.694 147.84 169.914 147.987C170.134 148.134 170.305 148.343 170.406 148.588Z" fill="white" stroke="#EA711F" stroke-width="1.16373" stroke-miterlimit="10"/>
<path d="M153.54 114.844C161.34 114.844 167.664 108.521 167.664 100.72C167.664 92.9203 161.34 86.597 153.54 86.597C145.74 86.597 139.417 92.9203 139.417 100.72C139.417 108.521 145.74 114.844 153.54 114.844Z" fill="#3D42B0"/>
<path d="M151.022 101.646H156.057C157.065 101.646 158.032 102.047 158.745 102.76C159.458 103.473 159.858 104.44 159.858 105.448V108.338C159.858 108.489 159.829 108.639 159.771 108.779C159.713 108.919 159.628 109.046 159.52 109.153C159.413 109.261 159.286 109.345 159.146 109.403C159.006 109.461 158.856 109.491 158.705 109.491H148.374C148.222 109.491 148.072 109.461 147.932 109.403C147.792 109.345 147.665 109.261 147.558 109.153C147.451 109.046 147.366 108.919 147.308 108.779C147.25 108.639 147.22 108.489 147.22 108.338V105.448C147.22 104.44 147.621 103.473 148.334 102.76C149.047 102.047 150.014 101.646 151.022 101.646V101.646Z" fill="white"/>
<path d="M153.54 231.63C161.388 231.63 167.75 225.268 167.75 217.42C167.75 209.572 161.388 203.21 153.54 203.21C145.692 203.21 139.33 209.572 139.33 217.42C139.33 225.268 145.692 231.63 153.54 231.63Z" fill="white" stroke="#499096" stroke-width="1.16373" stroke-miterlimit="10"/>
<path d="M156.249 214.248C155.536 213.855 154.892 213.35 154.342 212.751C154.059 212.455 153.877 212.077 153.825 211.671C153.773 211.265 153.852 210.854 154.051 210.496C154.581 209.561 155.242 208.707 156.015 207.961C156.349 207.635 156.791 207.442 157.257 207.417C157.723 207.391 158.182 207.535 158.55 207.822C159.779 208.78 161.495 210.417 161.764 212.259C162.404 216.653 159.596 222.095 154.309 225.642C151.043 227.834 148.098 227.77 146.172 226.781C145.947 226.66 145.748 226.495 145.588 226.296C145.427 226.097 145.308 225.868 145.238 225.623C145.167 225.377 145.146 225.12 145.176 224.866C145.206 224.612 145.287 224.367 145.413 224.145C145.877 223.285 146.422 222.472 147.042 221.717C147.342 221.363 147.761 221.128 148.221 221.057C148.68 220.986 149.15 221.082 149.544 221.33C149.918 221.565 150.271 221.829 150.602 222.121C150.94 222.42 151.372 222.59 151.823 222.604C152.274 222.617 152.715 222.472 153.071 222.194C154.736 220.893 157.281 218.484 157.274 215.908C157.272 215.564 157.176 215.227 156.995 214.934C156.814 214.641 156.556 214.404 156.249 214.248Z" fill="#499096"/>
<path d="M200.697 75.6594V240.749" stroke="#020331" stroke-width="1.45467" stroke-miterlimit="10"/>
<path d="M200.696 104.907C203.07 104.907 204.994 102.983 204.994 100.609C204.994 98.2355 203.07 96.3113 200.696 96.3113C198.322 96.3113 196.398 98.2355 196.398 100.609C196.398 102.983 198.322 104.907 200.696 104.907Z" fill="white" stroke="#020331" stroke-width="2.182" stroke-miterlimit="10"/>
<path d="M250.652 262.822C250.652 262.822 248.608 269.39 245.554 276.678C242.23 284.584 237.72 293.326 233.334 295.414C224.912 299.436 216.613 289.712 209.747 276.489C202.881 263.266 194.706 235.402 194.706 235.402L206.634 229.307C214.024 245.962 223.355 260.698 225.515 268.008C226.684 265.22 227.545 262.313 228.083 259.338C228.374 257.92 228.65 256.407 228.927 254.785L239.597 258.734L250.652 262.822Z" fill="#FABC93"/>
<path opacity="0.61" d="M245.554 276.678C241.015 275.594 234.632 272.709 230.353 268.454L235.406 282.103L225.515 268.008C226.683 265.22 227.544 262.313 228.082 259.338L239.596 258.734L250.651 262.822C250.651 262.822 248.609 269.39 245.554 276.678Z" fill="#DE6F25"/>
<path d="M206.852 229.801L194.706 235.402L194.19 234.223C189.809 232.421 185.302 230.943 180.705 229.801C172.755 227.794 167.656 222.048 168.267 220.491C168.406 220.135 168.958 220.208 169.722 220.528C169.737 220.528 169.744 220.535 169.758 220.542C169.999 220.651 170.26 220.775 170.537 220.92C168.02 218.804 166.493 216.92 167.14 216.52C167.686 216.185 169.875 217.182 171.991 218.295C168.202 215.618 165.474 212.316 166.776 211.676C167.344 211.4 169.198 212.556 171.119 213.494C172.53 214.178 174.013 214.883 175.141 215.429C171.86 213.625 169.009 210.818 169.737 209.952C170.595 208.912 174.573 211.16 181.403 214.185C183.035 214.89 184.714 215.479 186.429 215.945C188.058 216.404 189.687 216.782 191.208 217.08C192.32 217.306 193.382 217.487 194.313 217.633C196.663 218.011 198.248 218.156 198.248 218.156L198.241 218.149C197.324 216.389 196.131 214.788 194.706 213.407C192.713 211.676 192.459 208.308 192.982 207.705C193.506 207.101 194.793 208.999 198.939 211.16C202.267 212.87 204.83 215.77 206.118 219.284C207.587 223.088 206.852 229.801 206.852 229.801Z" fill="#FABC93"/>
<path opacity="0.61" d="M206.852 229.801C206.852 229.801 203.716 233.326 200.022 234.622C200.022 234.622 205.041 235.281 208.366 233.105L206.852 229.801Z" fill="#DE6F25"/>
<path d="M325.757 243.846C325.633 245.46 325.539 246.42 325.539 246.42L324.414 273.463L323.468 296.192H255.164L252.909 267.026L252.102 261.593C243.009 263.071 233.698 260.956 226.136 255.694C229.278 245.184 236.13 217.291 243.709 211.676C253.171 204.679 265.82 202.948 265.82 202.948L303.546 203.726C303.546 203.726 318.115 205.675 323.293 211.036C327.546 215.429 326.331 236.456 325.757 243.846Z" fill="#215E75"/>
<path opacity="0.75" d="M255.989 268.209C255.989 268.209 274.827 288 309.739 280.878L306.628 291.386L257.024 299.249L255.989 268.209Z" fill="#123042"/>
<path d="M252.908 267.026C252.377 267.091 251.853 267.142 251.337 267.193C251.22 267.201 251.104 267.215 250.995 267.222C240.717 268.139 234.201 266.313 230.251 264.255L230.164 264.211C228.112 263.23 226.324 261.774 224.949 259.964C224.938 259.941 224.926 259.919 224.912 259.898C224.912 259.898 225.356 258.305 226.134 255.694C233.696 260.956 243.007 263.071 252.1 261.593L252.908 267.026Z" fill="#DEE9FC"/>
<path opacity="0.75" d="M252.906 267.026C250.406 267.327 247.889 267.458 245.371 267.419C244.804 261.411 246.942 240.842 250.186 223.866C248.979 243.999 252.906 267.026 252.906 267.026Z" fill="#163C4F"/>
<path opacity="0.75" d="M325.756 243.846C325.632 245.461 325.538 246.421 325.538 246.421L324.465 272.16C318.899 272.741 313.295 272.864 307.709 272.53C301.441 248.491 311.11 221.36 311.11 221.36C311.11 221.36 318.584 233.714 325.756 243.846Z" fill="#163C4F"/>
<path d="M297.029 198.207C297.029 198.207 302.295 199.234 303.542 203.728C303.542 203.728 299.184 216.993 286.611 223.863C286.611 223.863 284.495 217.295 279.913 214.53C279.913 214.53 276.63 214.141 271.359 222.955C268.947 220.279 267.191 217.078 266.23 213.606C265.268 210.134 265.128 206.485 265.819 202.949C265.819 202.949 269.892 198.217 275.463 198.207C281.034 198.198 297.029 198.207 297.029 198.207Z" fill="#DEE9FC"/>
<path d="M297.631 202.084C297.631 202.084 291.405 211.503 280.516 211.677C278.454 210.964 276.569 209.815 274.989 208.309C273.409 206.803 272.171 204.975 271.359 202.949C271.359 202.949 274.21 199.32 273.003 191.283L297.252 175.245C297.252 175.245 297.107 176.438 296.947 178.409C296.532 183.551 296.009 193.959 297.631 202.084Z" fill="#FABC93"/>
<path opacity="0.61" d="M297.252 175.245C297.207 176.304 297.105 177.361 296.947 178.409C295.914 185.675 291.346 202.949 271.359 202.949C271.359 202.949 274.21 199.32 273.003 191.283L297.252 175.245Z" fill="#DE6F25"/>
<path d="M264.224 161.312H262.181V179.294H264.224V161.312Z" fill="white" stroke="#EF184C" stroke-width="0.363667" stroke-miterlimit="10"/>
<path d="M262.182 179.294C266.057 179.294 269.198 175.268 269.198 170.303C269.198 165.338 266.057 161.312 262.182 161.312C258.306 161.312 255.165 165.338 255.165 170.303C255.165 175.268 258.306 179.294 262.182 179.294Z" fill="#86F7F5"/>
<path d="M264.247 179.294C268.122 179.294 271.264 175.268 271.264 170.303C271.264 165.338 268.122 161.312 264.247 161.312C260.372 161.312 257.23 165.338 257.23 170.303C257.23 175.268 260.372 179.294 264.247 179.294Z" fill="#499096"/>
<path d="M257.703 166.007C257.703 166.007 255.46 157.861 257.781 146.834L266.582 149.934L257.703 166.007Z" fill="#DEE9FC"/>
<path d="M301.079 166.05C301.079 166.05 305.061 154.211 303.678 148.94C303.305 147.453 302.492 146.114 301.346 145.096C300.2 144.079 298.773 143.43 297.253 143.236C297.253 143.236 299.617 136.928 286.827 131.744C274.038 126.56 258.137 141.336 254.679 139.868C254.679 139.868 255.319 145.724 260.1 144.514C258.05 146.057 256.496 148.167 255.63 150.583C254.161 154.644 251.827 155.076 251.827 155.076C251.827 155.076 256.062 158.188 258.568 154.472C258.568 154.472 256.753 156.891 258.049 162.12C258.481 163.706 259.223 165.191 260.232 166.489C261.24 167.787 262.496 168.873 263.926 169.684L296.677 172.884L301.079 166.05Z" fill="#020331"/>
<path d="M303.042 170.232C302.76 171.587 302.04 172.811 300.994 173.716C299.948 174.622 298.633 175.158 297.252 175.244C297.252 175.244 297.842 178.189 293.092 184.845C288.343 191.5 277.534 199.318 268.552 190.38C261.358 183.223 260.442 159.919 260.442 159.919L261.468 155.569L261.526 155.315C263.213 161.148 276.24 159.657 276.24 159.657C271.119 158.879 268.334 154.471 268.334 154.471C274.814 161.213 286.808 157.453 286.808 157.453C287.003 159.226 287.705 160.906 288.83 162.29C290.007 163.703 291.584 164.727 293.354 165.228L296.307 171.192L296.983 165.941C300.002 163.003 304.082 165.388 303.042 170.232Z" fill="#FABC93"/>
<path d="M300.355 161.312H298.312V179.294H300.355V161.312Z" fill="#393BC6"/>
<path d="M299.334 174.741L296.12 184.501C295.529 186.299 294.385 187.863 292.852 188.973C291.319 190.082 289.474 190.679 287.582 190.679H278.618" stroke="#499096" stroke-width="1.45467" stroke-miterlimit="10"/>
<path d="M279.836 192.105H275.8C275.603 192.105 275.407 192.066 275.225 191.99C275.042 191.915 274.876 191.804 274.737 191.665C274.597 191.525 274.486 191.359 274.411 191.177C274.335 190.994 274.296 190.799 274.296 190.601C274.296 190.202 274.455 189.82 274.737 189.538C275.019 189.256 275.401 189.097 275.8 189.097H279.836C280.033 189.097 280.229 189.136 280.411 189.212C280.593 189.287 280.759 189.398 280.899 189.538C281.038 189.677 281.149 189.843 281.225 190.026C281.3 190.208 281.339 190.404 281.339 190.601C281.339 190.799 281.3 190.994 281.225 191.177C281.149 191.359 281.038 191.525 280.899 191.665C280.759 191.804 280.593 191.915 280.411 191.99C280.229 192.066 280.033 192.105 279.836 192.105Z" fill="#DEE9FC"/>
<path d="M305.326 170.451C305.203 175.415 301.962 179.362 298.089 179.266C294.215 179.17 291.174 175.067 291.297 170.101C291.421 165.136 294.661 161.191 298.535 161.287C302.41 161.383 305.449 165.487 305.326 170.451Z" fill="#499096"/>
<path d="M301.078 162.039C301.078 162.039 301.712 148.249 292.962 141.055C284.212 133.861 271.963 134.379 266.13 137.815C258.559 142.273 257.703 147.146 257.703 147.146C257.703 147.146 264.831 137.101 276.888 138.916C288.946 140.732 295.951 148.383 296.397 163.739L301.078 162.039Z" fill="#DEE9FC"/>
<path d="M307.391 170.503C307.515 165.539 304.474 161.438 300.6 161.341C296.726 161.245 293.486 165.191 293.362 170.155C293.239 175.119 296.28 179.221 300.154 179.317C304.028 179.413 307.268 175.467 307.391 170.503Z" fill="#86F7F5"/>
<path d="M306.759 170.487C306.664 174.334 304.148 177.397 301.144 177.324C300.67 177.308 300.201 177.217 299.755 177.055C297.449 176.204 295.798 173.447 295.885 170.218C295.965 167.083 297.638 164.479 299.878 163.65C300.395 163.458 300.943 163.367 301.493 163.381C304.497 163.461 306.854 166.639 306.759 170.487Z" fill="#499096"/>
<path d="M303.748 170.487C303.668 173.622 301.995 176.226 299.755 177.055C297.449 176.204 295.798 173.447 295.885 170.218C295.965 167.083 297.638 164.479 299.878 163.65C302.184 164.501 303.83 167.258 303.748 170.487Z" fill="#DEE9FC"/>
<path d="M341.961 288.417C341.445 293.472 338.979 296.192 332.237 296.192H279.222V288.802L318.236 277.914L317.363 272.626L315.676 262.364L337.161 254.785C337.161 254.785 338.39 261.382 339.612 268.801C340.924 276.823 342.233 285.791 341.961 288.417Z" fill="#FABC93"/>
<path opacity="0.61" d="M339.615 268.801C332.69 271.535 323.948 272.408 317.365 272.626L315.678 262.364L337.163 254.785C337.163 254.785 338.39 261.382 339.615 268.801Z" fill="#DE6F25"/>
<path d="M341.962 259.382C327.444 269.921 312.752 266.466 312.752 266.466C312.083 264.713 311.501 262.924 310.999 261.113C303.879 235.351 313.283 204.693 323.291 211.036C331.517 216.243 338.107 241.911 340.733 253.585C341.533 257.127 341.962 259.382 341.962 259.382Z" fill="#215E75"/>
<path d="M341.961 259.382C327.443 269.921 312.751 266.466 312.751 266.466C312.082 264.713 311.5 262.924 310.998 261.113C310.998 261.113 328.884 262.895 340.732 253.585C341.532 257.127 341.961 259.382 341.961 259.382Z" fill="#DEE9FC"/>
<path d="M279.221 288.802L266.181 285.322C265.55 285.154 264.891 285.122 264.247 285.229C263.603 285.336 262.99 285.58 262.448 285.943L249.96 294.315C249.778 294.438 249.64 294.616 249.566 294.823C249.493 295.03 249.487 295.255 249.551 295.465C249.615 295.675 249.745 295.859 249.921 295.99C250.098 296.121 250.311 296.192 250.531 296.192H260.132C260.492 296.192 260.85 296.146 261.198 296.055L265.308 294.983C265.308 294.983 268.331 296.796 279.22 296.192L279.221 288.802Z" fill="#FABC93"/>
<path d="M283.658 296.192H256.955L257.215 291.526L280.998 293.406L283.658 296.192Z" fill="#EA711F"/>
<path d="M264.174 296.192H187.193L176.872 243.933C176.814 243.636 176.822 243.331 176.896 243.038C176.97 242.744 177.108 242.471 177.3 242.238C177.492 242.004 177.733 241.816 178.006 241.686C178.279 241.557 178.578 241.49 178.88 241.489H250.98C251.654 241.489 252.307 241.724 252.828 242.152C253.348 242.581 253.703 243.177 253.832 243.839L264.174 296.192Z" fill="#123042"/>
<path d="M260.672 296.192H187.19C187.19 296.192 187.175 296.127 187.153 295.996L176.869 243.933C176.811 243.636 176.819 243.331 176.892 243.038C176.966 242.744 177.104 242.471 177.296 242.238C177.488 242.004 177.729 241.816 178.002 241.686C178.276 241.557 178.574 241.49 178.876 241.489H247.471C248.146 241.489 248.8 241.723 249.321 242.152C249.842 242.58 250.199 243.176 250.329 243.839L260.672 296.192Z" fill="#020331"/>
<g style="mix-blend-mode:screen" opacity="0.27">
<path d="M189.336 293.617L179.949 246.099C179.896 245.828 179.903 245.549 179.971 245.282C180.038 245.014 180.164 244.765 180.339 244.552C180.514 244.339 180.734 244.167 180.984 244.049C181.233 243.93 181.505 243.869 181.781 243.868H244.388C182.08 245.236 188.778 290.384 189.336 293.617Z" fill="#123042"/>
</g>
<path d="M220.892 270.423C221.015 270.964 221.012 271.526 220.883 272.066C220.754 272.606 220.503 273.11 220.15 273.538C219.796 273.965 219.348 274.306 218.842 274.534C218.336 274.761 217.784 274.87 217.229 274.851C215.991 274.807 214.803 274.346 213.86 273.542C212.917 272.738 212.274 271.639 212.036 270.423C211.913 269.881 211.916 269.319 212.044 268.779C212.173 268.238 212.424 267.735 212.778 267.307C213.132 266.879 213.579 266.538 214.085 266.311C214.592 266.083 215.144 265.975 215.699 265.994C216.937 266.037 218.125 266.499 219.068 267.303C220.01 268.107 220.653 269.206 220.892 270.423Z" fill="#86F7F5"/>
<path d="M481.353 296.192H70.4601V305.785H481.353V296.192Z" fill="#933306"/>
<path d="M284.129 305.785H283.562C282.776 302.985 281.518 301.101 279.692 299.967C276.063 297.712 270.142 298.272 259.261 301.894C242.707 307.415 217.978 305.276 205.279 299.814C201.781 298.352 198.184 297.141 194.514 296.192H196.565C199.603 297.044 202.583 298.086 205.49 299.312C218.102 304.738 242.649 306.862 259.094 301.378C270.142 297.69 276.194 297.152 279.976 299.501C281.954 300.73 283.307 302.76 284.129 305.785Z" fill="#BC561D"/>
<path d="M263.399 296.192C259.959 298.199 253.682 300.934 244.67 301.261C244.306 301.276 243.935 301.283 243.572 301.283C236.233 301.283 227.81 298.767 221.206 296.192H222.712C229.382 298.672 237.608 300.963 244.648 300.716C250.798 300.588 256.834 299.039 262.286 296.192H263.399Z" fill="#BC561D"/>
<path d="M279.99 305.786H279.372C278.586 304.215 277.291 302.614 275.226 302.425C272.782 302.2 270.295 304.113 268.527 305.786H267.749C269.633 303.916 272.382 301.633 275.277 301.887C277.718 302.105 279.168 304.011 279.99 305.786Z" fill="#BC561D"/>
<path d="M437.799 305.785H437.181C432.526 296.774 419.237 295.232 395.839 300.861C368.564 307.436 337.354 301.625 333.856 300.934C333.859 301.158 333.804 301.378 333.696 301.574C332.728 303.312 327.659 304.353 319.411 304.505C319.062 304.505 318.713 304.513 318.371 304.513C304.617 304.513 296.929 299.61 293.241 296.192H294.056C297.918 299.596 305.715 304.214 319.404 303.96C330.975 303.749 332.903 301.88 333.216 301.312C333.285 301.191 333.318 301.053 333.311 300.914C333.305 300.775 333.259 300.641 333.179 300.527C332.299 299.072 327.637 297.632 321.396 297.763C316.101 297.865 313.839 298.65 313.512 299.298C313.485 299.347 313.474 299.404 313.48 299.46C313.487 299.516 313.511 299.568 313.548 299.61C314.109 300.418 317.44 301.341 322.837 300.738C322.907 300.733 322.978 300.754 323.033 300.799C323.088 300.844 323.125 300.907 323.135 300.978C323.143 301.05 323.122 301.123 323.077 301.18C323.033 301.237 322.967 301.274 322.895 301.283C317.549 301.872 313.861 301.021 313.098 299.923C313.005 299.799 312.949 299.651 312.937 299.497C312.924 299.343 312.954 299.188 313.025 299.05C313.578 297.981 316.625 297.312 321.389 297.217C327.273 297.094 332.532 298.403 333.645 300.25C333.664 300.28 333.678 300.312 333.688 300.345C335.121 300.636 367.538 307.116 395.708 300.338C419.621 294.57 433.144 296.286 437.799 305.785Z" fill="#BC561D"/>
<path d="M390.938 296.192C383.352 298.738 373.766 301.029 363.852 301.029C356.12 301.155 348.462 299.5 341.472 296.192H342.737C358.324 303.334 376.304 300.294 389.185 296.192H390.938Z" fill="#BC561D"/>
<path d="M200.694 305.786H199.734C195.725 303.183 191.299 301.286 186.649 300.178C178.125 298.112 164.779 297.632 147.701 305.786H146.464C164.175 297.043 178.023 297.523 186.809 299.654C191.774 300.83 196.481 302.908 200.694 305.786Z" fill="#BC561D"/>
<path d="M192.237 305.786H191.234C186.331 302.716 176.774 299.48 161.958 305.786H160.606C177.036 298.381 187.342 302.447 192.237 305.786Z" fill="#BC561D"/>
<path d="M184.172 305.786H183.328C182.237 304.848 180.877 304.28 179.444 304.164C177.836 304.142 176.277 304.72 175.073 305.786H174.236C174.92 305.092 175.735 304.543 176.635 304.171C177.534 303.798 178.499 303.611 179.473 303.618C181.243 303.775 182.904 304.541 184.172 305.786Z" fill="#BC561D"/>
<path d="M149.318 296.192C141.571 300.238 133.099 302.71 124.392 303.465C123.505 303.531 122.632 303.567 121.788 303.567C114.359 303.579 107.165 300.967 101.474 296.192H102.339C108.541 301.175 116.421 303.583 124.348 302.92C132.628 302.211 140.695 299.927 148.118 296.192H149.318Z" fill="#BC561D"/>
<path d="M133.658 296.192C131.978 298.541 129.206 300.607 124.639 300.789C124.421 300.796 124.21 300.796 123.999 300.796C122.391 300.835 120.791 300.554 119.291 299.971C117.792 299.388 116.423 298.514 115.264 297.399C114.87 297.019 114.498 296.615 114.151 296.192H114.842C116.038 297.587 117.547 298.682 119.245 299.385C120.944 300.089 122.784 300.383 124.617 300.243C128.748 300.076 131.345 298.294 132.967 296.192H133.658Z" fill="#BC561D"/>
<path d="M94.6484 305.785H93.9865C90.7426 301.065 86.1095 298.061 81.9418 296.192H83.2438C87.825 298.328 91.7597 301.638 94.6484 305.785Z" fill="#BC561D"/>
<path opacity="0.61" d="M481.353 296.192H70.4601V299.174H481.353V296.192Z" fill="#DE6F25"/>
</svg>
