<svg width="48" height="48" viewBox="0 0 48 48" fill="none" xmlns="http://www.w3.org/2000/svg">
<g clip-path="url(#clip0_1_4243)">
<path d="M19.8852 10.0162H19.9089C20.4664 10.0162 20.9186 9.56404 20.9186 9.00651C20.9186 8.44889 20.4664 7.99683 19.9089 7.99683H19.8852C19.3276 7.99683 18.8755 8.44889 18.8755 9.00651C18.8755 9.56423 19.3275 10.0162 19.8852 10.0162Z" fill="black"/>
<path d="M18.9873 41.9827H18.9635C18.4059 41.9827 17.9539 42.4347 17.9539 42.9924C17.9539 43.5499 18.4059 44.002 18.9635 44.002H18.9873C19.5449 44.002 19.997 43.5499 19.997 42.9924C19.997 42.4346 19.545 41.9827 18.9873 41.9827Z" fill="black"/>
<path d="M16.0915 41.9823H8.658C8.10038 41.9823 7.64832 42.4344 7.64832 42.992C7.64832 43.5495 8.10038 44.0017 8.658 44.0017H16.0915C16.6491 44.0017 17.1012 43.5495 17.1012 42.992C17.1012 42.4344 16.6493 41.9823 16.0915 41.9823Z" fill="black"/>
<path d="M43.3394 0H8.65832C8.1007 0 7.64864 0.452156 7.64864 1.00969V3.99834H4.66026C4.10264 3.99834 3.65057 4.4505 3.65057 5.00803V46.9903C3.65057 47.5478 4.10264 48 4.66026 48H39.3412C39.8988 48 40.3509 47.5478 40.3509 46.9903V44.0017H43.3395C43.8972 44.0017 44.3492 43.5495 44.3492 42.992V1.00969C44.349 0.452156 43.8972 0 43.3394 0ZM38.3314 45.9806H38.3313H5.66985V6.01772H29.2048V7.99669H22.7809C22.2233 7.99669 21.7712 8.44875 21.7712 9.00638C21.7712 9.56391 22.2233 10.0161 22.7809 10.0161H29.2048V14.1348C29.2048 14.6923 29.6569 15.1445 30.2144 15.1445H38.3314V45.9806ZM31.2241 13.1251V7.44562L34.0636 10.2851L36.9034 13.1251H31.2241ZM42.3297 41.9823H40.3507V14.1749C40.3513 14.1615 40.3528 14.1484 40.3528 14.1349C40.3528 13.8368 40.2236 13.5689 40.0183 13.384L30.9285 4.29403C30.8967 4.26216 30.8621 4.23347 30.8265 4.20638C30.8176 4.19963 30.8087 4.19297 30.7997 4.1865C30.764 4.16119 30.7274 4.13737 30.6888 4.11684C30.6866 4.11562 30.6843 4.11469 30.682 4.11366C30.6453 4.09453 30.6074 4.07831 30.569 4.06388C30.5582 4.05984 30.5477 4.056 30.5369 4.05234C30.4962 4.03866 30.4547 4.02647 30.4124 4.01803C30.4108 4.01775 30.4093 4.01766 30.4076 4.01728C30.3668 4.00931 30.3254 4.00462 30.2837 4.00181C30.2715 4.00097 30.2595 4.00041 30.2474 4.00003C30.2365 3.99966 30.2255 3.99834 30.2145 3.99834H9.6681V2.01938H42.3298V41.9823H42.3297Z" fill="black"/>
<path d="M29.5808 21.0346C27.1872 20.3789 24.6774 19.3144 22.5137 18.037C22.197 17.85 21.8038 17.8499 21.487 18.037C19.2302 19.3694 16.9187 20.3499 14.42 21.0346C13.9813 21.1548 13.6772 21.5536 13.6772 22.0085V25.8864C13.6772 30.0985 15.6224 32.8885 17.2541 34.4873C18.9637 36.1623 21.0489 37.1991 22.0007 37.1991C22.9524 37.1991 25.0377 36.1623 26.7472 34.4873C28.379 32.8886 30.3242 30.0986 30.3242 25.8864V22.0085C30.324 21.5536 30.0197 21.1549 29.5808 21.0346ZM22.0005 35.1758C21.2153 35.0265 15.6965 32.4698 15.6965 25.8864V22.7691C17.9018 22.1067 19.9757 21.2197 22.001 20.0726C23.9854 21.1921 26.1409 22.1136 28.3045 22.7682V25.8865H28.3046C28.3046 32.4702 22.7855 35.0264 22.0005 35.1758Z" fill="black"/>
<path d="M24.579 24.6343L20.8934 28.32L19.4225 26.8489C19.0281 26.4546 18.3888 26.4546 17.9945 26.8489C17.6002 27.2433 17.6002 27.8825 17.9945 28.2769L20.1793 30.4619C20.3765 30.6589 20.6349 30.7577 20.8934 30.7577C21.1518 30.7577 21.4102 30.659 21.6072 30.4619L26.0069 26.0623C26.4011 25.668 26.4011 25.0287 26.0069 24.6343C25.6126 24.2401 24.9732 24.2401 24.579 24.6343Z" fill="black"/>
</g>
<defs>
<clipPath id="clip0_1_4243">
<rect width="48" height="48" fill="white"/>
</clipPath>
</defs>
</svg>
