<svg width="18" height="18" viewBox="0 0 18 18" fill="none" xmlns="http://www.w3.org/2000/svg">
<g clip-path="url(#clip0_1_4490)">
<path d="M11.6693 1.11361C11.3957 0.271616 10.4914 -0.189142 9.64953 0.0845146C8.80754 0.35803 8.34678 1.26239 8.62043 2.10424L12.7651 14.8565C13.0498 15.6431 13.8994 16.085 14.7151 15.8503C15.5658 15.6054 16.0844 14.7019 15.8129 13.8663L11.6693 1.11361Z" fill="#DFA22F"/>
<path d="M5.24706 3.20033C4.9734 2.35841 4.06911 1.89765 3.22726 2.17116C2.3852 2.44475 1.92437 3.34904 2.1981 4.19103L6.34288 16.9433C6.62743 17.7298 7.47716 18.1719 8.29278 17.937C9.1435 17.6922 9.66205 16.7886 9.39057 15.953L5.24706 3.20033Z" fill="#3CB187"/>
<path d="M16.8863 11.675C17.7283 11.4015 18.1889 10.4973 17.9154 9.65524C17.6419 8.81339 16.7375 8.35256 15.8957 8.62615L3.14344 12.771C2.35686 13.0555 1.91487 13.9051 2.14958 14.7208C2.39447 15.5715 3.29806 16.0901 4.13358 15.8186L16.8863 11.6751" fill="#CE1E5B"/>
<path d="M5.80142 15.2768L8.84926 14.2865L7.85884 11.2383L4.81079 12.229L5.80142 15.2769" fill="#392538"/>
<path d="M12.2236 13.19C13.3759 12.8157 14.4469 12.4677 15.2715 12.1997L14.281 9.15096L11.2329 10.1417L12.2236 13.19Z" fill="#BB242A"/>
<path d="M14.7997 5.25276C15.6416 4.97925 16.1023 4.07496 15.8288 3.2329C15.5553 2.39104 14.6509 1.93029 13.8089 2.2038L1.05665 6.34872C0.270137 6.63307 -0.171918 7.4828 0.0629962 8.29842C0.307754 9.14906 1.21134 9.66769 2.047 9.39621L14.7997 5.25269" fill="#72C5CD"/>
<path d="M3.71409 8.85466C4.54413 8.58494 5.61429 8.23717 6.76242 7.86423C6.38815 6.71181 6.0401 5.64081 5.77214 4.81605L2.72339 5.80689L3.71409 8.85466Z" fill="#248C73"/>
<path d="M10.1362 6.768L13.1847 5.77743C12.8545 4.76117 12.5243 3.74492 12.194 2.72868L9.14551 3.71953L10.1362 6.768Z" fill="#62803A"/>
</g>
<defs>
<clipPath id="clip0_1_4490">
<rect width="18" height="18" fill="white"/>
</clipPath>
</defs>
</svg>
