<svg width="51" height="50" viewBox="0 0 51 50" fill="none" xmlns="http://www.w3.org/2000/svg">
<path fill-rule="evenodd" clip-rule="evenodd" d="M28.1204 8.60402C27.7225 9.46606 27.6469 10.6047 27.6469 11.6189V16.4766C27.6469 17.0519 27.1804 17.5182 26.6052 17.5182C26.0298 17.5182 25.5635 17.0519 25.5635 16.4766V11.6189C25.5635 10.5878 25.6235 9.04192 26.229 7.73081C26.5408 7.05486 27.0121 6.4084 27.7188 5.93546C28.4296 5.45984 29.3065 5.20825 30.3467 5.20825C32.2508 5.20825 33.496 6.11911 34.2071 7.3395C34.875 8.48627 35.0448 9.84719 35.0448 10.8519V24.5962H40.1804C41.084 24.5483 42.3165 24.8426 43.3454 25.5966C44.4373 26.3966 45.2915 27.7116 45.2915 29.6007C45.2915 31.4162 44.6198 32.7208 43.5479 33.5393C42.524 34.3212 41.2619 34.5626 40.2106 34.5626H24.9258V40.2535C24.9258 41.227 24.7508 42.3485 24.0715 43.2549C23.3542 44.2118 22.2144 44.7485 20.6804 44.7889C19.1951 44.828 17.9695 44.4364 17.1332 43.5326C16.3163 42.6497 16.0397 41.4578 16.0397 40.2535V25.1883H11.044C9.97715 25.1883 8.64801 25.008 7.56232 24.241C6.40986 23.4264 5.70813 22.0791 5.70813 20.1411C5.70813 18.3844 6.44903 17.1104 7.55153 16.31C8.6075 15.5434 9.91573 15.2644 11.044 15.2644H22.0942C22.6694 15.2644 23.1358 15.7308 23.1358 16.3061C23.1358 16.8814 22.6694 17.3478 22.0942 17.3478H11.044C10.2165 17.3478 9.37761 17.5588 8.77544 17.996C8.21978 18.3994 7.79146 19.0429 7.79146 20.1411C7.79146 21.5268 8.25894 22.1822 8.76465 22.5395C9.33711 22.9441 10.1551 23.1049 11.044 23.1049H17.0814C17.6567 23.1049 18.1231 23.5712 18.1231 24.1466V40.2535C18.1231 41.1797 18.3397 41.7689 18.6623 42.1176C18.9656 42.4453 19.5257 42.7353 20.6255 42.7064C21.6765 42.6785 22.1523 42.3416 22.4044 42.0053C22.6944 41.6185 22.8425 41.027 22.8425 40.2535V33.521C22.8425 32.9457 23.3088 32.4793 23.8842 32.4793H40.2106C40.9875 32.4793 41.7452 32.2945 42.2835 31.8835C42.7742 31.5089 43.2081 30.8533 43.2081 29.6007C43.2081 28.4218 42.7088 27.7128 42.1142 27.2772C41.4704 26.8055 40.7027 26.6503 40.2771 26.6774C40.255 26.6789 40.2327 26.6795 40.2106 26.6795H34.0031C33.4277 26.6795 32.9615 26.2133 32.9615 25.6378V10.8519C32.9615 10.0244 32.8123 9.08427 32.4069 8.38813C32.0442 7.76559 31.4613 7.29159 30.3467 7.29159C29.6517 7.29159 29.1933 7.45546 28.8775 7.66692C28.5573 7.88111 28.31 8.1934 28.1204 8.60402Z" fill="black"/>
</svg>
